<svg width="73" height="73" viewBox="0 0 73 73" fill="none" xmlns="http://www.w3.org/2000/svg">
<path d="M60.3442 39.2258C60.3442 54.3119 49.784 61.8549 37.2324 66.2299C36.5751 66.4526 35.8612 66.442 35.2109 66.1997C22.6291 61.8549 12.0688 54.3119 12.0688 39.2258V18.1054C12.0688 17.3051 12.3867 16.5377 12.9526 15.9719C13.5184 15.406 14.2858 15.0881 15.0861 15.0881C21.1205 15.0881 28.6635 11.4675 33.9135 6.88133C34.5527 6.33521 35.3658 6.03516 36.2065 6.03516C37.0473 6.03516 37.8604 6.33521 38.4996 6.88133C43.7797 11.4977 51.2926 15.0881 57.327 15.0881C58.1272 15.0881 58.8947 15.406 59.4605 15.9719C60.0264 16.5377 60.3442 17.3051 60.3442 18.1054V39.2258Z" stroke="#B2FF32" stroke-width="5" stroke-linecap="round" stroke-linejoin="round"/>
<path d="M27.1548 36.2063L33.1892 42.2407L45.2581 30.1719" stroke="#B2FF32" stroke-width="5" stroke-linecap="round" stroke-linejoin="round"/>
</svg>
