<svg xmlns="http://www.w3.org/2000/svg" width="20" height="20" fill="none" viewBox="0 0 20 20"><path stroke="#B2FF32" stroke-linecap="round" stroke-linejoin="round" stroke-width="2" d="m12.185 14.914-8.9-2.428M15.314 2.185a1.77 1.77 0 0 1 2.501 2.502l-3.348 3.349a.417.417 0 0 0 0 .59l.787.786a2.01 2.01 0 0 1 0 2.84l-.787.786a.416.416 0 0 1-.59 0L6.963 6.123a.417.417 0 0 1 0-.589l.787-.786a2.01 2.01 0 0 1 2.84 0l.786.786a.417.417 0 0 0 .59 0zM7.5 6.667C5.997 8.925 4.192 9.55 2.014 9.957a.423.423 0 0 0-.252.682l6.1 7.403a.834.834 0 0 0 .988.17c1.762-1.207 4.483-4.218 4.483-5.712"/></svg>