<svg xmlns="http://www.w3.org/2000/svg" width="20" height="20" fill="none" viewBox="0 0 20 20"><path stroke="#D7F906" stroke-linecap="round" stroke-linejoin="round" stroke-width="2" d="M9.167 5.834 5 1.667M15.827 10H1.7M17.621 15.317a2.8 2.8 0 0 1-.954-1.567 2.75 2.75 0 0 1-.954 1.567c-.48.383-.713.85-.713 1.329a1.666 1.666 0 1 0 3.334 0c0-.483-.238-.942-.713-1.33M7.083 3.75l1.79-1.79a1.004 1.004 0 0 1 1.42 0l6.08 6.08a1.004 1.004 0 0 1 0 1.42l-6.326 6.327a3.01 3.01 0 0 1-4.26 0l-3.24-3.24a3.01 3.01 0 0 1 0-4.26l2.178-2.179"/></svg>