<svg xmlns="http://www.w3.org/2000/svg" width="346" height="257" fill="none" viewBox="0 0 346 257"><g filter="url(#filter0_i_799_4756)"><path fill="#1E1E1E" fill-opacity=".8" d="M179.104 26.626C179.104 11.92 191.025 0 205.73 0h46.595c14.705 0 26.625 11.92 26.625 26.626V73.22c0 14.705-11.92 26.626-26.625 26.626H205.73c-14.705 0-26.626-11.92-26.626-26.626z"/><g clip-path="url(#clip0_799_4756)"><g filter="url(#filter1_f_799_4756)" opacity=".53"><path fill="#000" d="M259.367 50.975c0 3.837-.785 7.636-2.309 11.18a29.2 29.2 0 0 1-6.577 9.477 30.4 30.4 0 0 1-9.842 6.333 31.4 31.4 0 0 1-11.61 2.224c-3.984 0-7.929-.756-11.61-2.224a30.45 30.45 0 0 1-9.842-6.333 29.2 29.2 0 0 1-6.576-9.477 28.3 28.3 0 0 1-2.31-11.18c0-7.748 3.197-15.178 8.886-20.657 5.69-5.478 13.406-8.556 21.452-8.556 3.984 0 7.929.755 11.61 2.223a30.4 30.4 0 0 1 9.842 6.333 29.2 29.2 0 0 1 6.577 9.478 28.3 28.3 0 0 1 2.309 11.18"/></g><path fill="url(#paint0_linear_799_4756)" stroke="#CDCDCD" stroke-linecap="round" stroke-linejoin="round" stroke-width=".293" d="M260.52 48.394a31.49 31.49 0 0 1-19.441 29.096 31.493 31.493 0 1 1 19.441-29.096"/><path fill="url(#paint1_radial_799_4756)" d="M258.053 48.395a29.023 29.023 0 0 1-29.025 29.025 29.025 29.025 0 1 1 29.025-29.025"/><path fill="#F4F2F3" d="M229.028 20.883a.42.42 0 0 0-.423.423v4.881a.422.422 0 1 0 .846 0v-4.881a.42.42 0 0 0-.423-.423m-2.769.175a.423.423 0 0 0-.463.465l.214 2.042a.423.423 0 1 0 .842-.088l-.214-2.042a.42.42 0 0 0-.379-.377m5.557.002a.42.42 0 0 0-.38.377l-.214 2.042a.42.42 0 0 0 .376.465.42.42 0 0 0 .465-.377l.215-2.042a.422.422 0 0 0-.462-.465m-8.4.41a.422.422 0 0 0-.412.51l1.011 4.776c.048.23.272.375.501.326a.42.42 0 0 0 .327-.501l-1.011-4.775a.42.42 0 0 0-.416-.336m11.243.004a.42.42 0 0 0-.416.335l-1.014 4.775a.42.42 0 0 0 .326.502.42.42 0 0 0 .501-.326l1.015-4.775a.422.422 0 0 0-.412-.51m-13.957.761a.422.422 0 0 0-.439.553l.634 1.953a.423.423 0 1 0 .805-.262l-.634-1.953a.42.42 0 0 0-.366-.29m16.656.001a.42.42 0 0 0-.366.292l-.635 1.952a.423.423 0 1 0 .805.262l.635-1.953a.423.423 0 0 0-.439-.553m-19.34.982a.4.4 0 0 0-.164.037c-.215.095-.31.344-.215.558l1.982 4.46a.423.423 0 1 0 .774-.343l-1.983-4.46a.42.42 0 0 0-.394-.252m22.054.015a.42.42 0 0 0-.395.25l-1.988 4.458a.423.423 0 1 0 .773.345l1.988-4.458a.422.422 0 0 0-.378-.595m-24.545 1.303a.4.4 0 0 0-.241.056.42.42 0 0 0-.155.578l1.026 1.778a.422.422 0 1 0 .733-.423l-1.026-1.778a.42.42 0 0 0-.337-.211m27.002 0a.42.42 0 0 0-.337.21l-1.026 1.779a.422.422 0 1 0 .733.423l1.026-1.778a.422.422 0 0 0-.396-.634m-29.421 1.508a.424.424 0 0 0-.329.672l2.867 3.951a.422.422 0 1 0 .685-.497l-2.867-3.95a.42.42 0 0 0-.356-.176m31.87.022a.42.42 0 0 0-.357.174l-2.871 3.947a.423.423 0 1 0 .684.498l2.872-3.947a.422.422 0 0 0-.328-.672m-34.033 1.792a.422.422 0 0 0-.336.706l1.373 1.526a.423.423 0 1 0 .629-.566l-1.373-1.526a.43.43 0 0 0-.293-.14m36.169.003a.42.42 0 0 0-.293.14l-1.374 1.525a.42.42 0 0 0 .032.598c.174.157.44.143.597-.031l1.374-1.526a.423.423 0 0 0-.336-.706m-38.241 1.987a.422.422 0 0 0-.261.737l3.628 3.267a.422.422 0 1 0 .566-.629l-3.628-3.266a.42.42 0 0 0-.305-.109m40.323.015a.42.42 0 0 0-.306.108l-3.63 3.263a.422.422 0 1 0 .566.63l3.63-3.264a.421.421 0 0 0-.26-.737m-42.046 2.201a.42.42 0 0 0-.357.175.42.42 0 0 0 .093.591l1.661 1.207a.423.423 0 1 0 .498-.685l-1.661-1.207a.42.42 0 0 0-.234-.08m43.768.016a.4.4 0 0 0-.234.08l-1.662 1.206a.42.42 0 0 0-.094.592c.137.19.401.231.591.093l1.662-1.205a.423.423 0 0 0-.263-.766m-45.379 2.348a.423.423 0 0 0-.182.79l4.227 2.44a.42.42 0 0 0 .578-.155.42.42 0 0 0-.155-.578l-4.227-2.44a.42.42 0 0 0-.241-.057m46.978 0a.42.42 0 0 0-.242.056l-4.227 2.44a.423.423 0 1 0 .423.734l4.228-2.44a.423.423 0 0 0-.182-.79m-48.196 2.52a.42.42 0 0 0-.394.25.42.42 0 0 0 .214.56l1.875.836a.423.423 0 1 0 .345-.773l-1.875-.837a.4.4 0 0 0-.165-.036m49.422.017a.4.4 0 0 0-.165.037l-1.876.835c-.214.095-.309.344-.214.559.095.214.345.31.559.214l1.875-.835a.423.423 0 0 0-.179-.81m-50.507 2.616a.42.42 0 0 0-.366.29.42.42 0 0 0 .271.534l4.641 1.512a.423.423 0 1 0 .262-.804l-4.641-1.513a.4.4 0 0 0-.167-.02m51.59.018a.4.4 0 0 0-.167.02l-4.642 1.508a.42.42 0 0 0-.272.534c.072.223.31.344.533.271l4.642-1.509a.423.423 0 0 0-.094-.824m-52.266 2.746a.423.423 0 0 0-.091.838l2.009.426a.423.423 0 1 0 .176-.828l-2.008-.426a.4.4 0 0 0-.086-.01m52.937.004a1 1 0 0 0-.086.01l-2.008.426a.422.422 0 1 0 .176.828l2.008-.427a.422.422 0 0 0-.09-.837m-53.449 2.777a.422.422 0 0 0-.003.842l4.854.513a.423.423 0 1 0 .089-.842l-4.854-.513a.4.4 0 0 0-.086 0m53.964.036a.4.4 0 0 0-.086 0l-4.855.507a.423.423 0 1 0 .088.842l4.855-.507a.423.423 0 0 0-.002-.842m-54.046 2.81a.422.422 0 1 0 0 .846h2.053a.423.423 0 1 0 0-.846zm52.07 0a.422.422 0 1 0 0 .846h2.054a.422.422 0 1 0 0-.846zm-47.053 2.307a.4.4 0 0 0-.086 0l-4.855.507a.423.423 0 1 0 .088.841l4.855-.506a.423.423 0 0 0-.002-.842m44.088.03a.422.422 0 0 0-.004.842l4.855.513a.422.422 0 1 0 .089-.842l-4.854-.513a.4.4 0 0 0-.086 0m-46.508 2.858a.4.4 0 0 0-.086.01l-2.008.426a.422.422 0 1 0 .176.828l2.008-.426a.422.422 0 0 0-.09-.838m48.929.005a.422.422 0 0 0-.09.837l2.008.427a.42.42 0 0 0 .502-.326.42.42 0 0 0-.326-.502l-2.008-.427a.4.4 0 0 0-.086-.01m-45.547 1.666a.4.4 0 0 0-.167.02l-4.642 1.509a.423.423 0 1 0 .261.805l4.642-1.51a.423.423 0 0 0-.094-.824m42.161.015a.423.423 0 0 0-.095.825l4.641 1.512a.423.423 0 1 0 .263-.805l-4.641-1.512a.4.4 0 0 0-.168-.02m-43.933 3.29a.4.4 0 0 0-.164.037l-1.876.835c-.214.096-.309.345-.214.559s.344.31.559.214l1.875-.835a.422.422 0 0 0-.18-.81m45.703.016a.42.42 0 0 0-.395.251.42.42 0 0 0 .214.56l1.875.836a.423.423 0 1 0 .345-.773l-1.875-.837a.4.4 0 0 0-.164-.037m-42.05.917a.4.4 0 0 0-.242.056l-4.227 2.441a.422.422 0 1 0 .423.733l4.227-2.44a.42.42 0 0 0 .155-.579.42.42 0 0 0-.336-.21m38.404 0a.423.423 0 0 0-.182.79l4.227 2.44a.424.424 0 1 0 .424-.733l-4.228-2.44a.4.4 0 0 0-.241-.057m-39.459 3.582a.42.42 0 0 0-.234.08l-1.662 1.207a.423.423 0 1 0 .497.685l1.662-1.206a.42.42 0 0 0 .094-.591.42.42 0 0 0-.357-.175m40.503.014a.423.423 0 0 0-.263.766l1.661 1.207a.422.422 0 1 0 .498-.685l-1.661-1.207a.42.42 0 0 0-.235-.08m-36.739.146a.42.42 0 0 0-.305.109l-3.63 3.263a.42.42 0 0 0-.032.597.42.42 0 0 0 .597.032l3.63-3.263a.421.421 0 0 0-.26-.738m32.976.012a.421.421 0 0 0-.261.737l3.627 3.266a.423.423 0 1 0 .567-.629l-3.628-3.265a.42.42 0 0 0-.305-.11m-29.532 3.1a.42.42 0 0 0-.357.174l-2.872 3.947a.423.423 0 1 0 .684.498l2.872-3.947a.423.423 0 0 0-.327-.672m26.074.018a.423.423 0 0 0-.328.672l2.866 3.95a.422.422 0 1 0 .685-.496l-2.866-3.951a.42.42 0 0 0-.357-.175m-29.781.61a.42.42 0 0 0-.292.14l-1.374 1.525a.423.423 0 1 0 .629.566l1.374-1.525a.423.423 0 0 0-.337-.707m33.509.001a.422.422 0 0 0-.336.706l1.373 1.527a.423.423 0 1 0 .629-.567l-1.374-1.526a.42.42 0 0 0-.292-.14m-25.792 1.693a.42.42 0 0 0-.395.251l-1.989 4.458a.423.423 0 1 0 .773.344l1.989-4.457a.422.422 0 0 0-.378-.596m18.051.012a.423.423 0 0 0-.379.595l1.983 4.46a.423.423 0 1 0 .773-.344l-1.982-4.46a.42.42 0 0 0-.395-.25m-21.546 1.366a.42.42 0 0 0-.337.211l-1.026 1.778a.42.42 0 0 0 .155.578c.203.118.46.049.578-.154l1.026-1.779a.423.423 0 0 0-.396-.634m25.068 0a.422.422 0 0 0-.396.634l1.026 1.779a.422.422 0 1 0 .733-.424l-1.026-1.778a.42.42 0 0 0-.337-.21m-17.146.064a.42.42 0 0 0-.417.335l-1.014 4.775a.422.422 0 1 0 .828.176l1.014-4.775a.422.422 0 0 0-.411-.511m9.209.003a.422.422 0 0 0-.412.51l1.011 4.776a.423.423 0 1 0 .828-.175l-1.011-4.775a.42.42 0 0 0-.416-.336m-4.597.482a.42.42 0 0 0-.423.423v4.881a.422.422 0 1 0 .846 0v-4.881a.42.42 0 0 0-.423-.423m-7.768 1.577a.42.42 0 0 0-.366.291L220.259 74a.423.423 0 1 0 .805.261l.635-1.952a.423.423 0 0 0-.439-.553m15.533 0a.421.421 0 0 0-.439.553l.634 1.953c.073.223.31.344.533.272a.42.42 0 0 0 .272-.533l-.634-1.953a.42.42 0 0 0-.366-.291m-10.421 1.088a.42.42 0 0 0-.38.378l-.214 2.041a.422.422 0 1 0 .841.088l.215-2.041a.422.422 0 0 0-.462-.466m5.295.003a.423.423 0 0 0-.463.465l.213 2.042a.423.423 0 1 0 .842-.088l-.213-2.042a.42.42 0 0 0-.379-.377"/><g filter="url(#filter2_f_799_4756)" opacity=".409"><path fill="#000" d="M248.861 31.468 225.708 44.92 211.07 67.965l21.415-15.862z"/></g><path fill="#FF5150" d="m232.345 51.87-6.636-6.95 23.541-15.837z"/><path fill="#F1F1F1" d="m232.345 51.87-6.636-6.95-16.905 22.786z"/><path fill="#000" d="m208.804 67.705 23.541-15.836 16.905-22.786z" opacity=".243"/></g></g><g filter="url(#filter3_i_799_4756)"><path fill="#1E1E1E" fill-opacity=".8" d="M66.384 26.626C66.384 11.92 78.304 0 93.009 0h46.595c14.705 0 26.626 11.92 26.626 26.626V73.22c0 14.705-11.921 26.626-26.626 26.626H93.009c-14.704 0-26.625-11.92-26.625-26.626z"/><g clip-path="url(#clip1_799_4756)"><mask id="mask0_799_4756" width="67" height="68" x="83" y="16" maskUnits="userSpaceOnUse" style="mask-type:luminance"><path fill="#fff" d="M116.306 83.18c18.369 0 33.26-14.89 33.26-33.259 0-18.368-14.891-33.258-33.26-33.258s-33.26 14.89-33.26 33.258 14.891 33.258 33.26 33.258"/></mask><g mask="url(#mask0_799_4756)"><path fill="#DB4437" d="M88.327 16.663V57.48h14.887l13.093-22.676h33.26v-18.14z"/><path fill="url(#paint2_linear_799_4756)" d="M88.327 16.663V57.48h14.887l13.093-22.676h33.26v-18.14z"/></g><mask id="mask1_799_4756" width="67" height="68" x="83" y="16" maskUnits="userSpaceOnUse" style="mask-type:luminance"><path fill="#fff" d="M116.306 83.18c18.369 0 33.26-14.89 33.26-33.259 0-18.368-14.891-33.258-33.26-33.258s-33.26 14.89-33.26 33.258 14.891 33.258 33.26 33.258"/></mask><g mask="url(#mask1_799_4756)"><path fill="#3E2723" fill-opacity=".15" d="M103.574 57.346 88.52 31.529l-.22.378 14.945 25.624z"/></g><mask id="mask2_799_4756" width="67" height="68" x="83" y="16" maskUnits="userSpaceOnUse" style="mask-type:luminance"><path fill="#fff" d="M116.306 83.18c18.369 0 33.26-14.89 33.26-33.259 0-18.368-14.891-33.258-33.26-33.258s-33.26 14.89-33.26 33.258 14.891 33.258 33.26 33.258"/></mask><g mask="url(#mask2_799_4756)"><path fill="#0F9D58" d="M83.046 83.179h31.662l14.695-14.695V57.48h-26.189L83.046 22.891z"/><path fill="url(#paint3_linear_799_4756)" d="M83.046 83.179h31.662l14.695-14.695V57.48h-26.189L83.046 22.891z"/></g><mask id="mask3_799_4756" width="67" height="68" x="83" y="16" maskUnits="userSpaceOnUse" style="mask-type:luminance"><path fill="#fff" d="M116.306 83.18c18.369 0 33.26-14.89 33.26-33.259 0-18.368-14.891-33.258-33.26-33.258s-33.26 14.89-33.26 33.258 14.891 33.258 33.26 33.258"/></mask><g mask="url(#mask3_799_4756)"><path fill="#263238" fill-opacity=".15" d="m129.097 57.982-.314-.181-14.51 25.378h.435l14.4-25.186z"/></g><mask id="mask4_799_4756" width="67" height="68" x="83" y="16" maskUnits="userSpaceOnUse" style="mask-type:luminance"><path fill="#fff" d="M116.306 83.18c18.369 0 33.26-14.89 33.26-33.259 0-18.368-14.891-33.258-33.26-33.258s-33.26 14.89-33.26 33.258 14.891 33.258 33.26 33.258"/></mask><g mask="url(#mask4_799_4756)"><mask id="mask5_799_4756" width="47" height="62" x="83" y="22" maskUnits="userSpaceOnUse" style="mask-type:luminance"><path fill="#fff" d="M83.046 83.179h31.662l14.695-14.695V57.48h-26.189L83.046 22.891z"/></mask><g mask="url(#mask5_799_4756)"><path fill="#FFCD40" d="m116.306 34.802 13.096 22.676-14.694 25.7h34.858V34.801z"/><path fill="url(#paint4_linear_799_4756)" d="m116.306 34.802 13.096 22.676-14.694 25.7h34.858V34.801z"/></g></g><mask id="mask6_799_4756" width="67" height="68" x="83" y="16" maskUnits="userSpaceOnUse" style="mask-type:luminance"><path fill="#fff" d="M116.306 83.18c18.369 0 33.26-14.89 33.26-33.259 0-18.368-14.891-33.258-33.26-33.258s-33.26 14.89-33.26 33.258 14.891 33.258 33.26 33.258"/></mask><g mask="url(#mask6_799_4756)"><path fill="#FFCD40" d="m116.306 34.803 13.096 22.676-14.694 25.7h34.858V34.802z"/><path fill="url(#paint5_linear_799_4756)" d="m116.306 34.803 13.096 22.676-14.694 25.7h34.858V34.802z"/></g><mask id="mask7_799_4756" width="67" height="68" x="83" y="16" maskUnits="userSpaceOnUse" style="mask-type:luminance"><path fill="#fff" d="M116.306 83.18c18.369 0 33.26-14.89 33.26-33.259 0-18.368-14.891-33.258-33.26-33.258s-33.26 14.89-33.26 33.258 14.891 33.258 33.26 33.258"/></mask><g mask="url(#mask7_799_4756)"><mask id="mask8_799_4756" width="36" height="50" x="114" y="34" maskUnits="userSpaceOnUse" style="mask-type:luminance"><path fill="#fff" d="m116.306 34.803 13.096 22.676-14.694 25.7h34.858V34.802z"/></mask><g mask="url(#mask8_799_4756)"><path fill="#DB4437" d="M88.327 16.663V57.48h14.887l13.093-22.676h33.26v-18.14z"/><path fill="url(#paint6_linear_799_4756)" d="M88.327 16.663V57.48h14.887l13.093-22.676h33.26v-18.14z"/></g></g><mask id="mask9_799_4756" width="67" height="68" x="83" y="16" maskUnits="userSpaceOnUse" style="mask-type:luminance"><path fill="#fff" d="M116.306 83.18c18.369 0 33.26-14.89 33.26-33.259 0-18.368-14.891-33.258-33.26-33.258s-33.26 14.89-33.26 33.258 14.891 33.258 33.26 33.258"/></mask><g mask="url(#mask9_799_4756)"><path fill="url(#paint7_radial_799_4756)" d="M116.307 34.803v7.917l29.631-7.917z"/></g><mask id="mask10_799_4756" width="67" height="68" x="83" y="16" maskUnits="userSpaceOnUse" style="mask-type:luminance"><path fill="#fff" d="M116.306 83.18c18.369 0 33.26-14.89 33.26-33.259 0-18.368-14.891-33.258-33.26-33.258s-33.26 14.89-33.26 33.258 14.891 33.258 33.26 33.258"/></mask><g mask="url(#mask10_799_4756)"><mask id="mask11_799_4756" width="62" height="42" x="88" y="16" maskUnits="userSpaceOnUse" style="mask-type:luminance"><path fill="#fff" d="M88.327 16.663V31.91l14.887 25.57 13.093-22.675h33.26v-18.14z"/></mask><g mask="url(#mask11_799_4756)"><path fill="#0F9D58" d="M83.046 83.179h31.662l14.695-14.695V57.48h-26.189L83.046 22.891z"/><path fill="url(#paint8_linear_799_4756)" d="M83.046 83.179h31.662l14.695-14.695V57.48h-26.189L83.046 22.891z"/></g></g><mask id="mask12_799_4756" width="67" height="68" x="83" y="16" maskUnits="userSpaceOnUse" style="mask-type:luminance"><path fill="#fff" d="M116.306 83.18c18.369 0 33.26-14.89 33.26-33.259 0-18.368-14.891-33.258-33.26-33.258s-33.26 14.89-33.26 33.258 14.891 33.258 33.26 33.258"/></mask><g mask="url(#mask12_799_4756)"><path fill="url(#paint9_radial_799_4756)" d="m88.327 31.95 21.638 21.633-6.751 3.897z"/></g><mask id="mask13_799_4756" width="67" height="68" x="83" y="16" maskUnits="userSpaceOnUse" style="mask-type:luminance"><path fill="#fff" d="M116.306 83.18c18.369 0 33.26-14.89 33.26-33.259 0-18.368-14.891-33.258-33.26-33.258s-33.26 14.89-33.26 33.258 14.891 33.258 33.26 33.258"/></mask><g mask="url(#mask13_799_4756)"><path fill="url(#paint10_radial_799_4756)" d="m114.731 83.137 7.922-29.554 6.75 3.897z"/></g><mask id="mask14_799_4756" width="67" height="68" x="83" y="16" maskUnits="userSpaceOnUse" style="mask-type:luminance"><path fill="#fff" d="M116.306 83.18c18.369 0 33.26-14.89 33.26-33.259 0-18.368-14.891-33.258-33.26-33.258s-33.26 14.89-33.26 33.258 14.891 33.258 33.26 33.258"/></mask><g mask="url(#mask14_799_4756)"><path fill="#F1F1F1" d="M116.307 65.037c8.349 0 15.118-6.768 15.118-15.117s-6.769-15.117-15.118-15.117-15.119 6.768-15.119 15.117 6.769 15.117 15.119 15.117"/><path fill="#4285F4" d="M116.306 62.015c6.68 0 12.095-5.415 12.095-12.094 0-6.68-5.415-12.094-12.095-12.094-6.679 0-12.094 5.415-12.094 12.094 0 6.68 5.415 12.094 12.094 12.094"/></g><mask id="mask15_799_4756" width="67" height="68" x="83" y="16" maskUnits="userSpaceOnUse" style="mask-type:luminance"><path fill="#fff" d="M116.306 83.18c18.369 0 33.26-14.89 33.26-33.259 0-18.368-14.891-33.258-33.26-33.258s-33.26 14.89-33.26 33.258 14.891 33.258 33.26 33.258"/></mask><g mask="url(#mask15_799_4756)"><path fill="#3E2723" fill-opacity=".2" d="M116.307 34.425c-8.349 0-15.119 6.769-15.119 15.117v.378c0-8.349 6.77-15.117 15.119-15.117h33.26v-.378z"/><path fill="#fff" fill-opacity=".1" d="M129.384 57.48c-2.616 4.512-7.488 7.558-13.078 7.558-5.593 0-10.465-3.046-13.081-7.559h-.015L83.046 22.891v.378l20.168 34.588h.015c2.616 4.513 7.487 7.559 13.081 7.559 5.59 0 10.462-3.043 13.077-7.559h.019v-.378z"/><path fill="#3E2723" d="M116.685 34.802c-.065 0-.125.007-.189.011 8.262.102 14.929 6.822 14.929 15.106s-6.667 15.004-14.929 15.106c.064 0 .124.011.189.011 8.349 0 15.118-6.768 15.118-15.117s-6.769-15.117-15.118-15.117" opacity=".1"/><path fill="#fff" fill-opacity=".2" d="M129.535 57.98a15.077 15.077 0 0 0 1.323-12.113c.359 1.294.566 2.65.566 4.056 0 2.752-.744 5.322-2.029 7.544l.007.015-14.694 25.7h.438l14.396-25.186z"/></g><mask id="mask16_799_4756" width="67" height="68" x="83" y="16" maskUnits="userSpaceOnUse" style="mask-type:luminance"><path fill="#fff" d="M116.306 83.18c18.369 0 33.26-14.89 33.26-33.259 0-18.368-14.891-33.258-33.26-33.258s-33.26 14.89-33.26 33.258 14.891 33.258 33.26 33.258"/></mask><g mask="url(#mask16_799_4756)"><path fill="#fff" fill-opacity=".2" d="M116.306 17.041c18.305 0 33.155 14.789 33.257 33.07 0-.065.003-.125.003-.19 0-18.367-14.891-33.258-33.26-33.258-18.368 0-33.26 14.89-33.26 33.258 0 .065.004.125.004.19.102-18.281 14.952-33.07 33.256-33.07"/><path fill="#3E2723" fill-opacity=".15" d="M116.306 82.802c18.305 0 33.155-14.789 33.257-33.07 0 .065.003.125.003.19 0 18.367-14.891 33.258-33.26 33.258-18.368 0-33.26-14.891-33.26-33.259 0-.064.004-.124.004-.189.102 18.281 14.952 33.07 33.256 33.07"/></g><path fill="url(#paint11_radial_799_4756)" d="M116.306 83.18c18.369 0 33.26-14.89 33.26-33.259 0-18.368-14.891-33.258-33.26-33.258s-33.26 14.89-33.26 33.258 14.891 33.258 33.26 33.258"/></g></g><g filter="url(#filter4_i_799_4756)"><path fill="#1E1E1E" fill-opacity=".8" d="M66.384 139.346c0-14.705 11.92-26.625 26.625-26.625h46.595c14.705 0 26.626 11.92 26.626 26.625v46.595c0 14.705-11.921 26.626-26.626 26.626H93.009c-14.704 0-26.625-11.921-26.625-26.626z"/><g clip-path="url(#clip2_799_4756)"><path fill="url(#paint12_linear_799_4756)" d="M146.438 151.652c-1.398-3.363-4.234-6.995-6.454-8.142a33.4 33.4 0 0 1 3.258 9.764l.006.054c-3.638-9.068-9.806-12.725-14.843-20.686q-.39-.61-.758-1.232a10 10 0 0 1-.354-.664 6 6 0 0 1-.48-1.274.1.1 0 0 0-.021-.056.08.08 0 0 0-.052-.027.1.1 0 0 0-.061 0c-.004 0-.011.007-.016.009s-.015.009-.023.012l.013-.021c-8.081 4.731-10.823 13.49-11.075 17.871a16.1 16.1 0 0 0-8.853 3.412 9 9 0 0 0-.83-.629 14.9 14.9 0 0 1-.091-7.863 23.8 23.8 0 0 0-7.743 5.984h-.015c-1.275-1.616-1.185-6.945-1.112-8.058a5.8 5.8 0 0 0-1.075.571 23.4 23.4 0 0 0-3.144 2.693 28 28 0 0 0-3.007 3.608v.005-.006a27.2 27.2 0 0 0-4.316 9.748l-.043.212a51 51 0 0 0-.316 2.009q-.002.035-.008.07a31 31 0 0 0-.522 4.435v.166c.022 24.766 26.845 40.221 48.282 27.82a32.175 32.175 0 0 0 15.593-22.38c.054-.414.098-.825.146-1.245a33.1 33.1 0 0 0-2.086-16.16m-37.079 25.182c.151.072.292.15.446.219l.022.015a20 20 0 0 1-.468-.234m33.891-23.498v-.031l.006.034z"/><path fill="url(#paint13_radial_799_4756)" d="M146.438 151.653c-1.398-3.364-4.234-6.995-6.454-8.143a33.4 33.4 0 0 1 3.258 9.764v.031l.006.034a29.14 29.14 0 0 1-1.001 21.713c-3.687 7.911-12.612 16.019-26.582 15.625-15.094-.428-28.387-11.628-30.872-26.298-.453-2.314 0-3.486.227-5.367a24 24 0 0 0-.517 4.439v.167c.022 24.765 26.845 40.22 48.282 27.819a32.17 32.17 0 0 0 15.593-22.379c.054-.415.098-.826.146-1.245a33.1 33.1 0 0 0-2.086-16.16"/><path fill="url(#paint14_radial_799_4756)" d="M146.438 151.653c-1.398-3.364-4.234-6.995-6.454-8.143a33.4 33.4 0 0 1 3.258 9.764v.031l.006.034a29.14 29.14 0 0 1-1.001 21.713c-3.687 7.911-12.612 16.019-26.582 15.625-15.094-.428-28.387-11.628-30.872-26.298-.453-2.314 0-3.486.227-5.367a24 24 0 0 0-.517 4.439v.167c.022 24.765 26.845 40.22 48.282 27.819a32.17 32.17 0 0 0 15.593-22.379c.054-.415.098-.826.146-1.245a33.1 33.1 0 0 0-2.086-16.16"/><path fill="url(#paint15_radial_799_4756)" d="M130.804 155.434c.07.049.134.098.2.147a17.5 17.5 0 0 0-2.988-3.897c-9.999-10.001-2.621-21.684-1.376-22.277l.012-.018c-8.08 4.731-10.822 13.49-11.074 17.871.375-.026.747-.058 1.13-.058a16.24 16.24 0 0 1 14.096 8.232"/><path fill="url(#paint16_radial_799_4756)" d="M116.729 157.431c-.053.8-2.881 3.56-3.869 3.56-9.148 0-10.633 5.534-10.633 5.534.405 4.66 3.652 8.498 7.578 10.528q.27.138.543.259.467.207.944.387c1.347.477 2.758.749 4.186.807 16.034.753 19.14-19.173 7.569-24.956 2.73-.355 5.494.316 7.757 1.884a16.24 16.24 0 0 0-14.096-8.232c-.382 0-.755.032-1.131.058a16.1 16.1 0 0 0-8.853 3.412c.491.415 1.045.969 2.211 2.119 2.183 2.151 7.781 4.378 7.794 4.64"/><path fill="url(#paint17_radial_799_4756)" d="M116.729 157.431c-.053.8-2.881 3.56-3.869 3.56-9.148 0-10.633 5.534-10.633 5.534.405 4.66 3.652 8.498 7.578 10.528q.27.138.543.259.467.207.944.387c1.347.477 2.758.749 4.186.807 16.034.753 19.14-19.173 7.569-24.956 2.73-.355 5.494.316 7.757 1.884a16.24 16.24 0 0 0-14.096-8.232c-.382 0-.755.032-1.131.058a16.1 16.1 0 0 0-8.853 3.412c.491.415 1.045.969 2.211 2.119 2.183 2.151 7.781 4.378 7.794 4.64"/><path fill="url(#paint18_radial_799_4756)" d="M105.225 149.602q.337.213.664.441a14.9 14.9 0 0 1-.09-7.863 23.8 23.8 0 0 0-7.744 5.984c.157-.004 4.824-.088 7.17 1.438"/><path fill="url(#paint19_radial_799_4756)" d="M84.797 164.379c2.482 14.67 15.778 25.871 30.872 26.298 13.97.395 22.895-7.714 26.582-15.625a29.14 29.14 0 0 0 1.001-21.713v-.03c0-.024-.005-.039 0-.031l.006.054c1.141 7.451-2.649 14.67-8.574 19.552l-.018.041c-11.544 9.402-22.593 5.673-24.829 4.15a17 17 0 0 1-.468-.233c-6.731-3.217-9.511-9.35-8.915-14.609a8.26 8.26 0 0 1-7.62-4.793 12.13 12.13 0 0 1 11.826-.475c3.81 1.73 8.145 1.9 12.079.475-.012-.262-5.611-2.49-7.794-4.64-1.166-1.15-1.72-1.703-2.21-2.119a9 9 0 0 0-.83-.629 39 39 0 0 0-.664-.441c-2.347-1.526-7.013-1.442-7.168-1.438h-.015c-1.275-1.616-1.185-6.945-1.112-8.058a5.8 5.8 0 0 0-1.074.57 23.5 23.5 0 0 0-3.144 2.694 28 28 0 0 0-3.02 3.6v.005-.006a27.2 27.2 0 0 0-4.316 9.747c-.016.066-1.159 5.062-.595 7.654"/><path fill="url(#paint20_radial_799_4756)" d="M128.017 151.684a17.5 17.5 0 0 1 2.989 3.901q.25.186.482.395c7.293 6.723 3.472 16.228 3.187 16.904 5.925-4.882 9.712-12.1 8.574-19.552-3.639-9.072-9.807-12.729-14.845-20.69q-.39-.61-.758-1.232a10 10 0 0 1-.354-.664 6 6 0 0 1-.48-1.274.083.083 0 0 0-.073-.083.1.1 0 0 0-.061 0c-.004 0-.01.007-.015.009l-.023.012c-1.245.59-8.623 12.273 1.377 22.274"/><path fill="url(#paint21_radial_799_4756)" d="M131.483 155.976a7 7 0 0 0-.482-.395q-.096-.073-.2-.147a11.1 11.1 0 0 0-7.757-1.883c11.571 5.785 8.467 25.708-7.569 24.956a14.3 14.3 0 0 1-4.186-.808 17 17 0 0 1-.944-.386c-.182-.084-.364-.166-.543-.259l.022.014c2.236 1.526 13.281 5.256 24.828-4.151l.019-.041c.288-.672 4.109-10.179-3.188-16.9"/><path fill="url(#paint22_radial_799_4756)" d="M102.228 166.525s1.485-5.534 10.633-5.534c.988 0 3.818-2.76 3.869-3.56a16.02 16.02 0 0 1-12.079-.475 12.14 12.14 0 0 0-11.828.475 8.27 8.27 0 0 0 7.621 4.793c-.596 5.26 2.185 11.393 8.915 14.609.151.072.292.15.446.219-3.928-2.029-7.172-5.867-7.577-10.527"/><path fill="url(#paint23_linear_799_4756)" d="M146.438 151.652c-1.398-3.363-4.234-6.995-6.454-8.142a33.4 33.4 0 0 1 3.258 9.764l.006.054c-3.638-9.068-9.806-12.725-14.843-20.686q-.39-.61-.758-1.232a10 10 0 0 1-.354-.664 6 6 0 0 1-.48-1.274.1.1 0 0 0-.021-.056.08.08 0 0 0-.052-.027.1.1 0 0 0-.061 0c-.004 0-.011.007-.016.009s-.015.009-.023.012l.013-.021c-8.081 4.731-10.823 13.49-11.075 17.871.375-.026.747-.058 1.131-.058a16.24 16.24 0 0 1 14.095 8.232 11.1 11.1 0 0 0-7.756-1.883c11.571 5.785 8.466 25.708-7.57 24.956a14.3 14.3 0 0 1-4.185-.808 16 16 0 0 1-.945-.387 12 12 0 0 1-.543-.259l.022.015a20 20 0 0 1-.468-.234c.151.072.292.15.446.219-3.928-2.03-7.172-5.868-7.577-10.528 0 0 1.485-5.534 10.633-5.534.988 0 3.818-2.76 3.868-3.56-.012-.262-5.611-2.49-7.794-4.64-1.166-1.149-1.72-1.703-2.21-2.119a9 9 0 0 0-.83-.629 14.9 14.9 0 0 1-.091-7.863 23.8 23.8 0 0 0-7.743 5.984h-.015c-1.275-1.616-1.185-6.945-1.112-8.058a5.8 5.8 0 0 0-1.075.571 23.4 23.4 0 0 0-3.144 2.693 28 28 0 0 0-3.007 3.608v.005-.006a27.2 27.2 0 0 0-4.316 9.748l-.043.212c-.06.283-.332 1.721-.371 2.03 0 .023 0-.025 0 0a37 37 0 0 0-.475 4.484v.166c.022 24.766 26.845 40.221 48.282 27.82a32.175 32.175 0 0 0 15.593-22.38c.054-.414.098-.825.146-1.245a33.1 33.1 0 0 0-2.086-16.16"/></g></g><g filter="url(#filter5_i_799_4756)"><path fill="#1E1E1E" fill-opacity=".8" d="M291.825 139.346c0-14.705 11.921-26.625 26.626-26.625h46.594c14.705 0 26.626 11.92 26.626 26.625v46.595c0 14.705-11.921 26.626-26.626 26.626h-46.594c-14.705 0-26.626-11.921-26.626-26.626z"/><g clip-path="url(#clip3_799_4756)"><path fill="url(#paint24_linear_799_4756)" d="M368.539 178.884a24 24 0 0 1-2.755 1.221 26.5 26.5 0 0 1-9.328 1.663c-12.291 0-22.996-8.445-22.996-19.306a8.19 8.19 0 0 1 4.261-7.094c-11.121.468-13.979 12.057-13.979 18.839 0 19.228 17.695 21.151 21.515 21.151 2.053 0 5.145-.598 7.016-1.195l.337-.104a33.33 33.33 0 0 0 17.306-13.72 1.036 1.036 0 0 0-.135-1.251 1.04 1.04 0 0 0-1.242-.204"/><path fill="url(#paint25_radial_799_4756)" d="M368.539 178.884a24 24 0 0 1-2.755 1.221 26.5 26.5 0 0 1-9.328 1.663c-12.291 0-22.996-8.445-22.996-19.306a8.19 8.19 0 0 1 4.261-7.094c-11.121.468-13.979 12.057-13.979 18.839 0 19.228 17.695 21.151 21.515 21.151 2.053 0 5.145-.598 7.016-1.195l.337-.104a33.33 33.33 0 0 0 17.306-13.72 1.036 1.036 0 0 0-.135-1.251 1.04 1.04 0 0 0-1.242-.204" opacity=".35"/><path fill="url(#paint26_linear_799_4756)" d="M335.953 192.084a20.6 20.6 0 0 1-5.898-5.535 20.98 20.98 0 0 1-3.432-17.376 20.98 20.98 0 0 1 11.097-13.805c.832-.39 2.209-1.066 4.054-1.04a8.42 8.42 0 0 1 6.678 3.378 8.3 8.3 0 0 1 1.637 4.859c0-.052 6.366-20.683-20.788-20.683-11.407 0-20.787 10.809-20.787 20.32a33.8 33.8 0 0 0 3.144 14.551 33.26 33.26 0 0 0 40.639 17.409 19.6 19.6 0 0 1-16.318-2.078z"/><path fill="url(#paint27_radial_799_4756)" d="M335.953 192.084a20.6 20.6 0 0 1-5.898-5.535 20.98 20.98 0 0 1-3.432-17.376 20.98 20.98 0 0 1 11.097-13.805c.832-.39 2.209-1.066 4.054-1.04a8.42 8.42 0 0 1 6.678 3.378 8.3 8.3 0 0 1 1.637 4.859c0-.052 6.366-20.683-20.788-20.683-11.407 0-20.787 10.809-20.787 20.32a33.8 33.8 0 0 0 3.144 14.551 33.26 33.26 0 0 0 40.639 17.409 19.6 19.6 0 0 1-16.318-2.078z" opacity=".41"/><path fill="url(#paint28_radial_799_4756)" d="M348.088 168.049c-.233.259-.883.649-.883 1.455 0 .675.442 1.351 1.247 1.897 3.716 2.598 10.758 2.234 10.784 2.234a15.5 15.5 0 0 0 7.873-2.157 15.953 15.953 0 0 0 7.899-13.745c.078-5.821-2.078-9.692-2.936-11.407-5.535-10.758-17.409-16.942-30.324-16.942a33.26 33.26 0 0 0-33.26 32.792c.13-9.484 9.563-17.15 20.788-17.15.909 0 6.106.078 10.913 2.599a18.86 18.86 0 0 1 8.029 7.613c1.585 2.755 1.871 6.262 1.871 7.666 0 1.403-.701 3.456-2.027 5.171z"/><path fill="url(#paint29_radial_799_4756)" d="M348.088 168.049c-.233.259-.883.649-.883 1.455 0 .675.442 1.351 1.247 1.897 3.716 2.598 10.758 2.234 10.784 2.234a15.5 15.5 0 0 0 7.873-2.157 15.953 15.953 0 0 0 7.899-13.745c.078-5.821-2.078-9.692-2.936-11.407-5.535-10.758-17.409-16.942-30.324-16.942a33.26 33.26 0 0 0-33.26 32.792c.13-9.484 9.563-17.15 20.788-17.15.909 0 6.106.078 10.913 2.599a18.86 18.86 0 0 1 8.029 7.613c1.585 2.755 1.871 6.262 1.871 7.666 0 1.403-.701 3.456-2.027 5.171z"/></g></g><g filter="url(#filter6_i_799_4756)"><path fill="#1E1E1E" fill-opacity=".8" d="M291.825 26.626C291.825 11.92 303.746 0 318.451 0h46.594c14.705 0 26.626 11.92 26.626 26.626V73.22c0 14.705-11.921 26.626-26.626 26.626h-46.594c-14.705 0-26.626-11.92-26.626-26.626z"/><g clip-path="url(#clip4_799_4756)"><path fill="url(#paint30_linear_799_4756)" d="M330.799 68.668c-3.678-4.343-6.06-10.756-6.22-17.96v-1.57c.16-7.204 2.542-13.616 6.22-17.96 4.776-6.193 11.867-10.125 19.783-10.125 4.869 0 9.433 1.49 13.331 4.078a33.1 33.1 0 0 0-22.038-8.468h-.127c-18.366 0-33.26 14.894-33.26 33.26 0 17.84 14.043 32.395 31.677 33.22a33.133 33.133 0 0 0 23.748-8.421c-3.898 2.58-8.455 4.07-13.331 4.07-7.916 0-15.007-3.93-19.783-10.124"/><path fill="url(#paint31_linear_799_4756)" d="M330.799 31.177c3.054-3.605 6.992-5.774 11.302-5.774 9.685 0 17.528 10.976 17.528 24.52s-7.849 24.519-17.528 24.519c-4.304 0-8.248-2.175-11.302-5.774 4.776 6.193 11.867 10.124 19.783 10.124 4.87 0 9.433-1.49 13.331-4.07 6.812-6.094 11.096-14.948 11.096-24.8s-4.284-18.705-11.096-24.792c-3.898-2.587-8.455-4.077-13.331-4.077-7.916 0-15.007 3.931-19.783 10.124"/></g></g><g filter="url(#filter7_i_799_4756)"><path fill="#1E1E1E" fill-opacity=".8" d="M-46.337 139.346c0-14.705 11.92-26.625 26.626-26.625h46.594c14.705 0 26.626 11.92 26.626 26.625v46.595c0 14.705-11.92 26.626-26.626 26.626H-19.71c-14.705 0-26.626-11.921-26.626-26.626z"/><path fill="#000" fill-rule="evenodd" d="M2.03 140.003a5.92 5.92 0 0 1 5.337 3.375l7.82 16.451s0 .008-.007.008c0 0 0-.008.008-.008 1.833-2.247 3.163-4.892 3.731-7.731.641-3.204 3.756-5.273 6.96-4.64a5.913 5.913 0 0 1 4.64 6.96c-1.313 6.563-4.98 12.428-9.945 16.736l2.84 5.97c1.573 3.31-.074 7.358-3.562 8.396l-.105.033a5.9 5.9 0 0 1-1.574.219 5.92 5.92 0 0 1-5.346-3.375l-2.523-5.305-5.135-10.806-2.523-5.305a.674.674 0 0 0-1.217 0l-2.58 5.419c-3.934-.836-7.893-3.269-10.131-6.23l7.974-16.776a5.89 5.89 0 0 1 5.338-3.391m-22.35 14.586a5.91 5.91 0 0 1 7.699 3.269c.316.787.77 1.557 1.33 2.296l.008.008.268.34c.025.033.049.057.073.09l.073.089c.04.04.073.089.114.13q.014.012.016.024l-.016-.024c.154.186.324.365.495.543.008.008.008.016.016.016.56.585 1.184 1.136 1.858 1.647.316.244.64.471.973.698.032.016.057.04.09.057 1.873 1.233 4.023 2.158 6.165 2.612.908.195 1.817.3 2.7.308h.114c1.177 0 2.353-.146 3.505-.422l5.135 10.806c-2.774.933-5.687 1.444-8.64 1.444-2.66 0-5.354-.463-7.966-1.298l-2.458 5.167a5.9 5.9 0 0 1-3.487 3.075 5.9 5.9 0 0 1-4.633-.398c-2.823-1.501-3.853-5.037-2.482-7.925l2.693-5.663c-3.042-2.571-5.468-5.694-6.871-9.085l-.04-.106a5.923 5.923 0 0 1 3.268-7.698" clip-rule="evenodd"/><path fill="#fff" fill-rule="evenodd" d="M2.03 140.003a5.92 5.92 0 0 1 5.337 3.375l7.82 16.451s0 .008-.007.008c0 0 0-.008.008-.008 1.833-2.247 3.163-4.892 3.731-7.731.641-3.204 3.756-5.273 6.96-4.64a5.913 5.913 0 0 1 4.64 6.96c-1.313 6.563-4.98 12.428-9.945 16.736l2.84 5.97c1.573 3.31-.074 7.358-3.562 8.396l-.105.033a5.9 5.9 0 0 1-1.574.219 5.92 5.92 0 0 1-5.346-3.375l-2.523-5.305-5.135-10.806-2.523-5.305a.674.674 0 0 0-1.217 0l-2.58 5.419c-3.934-.836-7.893-3.269-10.131-6.23l7.974-16.776a5.89 5.89 0 0 1 5.338-3.391m-22.35 14.586a5.91 5.91 0 0 1 7.699 3.269c.316.787.77 1.557 1.33 2.296l.008.008.268.34c.025.033.049.057.073.09l.073.089c.04.04.073.089.114.13q.014.012.016.024l-.016-.024c.154.186.324.365.495.543.008.008.008.016.016.016.56.585 1.184 1.136 1.858 1.647.316.244.64.471.973.698.032.016.057.04.09.057 1.873 1.233 4.023 2.158 6.165 2.612.908.195 1.817.3 2.7.308h.114c1.177 0 2.353-.146 3.505-.422l5.135 10.806c-2.774.933-5.687 1.444-8.64 1.444-2.66 0-5.354-.463-7.966-1.298l-2.458 5.167a5.9 5.9 0 0 1-3.487 3.075 5.9 5.9 0 0 1-4.633-.398c-2.823-1.501-3.853-5.037-2.482-7.925l2.693-5.663c-3.042-2.571-5.468-5.694-6.871-9.085l-.04-.106a5.923 5.923 0 0 1 3.268-7.698" clip-rule="evenodd"/><path stroke="#fff" stroke-linejoin="round" stroke-width="5.716" d="m15.188 159.829-7.82-16.451a5.915 5.915 0 0 0-8.501-2.458 5.9 5.9 0 0 0-2.175 2.474l-7.975 16.776c2.24 2.961 6.198 5.394 10.133 6.23l2.58-5.419a.674.674 0 0 1 1.216 0l2.523 5.305m10.019-6.457s0 .008-.008.008c0 0 0-.008.008-.008Zm0 0c1.833-2.247 3.163-4.892 3.731-7.731.641-3.204 3.756-5.273 6.96-4.64a5.913 5.913 0 0 1 4.64 6.96c-1.313 6.563-4.98 12.428-9.945 16.736l2.84 5.97c1.573 3.31-.074 7.358-3.562 8.396l-.105.033a5.9 5.9 0 0 1-1.574.219 5.92 5.92 0 0 1-5.346-3.375l-2.523-5.305-5.135-10.806m0 0h.016m-15.94-5.475c-.04-.041-.073-.09-.114-.13l-.073-.089c-.024-.033-.048-.057-.073-.09l-.268-.34-.008-.008a10 10 0 0 1-1.33-2.296 5.91 5.91 0 0 0-7.699-3.269 5.923 5.923 0 0 0-3.269 7.698l.04.106c1.404 3.391 3.83 6.514 6.872 9.085l-2.693 5.663c-1.371 2.888-.341 6.424 2.482 7.925a5.91 5.91 0 0 0 6.692-.782 5.9 5.9 0 0 0 1.428-1.895l2.458-5.167c2.612.835 5.306 1.298 7.966 1.298 2.953 0 5.866-.511 8.64-1.444L5.161 166.27a15 15 0 0 1-3.505.422h-.113a13.5 13.5 0 0 1-2.701-.308c-2.142-.454-4.292-1.379-6.166-2.612-.032-.017-.057-.041-.089-.057a21 21 0 0 1-.973-.698 16 16 0 0 1-1.858-1.647c-.008 0-.008-.008-.016-.016-.17-.178-.341-.357-.495-.543Zm0 0q.014.012.016.024z"/><path fill="#4E000A" fill-rule="evenodd" d="M15.188 159.829c-2.588 3.172-6.182 5.525-10.027 6.441l5.135 10.806c3.748-1.266 7.253-3.31 10.278-5.93z" clip-rule="evenodd"/><path fill="#FF9396" fill-rule="evenodd" d="M25.88 147.467a5.9 5.9 0 0 0-4.442.878 5.92 5.92 0 0 0-2.519 3.762c-.568 2.839-1.898 5.484-3.732 7.731l5.379 11.324c4.965-4.307 8.631-10.172 9.945-16.735.641-3.213-1.435-6.328-4.632-6.96" clip-rule="evenodd"/><path fill="#002DC8" fill-rule="evenodd" d="M5.16 166.271a15 15 0 0 1-3.504.421c-.916 0-1.865-.105-2.814-.308-3.935-.835-7.894-3.269-10.133-6.23a10 10 0 0 1-1.33-2.296 5.923 5.923 0 0 0-7.699-3.269 5.924 5.924 0 0 0-3.269 7.699c1.387 3.439 3.837 6.595 6.912 9.191a30.7 30.7 0 0 0 10.36 5.743c2.603.836 5.305 1.298 7.965 1.298 2.953 0 5.865-.511 8.64-1.444z" clip-rule="evenodd"/><path fill="#FF536A" fill-rule="evenodd" d="m23.406 177.116-2.84-5.97-5.378-11.317-.008.008s0-.008.008-.008l-7.82-16.451a5.92 5.92 0 0 0-5.338-3.375 5.92 5.92 0 0 0-5.338 3.375l-7.974 16.776c2.239 2.961 6.198 5.394 10.132 6.23l2.58-5.419a.675.675 0 0 1 1.216 0l2.523 5.305 5.135 10.806 2.523 5.305a5.91 5.91 0 0 0 5.346 3.375q.794 0 1.574-.219c3.561-.982 5.249-5.079 3.659-8.421" clip-rule="evenodd"/><path fill="#4E000A" fill-rule="evenodd" d="M15.188 159.829c-2.588 3.172-6.182 5.525-10.027 6.441l5.135 10.806c3.748-1.266 7.253-3.31 10.278-5.93z" clip-rule="evenodd"/><path fill="#FF9396" fill-rule="evenodd" d="M25.88 147.467a5.9 5.9 0 0 0-4.442.878 5.92 5.92 0 0 0-2.519 3.762c-.568 2.839-1.898 5.484-3.732 7.731l5.379 11.324c4.965-4.307 8.631-10.172 9.945-16.735.641-3.213-1.435-6.328-4.632-6.96" clip-rule="evenodd"/><path fill="#002DC8" fill-rule="evenodd" d="M5.16 166.271a15 15 0 0 1-3.504.421c-.916 0-1.865-.105-2.814-.308-3.935-.835-7.894-3.269-10.133-6.23a10 10 0 0 1-1.33-2.296 5.923 5.923 0 0 0-7.699-3.269 5.924 5.924 0 0 0-3.269 7.699c1.387 3.439 3.837 6.595 6.912 9.191a30.7 30.7 0 0 0 10.36 5.743c2.603.836 5.305 1.298 7.965 1.298 2.953 0 5.865-.511 8.64-1.444z" clip-rule="evenodd"/><path fill="#FF536A" fill-rule="evenodd" d="m23.406 177.116-2.84-5.97-5.378-11.317-.008.008s0-.008.008-.008l-7.82-16.451a5.92 5.92 0 0 0-5.338-3.375 5.92 5.92 0 0 0-5.338 3.375l-7.974 16.776c2.239 2.961 6.197 5.394 10.132 6.23l2.58-5.419a.675.675 0 0 1 1.216 0l2.523 5.305 5.135 10.806 2.523 5.305a5.91 5.91 0 0 0 5.346 3.375q.794 0 1.574-.219c3.561-.982 5.249-5.079 3.659-8.421" clip-rule="evenodd"/></g><g filter="url(#filter8_i_799_4756)"><path fill="#1E1E1E" fill-opacity=".8" d="M-46.337 252.067c0-14.705 11.92-26.626 26.626-26.626h46.594c14.705 0 26.626 11.921 26.626 26.626v46.595c0 14.705-11.92 26.625-26.626 26.625H-19.71c-14.705 0-26.626-11.92-26.626-26.625z"/></g><g filter="url(#filter9_i_799_4756)"><path fill="#1E1E1E" fill-opacity=".8" d="M66.384 252.067c0-14.705 11.92-26.626 26.625-26.626h46.595c14.705 0 26.626 11.921 26.626 26.626v46.595c0 14.705-11.921 26.625-26.626 26.625H93.009c-14.704 0-26.625-11.92-26.625-26.625z"/></g><g filter="url(#filter10_i_799_4756)"><path fill="#1E1E1E" fill-opacity=".8" d="M179.104 252.067c0-14.705 11.921-26.626 26.626-26.626h46.595c14.705 0 26.625 11.921 26.625 26.626v46.595c0 14.705-11.92 26.625-26.625 26.625H205.73c-14.705 0-26.626-11.92-26.626-26.625z"/></g><g filter="url(#filter11_i_799_4756)"><path fill="#1E1E1E" fill-opacity=".8" d="M291.825 252.067c0-14.705 11.921-26.626 26.626-26.626h46.594c14.705 0 26.626 11.921 26.626 26.626v46.595c0 14.705-11.921 26.625-26.626 26.625h-46.594c-14.705 0-26.626-11.92-26.626-26.625z"/></g><g filter="url(#filter12_i_799_4756)"><path fill="#1E1E1E" fill-opacity=".8" d="M-46.337 26.626C-46.337 11.92-34.417 0-19.71 0h46.594C41.588 0 53.51 11.92 53.51 26.626V73.22c0 14.705-11.92 26.626-26.626 26.626H-19.71c-14.705 0-26.626-11.92-26.626-26.626z"/><g clip-path="url(#clip5_799_4756)"><path fill="#F2E4FF" d="M3.586 81.884c17.651 0 31.96-14.31 31.96-31.961 0-17.652-14.309-31.961-31.96-31.961s-31.961 14.31-31.961 31.96c0 17.652 14.31 31.962 31.96 31.962"/><path fill="url(#paint32_linear_799_4756)" d="M3.655 77.134v-4.032c12.77-.037 23.112-10.399 23.112-23.18 0-12.78-10.341-23.142-23.112-23.179v-4.031c14.998.037 27.143 12.204 27.143 27.21 0 15.008-12.145 27.175-27.143 27.212m0-14.112c7.203-.038 13.034-5.886 13.034-13.1s-5.831-13.06-13.034-13.099v-4.03c9.43.036 17.066 7.69 17.066 17.13s-7.635 17.093-17.066 17.13zm0-20.151a7.053 7.053 0 0 1 0 14.103zm-33.329 7.05c0 18.371 14.89 33.262 33.26 33.262s33.26-14.891 33.26-33.26c0-18.37-14.89-33.26-33.26-33.26s-33.26 14.89-33.26 33.259"/><path fill="url(#paint33_linear_799_4756)" d="M3.587 20.43c-16.575 0-30.012 13.378-30.012 29.882 0 16.503 13.437 29.882 30.012 29.882z"/></g></g><g filter="url(#filter13_i_799_4756)"><path fill="#1E1E1E" fill-opacity=".8" d="M179.104 139.346c0-14.705 11.921-26.625 26.626-26.625h46.595c14.705 0 26.625 11.92 26.625 26.625v46.595c0 14.705-11.92 26.626-26.625 26.626H205.73c-14.705 0-26.626-11.921-26.626-26.626z"/><g clip-path="url(#clip6_799_4756)"><path fill="url(#paint34_linear_799_4756)" d="m257.384 150.904-2.052-5.571 1.429-3.197a1.1 1.1 0 0 0-.22-1.217l-3.884-3.921a6.25 6.25 0 0 0-6.526-1.515l-1.064.375-5.925-6.418-10.114-.056-10.115.079-5.918 6.471-1.054-.373a6.28 6.28 0 0 0-6.568 1.528l-3.972 3.995a.877.877 0 0 0-.177.971l1.491 3.321-2.044 5.566 7.337 27.898a11.66 11.66 0 0 0 4.509 6.527l14.51 9.834a3.22 3.22 0 0 0 4.014 0l14.502-9.849a11.55 11.55 0 0 0 4.501-6.526l5.986-22.886z"/><path fill="#fff" d="M230.685 170.614a8.5 8.5 0 0 0-1.184-.428h-.713q-.608.17-1.184.428l-1.794.746-2.027.933-3.3 1.72a.625.625 0 0 0-.44.557.63.63 0 0 0 .359.613l2.866 2.012q.91.65 1.761 1.398l.807.695 1.689 1.478.765.675a1.32 1.32 0 0 0 1.683 0l3.299-2.882 1.767-1.399 2.866-2.051a.628.628 0 0 0 .218-.954.63.63 0 0 0-.306-.207l-3.295-1.663-2.039-.934zm20.321-18.467.104-.298a8 8 0 0 0-.074-1.193 9.6 9.6 0 0 0-1.064-2.006l-1.865-2.737-1.328-1.803-2.498-3.118a9 9 0 0 0-.741-.867h-.052l-1.109.205-5.493 1.058a4.4 4.4 0 0 1-1.635-.239l-3.016-.975-2.158-.596a9.2 9.2 0 0 0-1.906 0l-2.164.603-3.015.98a4.4 4.4 0 0 1-1.636.239l-5.486-1.04-1.109-.205h-.052a8.5 8.5 0 0 0-.741.867l-2.495 3.118q-.691.877-1.317 1.803l-1.87 2.737-.881 1.469a6.7 6.7 0 0 0-.252 1.735l.104.298q.067.288.17.564l1.473 1.689 6.526 6.937a1.86 1.86 0 0 1 .331 1.864l-1.095 2.528a3.28 3.28 0 0 0-.051 2.079l.213.587a5.67 5.67 0 0 0 1.74 2.438l1.025.835a1.95 1.95 0 0 0 1.865.224l3.646-1.745a9.2 9.2 0 0 0 1.868-1.232l2.918-2.634a1.163 1.163 0 0 0 .065-1.678l-6.595-4.438a1.27 1.27 0 0 1-.402-1.617l2.555-4.801a2.49 2.49 0 0 0 .13-1.906 2.9 2.9 0 0 0-1.454-1.314l-8.009-3.014c-.577-.208-.546-.468.066-.504l4.704-.467a7.3 7.3 0 0 1 2.196.195l4.092 1.144a1.25 1.25 0 0 1 .876 1.398l-1.607 8.784a4.5 4.5 0 0 0-.079 1.483c.065.209.614.467 1.216.614l2.493.52a6 6 0 0 0 2.191 0l2.242-.52c.603-.13 1.146-.419 1.215-.63a4.5 4.5 0 0 0-.082-1.481l-1.617-8.782a1.25 1.25 0 0 1 .875-1.398l4.093-1.147a7.3 7.3 0 0 1 2.196-.195l4.703.438c.616.057.65.285.071.504l-8.008 3.031a2.87 2.87 0 0 0-1.45 1.315 2.5 2.5 0 0 0 .13 1.906l2.558 4.801a1.28 1.28 0 0 1-.4 1.62l-6.582 4.448a1.16 1.16 0 0 0-.224 1.286q.096.213.265.374l.02.018 2.922 2.634a9.3 9.3 0 0 0 1.864 1.23l3.646 1.735a1.94 1.94 0 0 0 1.863-.229l1.027-.838a5.65 5.65 0 0 0 1.738-2.443l.215-.587a3.28 3.28 0 0 0-.051-2.079l-1.073-2.532a1.87 1.87 0 0 1 .331-1.864l6.527-6.945 1.468-1.689q.117-.27.2-.551z"/></g></g><defs><radialGradient id="paint1_radial_799_4756" cx="0" cy="0" r="1" gradientTransform="translate(229.158 44.163)scale(31.4928)" gradientUnits="userSpaceOnUse"><stop stop-color="#06C2E7"/><stop offset=".25" stop-color="#0DB8EC"/><stop offset=".5" stop-color="#12AEF1"/><stop offset=".75" stop-color="#1F86F9"/><stop offset="1" stop-color="#107DDD"/></radialGradient><radialGradient id="paint7_radial_799_4756" cx="0" cy="0" r="1" gradientTransform="matrix(31.7777 0 0 31.7759 114.861 34.783)" gradientUnits="userSpaceOnUse"><stop stop-color="#3E2723" stop-opacity=".2"/><stop offset="1" stop-color="#3E2723" stop-opacity="0"/></radialGradient><radialGradient id="paint9_radial_799_4756" cx="0" cy="0" r="1" gradientTransform="matrix(29.4971 0 0 29.4954 88.29 31.977)" gradientUnits="userSpaceOnUse"><stop stop-color="#3E2723" stop-opacity=".2"/><stop offset="1" stop-color="#3E2723" stop-opacity="0"/></radialGradient><radialGradient id="paint10_radial_799_4756" cx="0" cy="0" r="1" gradientTransform="matrix(33.2109 0 0 33.209 116.248 49.973)" gradientUnits="userSpaceOnUse"><stop stop-color="#263238" stop-opacity=".2"/><stop offset="1" stop-color="#263238" stop-opacity="0"/></radialGradient><radialGradient id="paint11_radial_799_4756" cx="0" cy="0" r="1" gradientTransform="matrix(66.802 0 0 66.7982 92.981 25.739)" gradientUnits="userSpaceOnUse"><stop stop-color="#fff" stop-opacity=".1"/><stop offset="1" stop-color="#fff" stop-opacity="0"/></radialGradient><radialGradient id="paint13_radial_799_4756" cx="0" cy="0" r="1" gradientTransform="translate(139.713 136.752)scale(67.0651)" gradientUnits="userSpaceOnUse"><stop offset=".129" stop-color="#FFBD4F"/><stop offset=".186" stop-color="#FFAC31"/><stop offset=".247" stop-color="#FF9D17"/><stop offset=".283" stop-color="#FF980E"/><stop offset=".403" stop-color="#FF563B"/><stop offset=".467" stop-color="#FF3750"/><stop offset=".71" stop-color="#F5156C"/><stop offset=".782" stop-color="#EB0878"/><stop offset=".86" stop-color="#E50080"/></radialGradient><radialGradient id="paint14_radial_799_4756" cx="0" cy="0" r="1" gradientTransform="translate(115.206 164.17)scale(67.0651)" gradientUnits="userSpaceOnUse"><stop offset=".3" stop-color="#960E18"/><stop offset=".351" stop-color="#B11927" stop-opacity=".74"/><stop offset=".435" stop-color="#DB293D" stop-opacity=".343"/><stop offset=".497" stop-color="#F5334B" stop-opacity=".094"/><stop offset=".53" stop-color="#FF3750" stop-opacity="0"/></radialGradient><radialGradient id="paint15_radial_799_4756" cx="0" cy="0" r="1" gradientTransform="translate(123.292 121.532)scale(48.5858)" gradientUnits="userSpaceOnUse"><stop offset=".132" stop-color="#FFF44F"/><stop offset=".252" stop-color="#FFDC3E"/><stop offset=".506" stop-color="#FF9D12"/><stop offset=".526" stop-color="#FF980E"/></radialGradient><radialGradient id="paint16_radial_799_4756" cx="0" cy="0" r="1" gradientTransform="translate(107.788 181.688)scale(31.9326)" gradientUnits="userSpaceOnUse"><stop offset=".353" stop-color="#3A8EE6"/><stop offset=".472" stop-color="#5C79F0"/><stop offset=".669" stop-color="#9059FF"/><stop offset="1" stop-color="#C139E6"/></radialGradient><radialGradient id="paint17_radial_799_4756" cx="0" cy="0" r="1" gradientTransform="matrix(16.4564 -3.97862 4.65585 19.2668 118.881 158.675)" gradientUnits="userSpaceOnUse"><stop offset=".206" stop-color="#9059FF" stop-opacity="0"/><stop offset=".278" stop-color="#8C4FF3" stop-opacity=".064"/><stop offset=".747" stop-color="#7716A8" stop-opacity=".45"/><stop offset=".975" stop-color="#6E008B" stop-opacity=".6"/></radialGradient><radialGradient id="paint18_radial_799_4756" cx="0" cy="0" r="1" gradientTransform="translate(114.36 134.008)scale(22.9723)" gradientUnits="userSpaceOnUse"><stop stop-color="#FFE226"/><stop offset=".121" stop-color="#FFDB27"/><stop offset=".295" stop-color="#FFC82A"/><stop offset=".502" stop-color="#FFA930"/><stop offset=".732" stop-color="#FF7E37"/><stop offset=".792" stop-color="#FF7139"/></radialGradient><radialGradient id="paint19_radial_799_4756" cx="0" cy="0" r="1" gradientTransform="translate(132.417 119.438)scale(98.0125)" gradientUnits="userSpaceOnUse"><stop offset=".113" stop-color="#FFF44F"/><stop offset=".456" stop-color="#FF980E"/><stop offset=".622" stop-color="#FF5634"/><stop offset=".716" stop-color="#FF3647"/><stop offset=".904" stop-color="#E31587"/></radialGradient><radialGradient id="paint20_radial_799_4756" cx="0" cy="0" r="1" gradientTransform="matrix(7.53872 71.4391 -46.8842 4.95401 124.171 124.885)" gradientUnits="userSpaceOnUse"><stop stop-color="#FFF44F"/><stop offset=".06" stop-color="#FFE847"/><stop offset=".168" stop-color="#FFC830"/><stop offset=".304" stop-color="#FF980E"/><stop offset=".356" stop-color="#FF8B16"/><stop offset=".455" stop-color="#FF672A"/><stop offset=".57" stop-color="#FF3647"/><stop offset=".737" stop-color="#E31587"/></radialGradient><radialGradient id="paint21_radial_799_4756" cx="0" cy="0" r="1" gradientTransform="translate(113.819 142.517)scale(61.1909)" gradientUnits="userSpaceOnUse"><stop offset=".137" stop-color="#FFF44F"/><stop offset=".48" stop-color="#FF980E"/><stop offset=".592" stop-color="#FF5634"/><stop offset=".655" stop-color="#FF3647"/><stop offset=".904" stop-color="#E31587"/></radialGradient><radialGradient id="paint22_radial_799_4756" cx="0" cy="0" r="1" gradientTransform="translate(129.971 146.098)scale(66.973)" gradientUnits="userSpaceOnUse"><stop offset=".094" stop-color="#FFF44F"/><stop offset=".231" stop-color="#FFE141"/><stop offset=".509" stop-color="#FFAF1E"/><stop offset=".626" stop-color="#FF980E"/></radialGradient><radialGradient id="paint25_radial_799_4756" cx="0" cy="0" r="1" gradientTransform="matrix(24.7891 0 0 23.5496 349.336 175.726)" gradientUnits="userSpaceOnUse"><stop offset=".7" stop-opacity="0"/><stop offset=".9" stop-opacity=".5"/><stop offset="1"/></radialGradient><radialGradient id="paint27_radial_799_4756" cx="0" cy="0" r="1" gradientTransform="matrix(5.58145 -36.8375 -29.7677 -4.46516 326.821 181.076)" gradientUnits="userSpaceOnUse"><stop offset=".8" stop-opacity="0"/><stop offset=".9" stop-opacity=".5"/><stop offset="1"/></radialGradient><radialGradient id="paint28_radial_799_4756" cx="0" cy="0" r="1" gradientTransform="matrix(-2.1037 52.5924 112.022 4.20739 315.216 141.679)" gradientUnits="userSpaceOnUse"><stop stop-color="#35C1F1"/><stop offset=".1" stop-color="#34C1ED"/><stop offset=".2" stop-color="#2FC2DF"/><stop offset=".3" stop-color="#2BC3D2"/><stop offset=".7" stop-color="#36C752"/></radialGradient><radialGradient id="paint29_radial_799_4756" cx="0" cy="0" r="1" gradientTransform="matrix(7.07919 24.2715 19.7206 -5.81504 370.866 149.47)" gradientUnits="userSpaceOnUse"><stop stop-color="#66EB6E"/><stop offset="1" stop-color="#66EB6E" stop-opacity="0"/></radialGradient><linearGradient id="paint0_linear_799_4756" x1="229.026" x2="229.026" y1="79.886" y2="16.901" gradientUnits="userSpaceOnUse"><stop stop-color="#BDBDBD"/><stop offset="1" stop-color="#fff"/></linearGradient><linearGradient id="paint2_linear_799_4756" x1="91.111" x2="110.953" y1="41.993" y2="30.401" gradientUnits="userSpaceOnUse"><stop stop-color="#A52714" stop-opacity=".6"/><stop offset=".66" stop-color="#A52714" stop-opacity="0"/></linearGradient><linearGradient id="paint3_linear_799_4756" x1="121.927" x2="99.88" y1="75.807" y2="62.893" gradientUnits="userSpaceOnUse"><stop stop-color="#055524" stop-opacity=".4"/><stop offset=".33" stop-color="#055524" stop-opacity="0"/></linearGradient><linearGradient id="paint4_linear_799_4756" x1="126.079" x2="131.631" y1="32.46" y2="56.771" gradientUnits="userSpaceOnUse"><stop stop-color="#EA6100" stop-opacity=".3"/><stop offset=".66" stop-color="#EA6100" stop-opacity="0"/></linearGradient><linearGradient id="paint5_linear_799_4756" x1="126.079" x2="131.631" y1="32.461" y2="56.772" gradientUnits="userSpaceOnUse"><stop stop-color="#EA6100" stop-opacity=".3"/><stop offset=".66" stop-color="#EA6100" stop-opacity="0"/></linearGradient><linearGradient id="paint6_linear_799_4756" x1="91.111" x2="110.953" y1="41.993" y2="30.401" gradientUnits="userSpaceOnUse"><stop stop-color="#A52714" stop-opacity=".6"/><stop offset=".66" stop-color="#A52714" stop-opacity="0"/></linearGradient><linearGradient id="paint8_linear_799_4756" x1="121.927" x2="99.88" y1="75.807" y2="62.893" gradientUnits="userSpaceOnUse"><stop stop-color="#055524" stop-opacity=".4"/><stop offset=".33" stop-color="#055524" stop-opacity="0"/></linearGradient><linearGradient id="paint12_linear_799_4756" x1="142.179" x2="88.775" y1="139.668" y2="191.193" gradientUnits="userSpaceOnUse"><stop offset=".048" stop-color="#FFF44F"/><stop offset=".111" stop-color="#FFE847"/><stop offset=".225" stop-color="#FFC830"/><stop offset=".368" stop-color="#FF980E"/><stop offset=".401" stop-color="#FF8B16"/><stop offset=".462" stop-color="#FF672A"/><stop offset=".534" stop-color="#FF3647"/><stop offset=".705" stop-color="#E31587"/></linearGradient><linearGradient id="paint23_linear_799_4756" x1="141.538" x2="96.096" y1="139.392" y2="184.833" gradientUnits="userSpaceOnUse"><stop offset=".167" stop-color="#FFF44F" stop-opacity=".8"/><stop offset=".266" stop-color="#FFF44F" stop-opacity=".634"/><stop offset=".489" stop-color="#FFF44F" stop-opacity=".217"/><stop offset=".6" stop-color="#FFF44F" stop-opacity="0"/></linearGradient><linearGradient id="paint24_linear_799_4756" x1="323.742" x2="370.098" y1="175.376" y2="175.376" gradientUnits="userSpaceOnUse"><stop stop-color="#0C59A4"/><stop offset="1" stop-color="#114A8B"/></linearGradient><linearGradient id="paint26_linear_799_4756" x1="348.166" x2="319.245" y1="155.264" y2="186.783" gradientUnits="userSpaceOnUse"><stop stop-color="#1B9DE2"/><stop offset=".2" stop-color="#1595DF"/><stop offset=".7" stop-color="#0680D7"/><stop offset="1" stop-color="#0078D4"/></linearGradient><linearGradient id="paint30_linear_799_4756" x1="336.202" x2="336.202" y1="17.748" y2="82.215" gradientUnits="userSpaceOnUse"><stop offset=".3" stop-color="#FF1B2D"/><stop offset=".438" stop-color="#FA1A2C"/><stop offset=".594" stop-color="#ED1528"/><stop offset=".758" stop-color="#D60E21"/><stop offset=".927" stop-color="#B70519"/><stop offset="1" stop-color="#A70014"/></linearGradient><linearGradient id="paint31_linear_799_4756" x1="352.905" x2="352.905" y1="21.547" y2="78.565" gradientUnits="userSpaceOnUse"><stop stop-color="#9C0000"/><stop offset=".7" stop-color="#FF4B4B"/></linearGradient><linearGradient id="paint32_linear_799_4756" x1="3296.33" x2="3296.33" y1="6668.67" y2="16.663" gradientUnits="userSpaceOnUse"><stop stop-color="#420C5D"/><stop offset="1" stop-color="#951AD1"/></linearGradient><linearGradient id="paint33_linear_799_4756" x1="-1497.01" x2="-1497.01" y1="5996.84" y2="20.43" gradientUnits="userSpaceOnUse"><stop stop-color="#420C5D"/><stop offset="1" stop-color="#951AD1"/></linearGradient><linearGradient id="paint34_linear_799_4756" x1="200.667" x2="257.43" y1="162.558" y2="162.558" gradientUnits="userSpaceOnUse"><stop stop-color="#F1562B"/><stop offset=".3" stop-color="#F1542B"/><stop offset=".41" stop-color="#F04D2A"/><stop offset=".49" stop-color="#EF4229"/><stop offset=".5" stop-color="#EF4029"/><stop offset=".56" stop-color="#E83E28"/><stop offset=".67" stop-color="#E13C26"/><stop offset="1" stop-color="#DF3C26"/></linearGradient><filter id="filter0_i_799_4756" width="99.846" height="100.919" x="179.104" y="0" color-interpolation-filters="sRGB" filterUnits="userSpaceOnUse"><feFlood flood-opacity="0" result="BackgroundImageFix"/><feBlend in="SourceGraphic" in2="BackgroundImageFix" result="shape"/><feColorMatrix in="SourceAlpha" result="hardAlpha" values="0 0 0 0 0 0 0 0 0 0 0 0 0 0 0 0 0 0 127 0"/><feOffset dy="1.073"/><feGaussianBlur stdDeviation=".536"/><feComposite in2="hardAlpha" k2="-1" k3="1" operator="arithmetic"/><feColorMatrix values="0 0 0 0 1 0 0 0 0 1 0 0 0 0 1 0 0 0 0.1 0"/><feBlend in2="shape" result="effect1_innerShadow_799_4756"/></filter><filter id="filter1_f_799_4756" width="75.575" height="73.326" x="191.242" y="14.312" color-interpolation-filters="sRGB" filterUnits="userSpaceOnUse"><feFlood flood-opacity="0" result="BackgroundImageFix"/><feBlend in="SourceGraphic" in2="BackgroundImageFix" result="shape"/><feGaussianBlur result="effect1_foregroundBlur_799_4756" stdDeviation="3.725"/></filter><filter id="filter2_f_799_4756" width="42.026" height="40.732" x="208.952" y="29.35" color-interpolation-filters="sRGB" filterUnits="userSpaceOnUse"><feFlood flood-opacity="0" result="BackgroundImageFix"/><feBlend in="SourceGraphic" in2="BackgroundImageFix" result="shape"/><feGaussianBlur result="effect1_foregroundBlur_799_4756" stdDeviation="1.059"/></filter><filter id="filter3_i_799_4756" width="99.846" height="100.919" x="66.384" y="0" color-interpolation-filters="sRGB" filterUnits="userSpaceOnUse"><feFlood flood-opacity="0" result="BackgroundImageFix"/><feBlend in="SourceGraphic" in2="BackgroundImageFix" result="shape"/><feColorMatrix in="SourceAlpha" result="hardAlpha" values="0 0 0 0 0 0 0 0 0 0 0 0 0 0 0 0 0 0 127 0"/><feOffset dy="1.073"/><feGaussianBlur stdDeviation=".536"/><feComposite in2="hardAlpha" k2="-1" k3="1" operator="arithmetic"/><feColorMatrix values="0 0 0 0 1 0 0 0 0 1 0 0 0 0 1 0 0 0 0.1 0"/><feBlend in2="shape" result="effect1_innerShadow_799_4756"/></filter><filter id="filter4_i_799_4756" width="99.846" height="100.919" x="66.384" y="112.721" color-interpolation-filters="sRGB" filterUnits="userSpaceOnUse"><feFlood flood-opacity="0" result="BackgroundImageFix"/><feBlend in="SourceGraphic" in2="BackgroundImageFix" result="shape"/><feColorMatrix in="SourceAlpha" result="hardAlpha" values="0 0 0 0 0 0 0 0 0 0 0 0 0 0 0 0 0 0 127 0"/><feOffset dy="1.073"/><feGaussianBlur stdDeviation=".536"/><feComposite in2="hardAlpha" k2="-1" k3="1" operator="arithmetic"/><feColorMatrix values="0 0 0 0 1 0 0 0 0 1 0 0 0 0 1 0 0 0 0.1 0"/><feBlend in2="shape" result="effect1_innerShadow_799_4756"/></filter><filter id="filter5_i_799_4756" width="99.846" height="100.919" x="291.825" y="112.721" color-interpolation-filters="sRGB" filterUnits="userSpaceOnUse"><feFlood flood-opacity="0" result="BackgroundImageFix"/><feBlend in="SourceGraphic" in2="BackgroundImageFix" result="shape"/><feColorMatrix in="SourceAlpha" result="hardAlpha" values="0 0 0 0 0 0 0 0 0 0 0 0 0 0 0 0 0 0 127 0"/><feOffset dy="1.073"/><feGaussianBlur stdDeviation=".536"/><feComposite in2="hardAlpha" k2="-1" k3="1" operator="arithmetic"/><feColorMatrix values="0 0 0 0 1 0 0 0 0 1 0 0 0 0 1 0 0 0 0.1 0"/><feBlend in2="shape" result="effect1_innerShadow_799_4756"/></filter><filter id="filter6_i_799_4756" width="99.846" height="100.919" x="291.825" y="0" color-interpolation-filters="sRGB" filterUnits="userSpaceOnUse"><feFlood flood-opacity="0" result="BackgroundImageFix"/><feBlend in="SourceGraphic" in2="BackgroundImageFix" result="shape"/><feColorMatrix in="SourceAlpha" result="hardAlpha" values="0 0 0 0 0 0 0 0 0 0 0 0 0 0 0 0 0 0 127 0"/><feOffset dy="1.073"/><feGaussianBlur stdDeviation=".536"/><feComposite in2="hardAlpha" k2="-1" k3="1" operator="arithmetic"/><feColorMatrix values="0 0 0 0 1 0 0 0 0 1 0 0 0 0 1 0 0 0 0.1 0"/><feBlend in2="shape" result="effect1_innerShadow_799_4756"/></filter><filter id="filter7_i_799_4756" width="99.846" height="100.919" x="-46.337" y="112.721" color-interpolation-filters="sRGB" filterUnits="userSpaceOnUse"><feFlood flood-opacity="0" result="BackgroundImageFix"/><feBlend in="SourceGraphic" in2="BackgroundImageFix" result="shape"/><feColorMatrix in="SourceAlpha" result="hardAlpha" values="0 0 0 0 0 0 0 0 0 0 0 0 0 0 0 0 0 0 127 0"/><feOffset dy="1.073"/><feGaussianBlur stdDeviation=".536"/><feComposite in2="hardAlpha" k2="-1" k3="1" operator="arithmetic"/><feColorMatrix values="0 0 0 0 1 0 0 0 0 1 0 0 0 0 1 0 0 0 0.1 0"/><feBlend in2="shape" result="effect1_innerShadow_799_4756"/></filter><filter id="filter8_i_799_4756" width="99.846" height="100.919" x="-46.337" y="225.441" color-interpolation-filters="sRGB" filterUnits="userSpaceOnUse"><feFlood flood-opacity="0" result="BackgroundImageFix"/><feBlend in="SourceGraphic" in2="BackgroundImageFix" result="shape"/><feColorMatrix in="SourceAlpha" result="hardAlpha" values="0 0 0 0 0 0 0 0 0 0 0 0 0 0 0 0 0 0 127 0"/><feOffset dy="1.073"/><feGaussianBlur stdDeviation=".536"/><feComposite in2="hardAlpha" k2="-1" k3="1" operator="arithmetic"/><feColorMatrix values="0 0 0 0 1 0 0 0 0 1 0 0 0 0 1 0 0 0 0.1 0"/><feBlend in2="shape" result="effect1_innerShadow_799_4756"/></filter><filter id="filter9_i_799_4756" width="99.846" height="100.919" x="66.384" y="225.441" color-interpolation-filters="sRGB" filterUnits="userSpaceOnUse"><feFlood flood-opacity="0" result="BackgroundImageFix"/><feBlend in="SourceGraphic" in2="BackgroundImageFix" result="shape"/><feColorMatrix in="SourceAlpha" result="hardAlpha" values="0 0 0 0 0 0 0 0 0 0 0 0 0 0 0 0 0 0 127 0"/><feOffset dy="1.073"/><feGaussianBlur stdDeviation=".536"/><feComposite in2="hardAlpha" k2="-1" k3="1" operator="arithmetic"/><feColorMatrix values="0 0 0 0 1 0 0 0 0 1 0 0 0 0 1 0 0 0 0.1 0"/><feBlend in2="shape" result="effect1_innerShadow_799_4756"/></filter><filter id="filter10_i_799_4756" width="99.846" height="100.919" x="179.104" y="225.441" color-interpolation-filters="sRGB" filterUnits="userSpaceOnUse"><feFlood flood-opacity="0" result="BackgroundImageFix"/><feBlend in="SourceGraphic" in2="BackgroundImageFix" result="shape"/><feColorMatrix in="SourceAlpha" result="hardAlpha" values="0 0 0 0 0 0 0 0 0 0 0 0 0 0 0 0 0 0 127 0"/><feOffset dy="1.073"/><feGaussianBlur stdDeviation=".536"/><feComposite in2="hardAlpha" k2="-1" k3="1" operator="arithmetic"/><feColorMatrix values="0 0 0 0 1 0 0 0 0 1 0 0 0 0 1 0 0 0 0.1 0"/><feBlend in2="shape" result="effect1_innerShadow_799_4756"/></filter><filter id="filter11_i_799_4756" width="99.846" height="100.919" x="291.825" y="225.441" color-interpolation-filters="sRGB" filterUnits="userSpaceOnUse"><feFlood flood-opacity="0" result="BackgroundImageFix"/><feBlend in="SourceGraphic" in2="BackgroundImageFix" result="shape"/><feColorMatrix in="SourceAlpha" result="hardAlpha" values="0 0 0 0 0 0 0 0 0 0 0 0 0 0 0 0 0 0 127 0"/><feOffset dy="1.073"/><feGaussianBlur stdDeviation=".536"/><feComposite in2="hardAlpha" k2="-1" k3="1" operator="arithmetic"/><feColorMatrix values="0 0 0 0 1 0 0 0 0 1 0 0 0 0 1 0 0 0 0.1 0"/><feBlend in2="shape" result="effect1_innerShadow_799_4756"/></filter><filter id="filter12_i_799_4756" width="99.846" height="100.919" x="-46.337" y="0" color-interpolation-filters="sRGB" filterUnits="userSpaceOnUse"><feFlood flood-opacity="0" result="BackgroundImageFix"/><feBlend in="SourceGraphic" in2="BackgroundImageFix" result="shape"/><feColorMatrix in="SourceAlpha" result="hardAlpha" values="0 0 0 0 0 0 0 0 0 0 0 0 0 0 0 0 0 0 127 0"/><feOffset dy="1.073"/><feGaussianBlur stdDeviation=".536"/><feComposite in2="hardAlpha" k2="-1" k3="1" operator="arithmetic"/><feColorMatrix values="0 0 0 0 1 0 0 0 0 1 0 0 0 0 1 0 0 0 0.1 0"/><feBlend in2="shape" result="effect1_innerShadow_799_4756"/></filter><filter id="filter13_i_799_4756" width="99.846" height="100.919" x="179.104" y="112.721" color-interpolation-filters="sRGB" filterUnits="userSpaceOnUse"><feFlood flood-opacity="0" result="BackgroundImageFix"/><feBlend in="SourceGraphic" in2="BackgroundImageFix" result="shape"/><feColorMatrix in="SourceAlpha" result="hardAlpha" values="0 0 0 0 0 0 0 0 0 0 0 0 0 0 0 0 0 0 127 0"/><feOffset dy="1.073"/><feGaussianBlur stdDeviation=".536"/><feComposite in2="hardAlpha" k2="-1" k3="1" operator="arithmetic"/><feColorMatrix values="0 0 0 0 1 0 0 0 0 1 0 0 0 0 1 0 0 0 0.1 0"/><feBlend in2="shape" result="effect1_innerShadow_799_4756"/></filter><clipPath id="clip0_799_4756"><path fill="#fff" d="M195.768 16.845h66.52V83h-66.52z"/></clipPath><clipPath id="clip1_799_4756"><path fill="#fff" d="M83.046 16.663h66.52v66.52h-66.52z"/></clipPath><clipPath id="clip2_799_4756"><path fill="#fff" d="M84.176 129.384h64.261v66.52h-64.26z"/></clipPath><clipPath id="clip3_799_4756"><path fill="#fff" d="M308.488 129.384h66.52v66.52h-66.52z"/></clipPath><clipPath id="clip4_799_4756"><path fill="#fff" d="M308.488 16.663h66.52v66.52h-66.52z"/></clipPath><clipPath id="clip5_799_4756"><path fill="#fff" d="M-29.674 16.663h66.52v66.52h-66.52z"/></clipPath><clipPath id="clip6_799_4756"><path fill="#fff" d="M200.671 129.384h56.713v66.52h-56.713z"/></clipPath></defs></svg>