<svg xmlns="http://www.w3.org/2000/svg" width="22" height="22" fill="none" viewBox="0 0 22 22"><path stroke="#D7F906" stroke-linecap="round" stroke-linejoin="round" stroke-width="2" d="M10.084 9.414 6.417 3.062M10.084 12.586l-3.667 6.352M11 20.166v-1.833M11 1.833v1.833M12.833 11h7.333M15.584 18.938l-.917-1.585M15.584 3.062l-.917 1.585M1.833 11h1.833M18.938 15.584l-1.585-.917M18.938 6.417l-1.585.917M3.062 15.584l1.585-.917M3.062 6.417l1.585.917M11 12.834a1.833 1.833 0 1 0 0-3.667 1.833 1.833 0 0 0 0 3.667"/><path stroke="#D7F906" stroke-linecap="round" stroke-linejoin="round" stroke-width="2" d="M11 18.334a7.333 7.333 0 1 0 0-14.667 7.333 7.333 0 0 0 0 14.667"/></svg>