<svg width="187" height="26" viewBox="0 0 187 26" fill="none" xmlns="http://www.w3.org/2000/svg">
<g clip-path="url(#clip0_687_5040)">
<path d="M0 0.00180886L5.43925 0C7.48182 0.123364 9.13657 1.56684 9.84456 3.43503C10.2678 4.55182 10.2722 5.75038 10.5674 6.90335C11.2229 9.46361 12.768 11.7522 15.1981 12.895C17.8716 14.1522 21.0787 13.5053 23.9544 13.6638V23.9573C23.9544 23.9573 20.3139 24.0535 18.6237 23.9573C16.0804 23.8126 14.1374 22.0649 13.7329 19.5629C13.6446 19.0166 13.6598 18.4566 13.5817 17.9074C12.9847 13.7181 9.85975 10.5203 5.58396 10.261L0 10.2628L0 0.00180886Z" fill="#D7F906"/>
<path d="M23.954 10.257L18.3357 10.2628C16.6426 10.0859 15.0479 9.06351 14.2578 7.5484C12.5169 4.2078 14.7505 0.283648 18.4438 0.00146484L23.954 0.00689143V10.257Z" fill="#D7F906"/>
<path d="M0 13.6587H5.40163C7.83672 13.8215 9.92921 15.7157 10.2208 18.1606C10.5815 21.1828 8.34031 23.7731 5.32927 23.9562H0V13.6587Z" fill="#D7F906"/>
</g>
<path d="M41.1957 21.15C39.7457 21.15 38.4957 20.9083 37.4457 20.425C36.4124 19.925 35.604 19.2333 35.0207 18.35C34.454 17.45 34.154 16.4167 34.1207 15.25L37.0207 15.3C37.0874 16.3167 37.4957 17.1417 38.2457 17.775C39.0124 18.4083 40.004 18.725 41.2207 18.725C42.2707 18.725 43.129 18.5 43.7957 18.05C44.4624 17.6 44.7957 16.9583 44.7957 16.125C44.7957 15.6583 44.6874 15.275 44.4707 14.975C44.254 14.675 43.9374 14.4333 43.5207 14.25C43.1207 14.0667 42.6374 13.9083 42.0707 13.775C41.5207 13.6417 40.8957 13.5083 40.1957 13.375C39.479 13.2583 38.779 13.1 38.0957 12.9C37.429 12.6833 36.829 12.4 36.2957 12.05C35.7624 11.6833 35.3374 11.2167 35.0207 10.65C34.704 10.0667 34.5457 9.34167 34.5457 8.475C34.5457 7.45833 34.804 6.56667 35.3207 5.8C35.8374 5.03333 36.5624 4.43333 37.4957 4C38.429 3.56667 39.5207 3.35 40.7707 3.35C42.104 3.35 43.254 3.575 44.2207 4.025C45.204 4.475 45.9624 5.10833 46.4957 5.925C47.0457 6.725 47.3457 7.66667 47.3957 8.75H44.5207C44.4207 7.86667 44.0374 7.15 43.3707 6.6C42.704 6.05 41.8374 5.775 40.7707 5.775C39.7874 5.775 38.979 5.99167 38.3457 6.425C37.729 6.84167 37.4207 7.45833 37.4207 8.275C37.4207 8.725 37.529 9.1 37.7457 9.4C37.9624 9.68333 38.2707 9.91667 38.6707 10.1C39.0707 10.2833 39.5457 10.4417 40.0957 10.575C40.6624 10.6917 41.2874 10.8083 41.9707 10.925C42.704 11.0583 43.404 11.2333 44.0707 11.45C44.754 11.65 45.3707 11.9333 45.9207 12.3C46.4707 12.65 46.8957 13.1083 47.1957 13.675C47.5124 14.2417 47.6707 14.9583 47.6707 15.825C47.6707 16.875 47.3957 17.8 46.8457 18.6C46.3124 19.4 45.554 20.025 44.5707 20.475C43.604 20.925 42.479 21.15 41.1957 21.15ZM49.9266 8.2H52.6266V21H49.9266V8.2ZM51.3016 6.4C50.8516 6.4 50.4599 6.25 50.1266 5.95C49.8099 5.63333 49.6516 5.24167 49.6516 4.775C49.6516 4.30833 49.8099 3.925 50.1266 3.625C50.4599 3.30833 50.8516 3.15 51.3016 3.15C51.7682 3.15 52.1599 3.30833 52.4766 3.625C52.7932 3.925 52.9516 4.30833 52.9516 4.775C52.9516 5.24167 52.7932 5.63333 52.4766 5.95C52.1599 6.25 51.7682 6.4 51.3016 6.4ZM55.2732 21V8.2H57.6232L58.1482 11.125L57.5232 10.475C57.7732 10.075 58.0649 9.69167 58.3982 9.325C58.7482 8.95833 59.1899 8.65833 59.7232 8.425C60.2566 8.175 60.9066 8.05 61.6732 8.05C62.3232 8.05 62.9399 8.16667 63.5232 8.4C64.1066 8.61667 64.6066 8.96667 65.0232 9.45C65.4566 9.93333 65.7649 10.5667 65.9482 11.35L65.2482 11.1C65.6316 10.2 66.2066 9.46667 66.9732 8.9C67.7566 8.33333 68.7649 8.05 69.9982 8.05C70.8816 8.05 71.6899 8.23333 72.4232 8.6C73.1566 8.96667 73.7316 9.55833 74.1482 10.375C74.5816 11.1917 74.7982 12.275 74.7982 13.625V21H72.0982V13.8C72.0982 12.6833 71.8732 11.8333 71.4232 11.25C70.9732 10.6667 70.3066 10.375 69.4232 10.375C68.4899 10.375 67.7482 10.7083 67.1982 11.375C66.6649 12.025 66.3982 12.925 66.3982 14.075V21H63.6732V13.8C63.6732 12.6833 63.4482 11.8333 62.9982 11.25C62.5482 10.6667 61.8732 10.375 60.9732 10.375C60.3566 10.375 59.8232 10.5333 59.3732 10.85C58.9399 11.15 58.5982 11.5917 58.3482 12.175C58.0982 12.7417 57.9732 13.4 57.9732 14.15V21H55.2732ZM84.0959 8.05C85.2626 8.05 86.2959 8.30833 87.1959 8.825C88.1126 9.34167 88.8292 10.0917 89.3459 11.075C89.8792 12.0583 90.1459 13.2333 90.1459 14.6C90.1459 15.9167 89.8792 17.0667 89.3459 18.05C88.8292 19.0333 88.1209 19.8 87.2209 20.35C86.3209 20.8833 85.2792 21.15 84.0959 21.15C82.9292 21.15 81.9709 20.9 81.2209 20.4C80.4709 19.9 79.9209 19.2833 79.5709 18.55L79.9459 17.925V26H77.2459V8.2H79.5959L80.1209 11.375L79.4959 10.75C79.8959 10.0333 80.4626 9.40833 81.1959 8.875C81.9459 8.325 82.9126 8.05 84.0959 8.05ZM83.6459 10.35C82.8959 10.35 82.2376 10.5333 81.6709 10.9C81.1209 11.25 80.6876 11.7417 80.3709 12.375C80.0709 12.9917 79.9209 13.7167 79.9209 14.55C79.9209 15.4 80.0709 16.15 80.3709 16.8C80.6876 17.45 81.1209 17.9583 81.6709 18.325C82.2376 18.6917 82.8959 18.875 83.6459 18.875C84.3959 18.875 85.0542 18.6917 85.6209 18.325C86.1876 17.9583 86.6209 17.4583 86.9209 16.825C87.2376 16.175 87.3959 15.4333 87.3959 14.6C87.3959 13.75 87.2376 13.0083 86.9209 12.375C86.6209 11.7417 86.1876 11.25 85.6209 10.9C85.0542 10.5333 84.3959 10.35 83.6459 10.35ZM92.3094 3.5H95.0094V21H92.3094V3.5ZM103.731 21.15C102.398 21.15 101.239 20.8833 100.256 20.35C99.2727 19.8 98.5144 19.0333 97.9811 18.05C97.4477 17.0667 97.1811 15.925 97.1811 14.625C97.1811 13.3083 97.4394 12.1583 97.9561 11.175C98.4894 10.1917 99.2311 9.425 100.181 8.875C101.131 8.325 102.231 8.05 103.481 8.05C104.714 8.05 105.789 8.3 106.706 8.8C107.639 9.28333 108.364 9.98333 108.881 10.9C109.414 11.8167 109.698 12.9 109.731 14.15C109.731 14.3167 109.723 14.4917 109.706 14.675C109.689 14.8417 109.673 15.0083 109.656 15.175H100.006C100.006 15.1917 100.006 15.2167 100.006 15.25C100.006 15.2833 100.006 15.3167 100.006 15.35C100.039 16.0667 100.198 16.7 100.481 17.25C100.781 17.7833 101.198 18.2 101.731 18.5C102.264 18.8 102.881 18.95 103.581 18.95C104.398 18.95 105.089 18.75 105.656 18.35C106.239 17.95 106.623 17.4 106.806 16.7H109.506C109.356 17.5333 109.023 18.2917 108.506 18.975C108.006 19.6417 107.348 20.175 106.531 20.575C105.731 20.9583 104.798 21.15 103.731 21.15ZM100.106 13.2H106.931C106.814 12.25 106.448 11.5167 105.831 11C105.231 10.4833 104.456 10.225 103.506 10.225C102.939 10.225 102.406 10.35 101.906 10.6C101.423 10.8333 101.014 11.175 100.681 11.625C100.364 12.0583 100.173 12.5833 100.106 13.2ZM119.789 21.15C118.089 21.15 116.622 20.7833 115.389 20.05C114.156 19.3 113.197 18.2583 112.514 16.925C111.847 15.5917 111.514 14.0333 111.514 12.25C111.514 10.4667 111.856 8.90833 112.539 7.575C113.239 6.24167 114.222 5.20833 115.489 4.475C116.756 3.725 118.247 3.35 119.964 3.35C121.314 3.35 122.514 3.6 123.564 4.1C124.614 4.6 125.472 5.30833 126.139 6.225C126.806 7.14167 127.231 8.21667 127.414 9.45H124.439C124.156 8.35 123.614 7.48333 122.814 6.85C122.014 6.2 121.022 5.875 119.839 5.875C118.739 5.875 117.781 6.15 116.964 6.7C116.164 7.23333 115.547 7.98333 115.114 8.95C114.681 9.9 114.464 11 114.464 12.25C114.464 13.4833 114.672 14.5833 115.089 15.55C115.522 16.5167 116.131 17.275 116.914 17.825C117.714 18.3583 118.664 18.625 119.764 18.625C120.981 18.625 121.989 18.3083 122.789 17.675C123.606 17.025 124.147 16.15 124.414 15.05H127.389C127.206 16.2667 126.772 17.3417 126.089 18.275C125.406 19.1917 124.522 19.9 123.439 20.4C122.356 20.9 121.139 21.15 119.789 21.15ZM129.492 3.5H132.192V11.35L131.792 10.7C132.042 10.2333 132.359 9.8 132.742 9.4C133.125 9 133.6 8.675 134.167 8.425C134.75 8.175 135.434 8.05 136.217 8.05C137.167 8.05 138.034 8.24167 138.817 8.625C139.6 9.00833 140.225 9.625 140.692 10.475C141.159 11.3083 141.392 12.4417 141.392 13.875V21H138.692V14.1C138.692 12.8833 138.425 11.9583 137.892 11.325C137.375 10.6917 136.617 10.375 135.617 10.375C134.9 10.375 134.284 10.5417 133.767 10.875C133.267 11.2083 132.875 11.6917 132.592 12.325C132.325 12.9417 132.192 13.675 132.192 14.525V21H129.492V3.5ZM143.722 12.1C143.806 11.2667 144.089 10.55 144.572 9.95C145.072 9.35 145.722 8.88333 146.522 8.55C147.339 8.21667 148.289 8.05 149.372 8.05C151.072 8.05 152.389 8.45 153.322 9.25C154.256 10.0333 154.722 11.1833 154.722 12.7V17.825C154.722 18.1417 154.789 18.3583 154.922 18.475C155.056 18.5917 155.264 18.65 155.547 18.65H156.097V21H154.672C153.756 21 153.131 20.8 152.797 20.4C152.464 20 152.306 19.4583 152.322 18.775L152.347 17.85L152.722 18.25C152.322 19.0833 151.756 19.775 151.022 20.325C150.289 20.875 149.314 21.15 148.097 21.15C147.164 21.15 146.339 21.0083 145.622 20.725C144.906 20.425 144.347 19.9917 143.947 19.425C143.547 18.8583 143.347 18.1833 143.347 17.4C143.347 16.0833 143.814 15.075 144.747 14.375C145.681 13.6583 147.039 13.3 148.822 13.3H152.047V12.525C152.047 11.8083 151.797 11.25 151.297 10.85C150.814 10.4333 150.131 10.225 149.247 10.225C148.447 10.225 147.789 10.4 147.272 10.75C146.772 11.0833 146.472 11.5333 146.372 12.1H143.722ZM152.047 15.3H148.697C147.864 15.3 147.222 15.4583 146.772 15.775C146.322 16.0917 146.097 16.575 146.097 17.225C146.097 17.7583 146.306 18.2 146.722 18.55C147.156 18.8833 147.739 19.05 148.472 19.05C149.222 19.05 149.856 18.9083 150.372 18.625C150.906 18.3417 151.314 17.9583 151.597 17.475C151.897 16.975 152.047 16.4 152.047 15.75V15.3ZM157.568 8.2H159.968L160.468 11.375L159.918 10.775C160.151 10.325 160.418 9.90833 160.718 9.525C161.035 9.125 161.46 8.80833 161.993 8.575C162.526 8.325 163.21 8.2 164.043 8.2H164.643V10.725H163.443C162.643 10.725 162.01 10.9083 161.543 11.275C161.076 11.6417 160.743 12.1167 160.543 12.7C160.36 13.2833 160.268 13.9083 160.268 14.575V21H157.568V8.2ZM170.978 21C169.761 21 168.869 20.7167 168.303 20.15C167.753 19.5667 167.478 18.6917 167.478 17.525V10.575H165.253V8.2H167.478V4.625H170.203V8.2H173.328V10.575H170.203V17.25C170.203 17.75 170.303 18.1083 170.503 18.325C170.703 18.525 171.061 18.625 171.578 18.625H173.478V21H170.978ZM180.495 21.15C178.778 21.15 177.387 20.7667 176.32 20C175.253 19.2333 174.695 18.1583 174.645 16.775H177.295C177.345 17.4417 177.645 17.9917 178.195 18.425C178.762 18.8417 179.528 19.05 180.495 19.05C181.062 19.05 181.545 18.9833 181.945 18.85C182.362 18.7167 182.687 18.525 182.92 18.275C183.153 18.0083 183.27 17.7083 183.27 17.375C183.27 16.9083 183.145 16.575 182.895 16.375C182.645 16.1583 182.287 16.0083 181.82 15.925C181.353 15.825 180.787 15.7333 180.12 15.65C179.387 15.5667 178.703 15.4583 178.07 15.325C177.453 15.175 176.903 14.975 176.42 14.725C175.953 14.4583 175.578 14.1083 175.295 13.675C175.028 13.2417 174.895 12.6917 174.895 12.025C174.895 11.2083 175.12 10.5 175.57 9.9C176.02 9.3 176.637 8.84167 177.42 8.525C178.22 8.19167 179.128 8.03333 180.145 8.05C181.712 8.05 183.003 8.4 184.02 9.1C185.053 9.8 185.612 10.8083 185.695 12.125H183.045C182.978 11.5417 182.687 11.0667 182.17 10.7C181.67 10.3167 181.012 10.125 180.195 10.125C179.395 10.125 178.753 10.275 178.27 10.575C177.787 10.875 177.545 11.2833 177.545 11.8C177.545 12.2 177.67 12.5 177.92 12.7C178.17 12.9 178.528 13.0417 178.995 13.125C179.462 13.2083 180.003 13.2833 180.62 13.35C181.603 13.4667 182.495 13.6417 183.295 13.875C184.095 14.0917 184.728 14.4583 185.195 14.975C185.678 15.475 185.92 16.2 185.92 17.15C185.92 17.9667 185.678 18.675 185.195 19.275C184.728 19.875 184.087 20.3417 183.27 20.675C182.453 20.9917 181.528 21.15 180.495 21.15Z" fill="#F2F2F2"/>
<defs>
<clipPath id="clip0_687_5040">
<rect width="23.9541" height="24" fill="white"/>
</clipPath>
</defs>
</svg>
