<svg xmlns="http://www.w3.org/2000/svg" width="172" height="26" fill="none" viewBox="0 0 172 26"><g fill="#D7F906" clip-path="url(#clip0_687_5040)"><path d="M0 .002 5.44 0c2.042.123 3.697 1.567 4.405 3.435.423 1.117.427 2.315.722 3.468.656 2.56 2.201 4.85 4.631 5.992 2.674 1.257 5.88.61 8.756.769v10.293s-3.64.096-5.33 0c-2.544-.144-4.487-1.892-4.891-4.394-.088-.546-.073-1.106-.151-1.656-.597-4.189-3.722-7.387-7.998-7.646L0 10.263z"/><path d="m23.954 10.257-5.618.006c-1.693-.177-3.288-1.2-4.078-2.715-1.741-3.34.493-7.264 4.186-7.547l5.51.006zM0 13.659h5.402c2.435.162 4.527 2.057 4.819 4.502.36 3.022-1.88 5.612-4.892 5.795H0z"/></g><path fill="#F2F2F2" d="M40.08 21.15q-2.175 0-3.75-.725-1.55-.75-2.424-2.075-.85-1.35-.9-3.1l2.9.05q.099 1.525 1.224 2.475 1.15.95 2.975.95 1.575 0 2.576-.675 1-.675 1-1.925 0-.7-.325-1.15-.326-.45-.95-.725a8 8 0 0 0-1.45-.475 39 39 0 0 0-1.876-.4 17.5 17.5 0 0 1-2.1-.475 7.5 7.5 0 0 1-1.8-.85 4.1 4.1 0 0 1-1.274-1.4q-.475-.874-.475-2.175 0-1.525.775-2.675.774-1.15 2.174-1.8 1.401-.65 3.276-.65 2 0 3.45.675 1.474.675 2.274 1.9.825 1.2.9 2.825h-2.874q-.15-1.325-1.15-2.15t-2.6-.825q-1.476 0-2.425.65-.925.625-.925 1.85 0 .675.325 1.125.325.425.925.7t1.425.475q.85.175 1.874.35 1.101.2 2.1.525 1.026.3 1.85.85.825.525 1.276 1.375.474.85.474 2.15 0 1.575-.825 2.775-.8 1.2-2.274 1.875-1.45.675-3.376.675M48.812 8.2h2.7V21h-2.7zm1.375-1.8a1.7 1.7 0 0 1-1.175-.45 1.6 1.6 0 0 1-.475-1.175q0-.7.475-1.15a1.65 1.65 0 0 1 1.175-.475q.7 0 1.175.475.475.45.475 1.15t-.475 1.175q-.474.45-1.175.45M54.158 21V8.2h2.35l.525 2.925-.625-.65q.375-.6.875-1.15.525-.55 1.325-.9.8-.375 1.95-.375.975 0 1.85.35a3.6 3.6 0 0 1 1.5 1.05q.65.725.925 1.9l-.7-.25a5.23 5.23 0 0 1 1.725-2.2q1.175-.85 3.025-.85 1.325 0 2.425.55t1.725 1.775q.65 1.225.65 3.25V21h-2.7v-7.2q0-1.675-.675-2.55t-2-.875q-1.4 0-2.225 1-.8.975-.8 2.7V21h-2.725v-7.2q0-1.675-.675-2.55t-2.025-.875q-.925 0-1.6.475-.65.45-1.025 1.325-.375.85-.375 1.975V21zM82.981 8.05q1.75 0 3.1.775 1.374.775 2.15 2.25.8 1.474.8 3.525 0 1.975-.8 3.45-.775 1.475-2.125 2.3-1.35.8-3.125.8-1.75 0-2.875-.75t-1.65-1.85l.375-.625V26h-2.7V8.2h2.35l.525 3.175-.625-.625q.6-1.076 1.7-1.875 1.124-.825 2.9-.825m-.45 2.3q-1.126 0-1.975.55-.825.525-1.3 1.475-.45.925-.45 2.175 0 1.275.45 2.25.475.975 1.3 1.525.85.55 1.975.55t1.975-.55 1.3-1.5q.474-.975.475-2.225 0-1.275-.475-2.225a3.4 3.4 0 0 0-1.3-1.475q-.85-.55-1.975-.55m8.663-6.85h2.7V21h-2.7zm11.422 17.65q-2 0-3.475-.8a5.7 5.7 0 0 1-2.275-2.3q-.8-1.475-.8-3.425 0-1.976.775-3.45a5.8 5.8 0 0 1 2.225-2.3q1.425-.825 3.3-.825 1.85 0 3.225.75a5.2 5.2 0 0 1 2.175 2.1q.8 1.375.85 3.25 0 .25-.025.525l-.05.5h-9.65v.175q.05 1.075.475 1.9.45.8 1.25 1.25t1.85.45q1.224 0 2.075-.6.874-.6 1.15-1.65h2.7a5.3 5.3 0 0 1-1 2.275q-.75 1-1.975 1.6-1.2.575-2.8.575m-3.625-7.95h6.825q-.176-1.425-1.1-2.2-.9-.775-2.325-.775-.85 0-1.6.375a3.3 3.3 0 0 0-1.225 1.025q-.475.65-.575 1.575m9.225-9.7h13.675v2.55h-5.4V21h-2.875V6.05h-5.4zm14.008 4.7h2.4l.5 3.175-.55-.6q.35-.675.8-1.25.476-.6 1.275-.95.8-.375 2.05-.375h.6v2.525h-1.2q-1.2 0-1.9.55t-1 1.425a6.2 6.2 0 0 0-.275 1.875V21h-2.7zm7.981 3.9q.125-1.25.85-2.15.75-.9 1.95-1.4 1.226-.5 2.85-.5 2.55 0 3.95 1.2 1.4 1.174 1.4 3.45v5.125q0 .475.2.65t.625.175h.55V21h-1.425q-1.376 0-1.875-.6t-.475-1.625l.025-.925.375.4a5.6 5.6 0 0 1-1.7 2.075q-1.1.825-2.925.825-1.4 0-2.475-.425-1.075-.45-1.675-1.3t-.6-2.025q0-1.975 1.4-3.025 1.4-1.075 4.075-1.075h3.225v-.775q0-1.075-.75-1.675-.725-.625-2.05-.625-1.2 0-1.975.525-.75.5-.9 1.35zm8.325 3.2h-3.35q-1.25 0-1.925.475t-.675 1.45q0 .8.625 1.325.65.5 1.75.5 1.125 0 1.9-.425a3.03 3.03 0 0 0 1.225-1.15q.45-.75.45-1.725zm15.001-11.8h2.7V21h-2.35l-.525-3.175.6.625q-.575 1.05-1.7 1.875-1.1.825-2.875.825-1.725 0-3.1-.775-1.374-.776-2.175-2.25-.775-1.474-.775-3.525 0-1.976.775-3.45.801-1.475 2.175-2.275 1.375-.825 3.1-.825 1.75 0 2.875.75 1.126.725 1.675 1.825l-.4.625zm-3.7 6.85q-1.125 0-1.975.55-.825.525-1.3 1.475-.45.95-.45 2.225 0 1.25.45 2.225a3.8 3.8 0 0 0 1.3 1.5q.85.55 1.975.55 1.15 0 1.975-.55a3.56 3.56 0 0 0 1.3-1.5q.45-.95.45-2.175 0-1.275-.45-2.25t-1.3-1.5q-.825-.55-1.975-.55m15.114 10.8q-2 0-3.475-.8a5.7 5.7 0 0 1-2.275-2.3q-.8-1.475-.8-3.425 0-1.976.775-3.45a5.8 5.8 0 0 1 2.225-2.3q1.425-.825 3.3-.825 1.85 0 3.225.75a5.2 5.2 0 0 1 2.175 2.1q.8 1.375.85 3.25 0 .25-.025.525l-.05.5h-9.65v.175q.05 1.075.475 1.9.45.8 1.25 1.25t1.85.45q1.225 0 2.075-.6.875-.6 1.15-1.65h2.7a5.3 5.3 0 0 1-1 2.275q-.75 1-1.975 1.6-1.2.575-2.8.575m-3.625-7.95h6.825q-.175-1.425-1.1-2.2-.9-.775-2.325-.775-.85 0-1.6.375a3.3 3.3 0 0 0-1.225 1.025q-.475.65-.575 1.575"/><defs><clipPath id="clip0_687_5040"><path fill="#fff" d="M0 0h23.954v24H0z"/></clipPath></defs></svg>