<svg width="20" height="20" viewBox="0 0 20 20" fill="none" xmlns="http://www.w3.org/2000/svg">
<path d="M16.1913 10.7795C16.4888 9.97366 16.6663 9.15033 16.6663 8.33366C16.6663 6.56555 15.964 4.86986 14.7137 3.61961C13.4635 2.36937 11.7678 1.66699 9.99967 1.66699C8.23156 1.66699 6.53587 2.36937 5.28563 3.61961C4.03539 4.86986 3.33301 6.56555 3.33301 8.33366C3.33301 12.4945 7.94884 16.8278 9.49884 18.1662C9.64324 18.2747 9.81901 18.3335 9.99967 18.3335C10.1803 18.3335 10.3561 18.2747 10.5005 18.1662C10.7298 17.9678 10.9556 17.7655 11.178 17.5595" stroke="#D7F906" stroke-width="2" stroke-linecap="round" stroke-linejoin="round"/>
<path d="M10 10.833C11.3807 10.833 12.5 9.71372 12.5 8.33301C12.5 6.9523 11.3807 5.83301 10 5.83301C8.61929 5.83301 7.5 6.9523 7.5 8.33301C7.5 9.71372 8.61929 10.833 10 10.833Z" stroke="#D7F906" stroke-width="2" stroke-linecap="round" stroke-linejoin="round"/>
<path d="M13.333 14.9997L14.9997 16.6663L18.333 13.333" stroke="#D7F906" stroke-width="2" stroke-linecap="round" stroke-linejoin="round"/>
</svg>
