<svg width="20" height="20" viewBox="0 0 20 20" fill="none" xmlns="http://www.w3.org/2000/svg">
<path d="M10 16.666V18.3327" stroke="#D9D9D9" stroke-width="2" stroke-linecap="round" stroke-linejoin="round"/>
<path d="M10 1.66602V3.33268" stroke="#D9D9D9" stroke-width="2" stroke-linecap="round" stroke-linejoin="round"/>
<path d="M14.1665 16.666V18.3327" stroke="#D9D9D9" stroke-width="2" stroke-linecap="round" stroke-linejoin="round"/>
<path d="M14.1665 1.66602V3.33268" stroke="#D9D9D9" stroke-width="2" stroke-linecap="round" stroke-linejoin="round"/>
<path d="M1.6665 10H3.33317" stroke="#D9D9D9" stroke-width="2" stroke-linecap="round" stroke-linejoin="round"/>
<path d="M1.6665 14.166H3.33317" stroke="#D9D9D9" stroke-width="2" stroke-linecap="round" stroke-linejoin="round"/>
<path d="M1.6665 5.83398H3.33317" stroke="#D9D9D9" stroke-width="2" stroke-linecap="round" stroke-linejoin="round"/>
<path d="M16.6665 10H18.3332" stroke="#D9D9D9" stroke-width="2" stroke-linecap="round" stroke-linejoin="round"/>
<path d="M16.6665 14.166H18.3332" stroke="#D9D9D9" stroke-width="2" stroke-linecap="round" stroke-linejoin="round"/>
<path d="M16.6665 5.83398H18.3332" stroke="#D9D9D9" stroke-width="2" stroke-linecap="round" stroke-linejoin="round"/>
<path d="M5.8335 16.666V18.3327" stroke="#D9D9D9" stroke-width="2" stroke-linecap="round" stroke-linejoin="round"/>
<path d="M5.8335 1.66602V3.33268" stroke="#D9D9D9" stroke-width="2" stroke-linecap="round" stroke-linejoin="round"/>
<path d="M15.0002 3.33398H5.00016C4.07969 3.33398 3.3335 4.08018 3.3335 5.00065V15.0007C3.3335 15.9211 4.07969 16.6673 5.00016 16.6673H15.0002C15.9206 16.6673 16.6668 15.9211 16.6668 15.0007V5.00065C16.6668 4.08018 15.9206 3.33398 15.0002 3.33398Z" stroke="#D9D9D9" stroke-width="2" stroke-linecap="round" stroke-linejoin="round"/>
<path d="M12.4998 6.66602H7.49984C7.0396 6.66602 6.6665 7.03911 6.6665 7.49935V12.4993C6.6665 12.9596 7.0396 13.3327 7.49984 13.3327H12.4998C12.9601 13.3327 13.3332 12.9596 13.3332 12.4993V7.49935C13.3332 7.03911 12.9601 6.66602 12.4998 6.66602Z" stroke="#D9D9D9" stroke-width="2" stroke-linecap="round" stroke-linejoin="round"/>
</svg>
