<svg xmlns="http://www.w3.org/2000/svg" width="22" height="22" fill="none" viewBox="0 0 22 22"><path stroke="#D7F906" stroke-linecap="round" stroke-linejoin="round" stroke-width="2" d="M11 13.75v4.584s2.778-.505 3.667-1.834c.99-1.485 0-4.583 0-4.583M4.125 15.125c-1.375 1.155-1.833 4.583-1.833 4.583s3.428-.458 4.583-1.833c.65-.77.641-1.953-.083-2.668a2 2 0 0 0-2.667-.082"/><path stroke="#D7F906" stroke-linecap="round" stroke-linejoin="round" stroke-width="2" d="M8.25 11a20 20 0 0 1 1.833-3.62 11.81 11.81 0 0 1 10.084-5.547c0 2.494-.715 6.875-5.5 10.084A20.5 20.5 0 0 1 11 13.75z"/><path stroke="#D7F906" stroke-linecap="round" stroke-linejoin="round" stroke-width="2" d="M8.25 11H3.667S4.17 8.223 5.5 7.334c1.485-.99 4.583.046 4.583.046"/></svg>