<svg xmlns="http://www.w3.org/2000/svg" width="24" height="24" fill="none" viewBox="0 0 24 24"><g fill="#D7F906" clip-path="url(#clip0_909_1960)"><path d="M0 .002 5.44 0c2.042.123 3.697 1.567 4.405 3.435.423 1.117.427 2.315.722 3.468.656 2.56 2.201 4.85 4.631 5.992 2.674 1.257 5.88.61 8.756.769v10.293s-3.64.096-5.33 0c-2.544-.144-4.487-1.892-4.891-4.394-.088-.546-.073-1.106-.151-1.656-.597-4.189-3.722-7.387-7.998-7.646L0 10.263z"/><path d="m23.954 10.257-5.618.006c-1.693-.177-3.288-1.2-4.078-2.715-1.741-3.34.493-7.264 4.186-7.547l5.51.006zM0 13.659h5.402c2.435.162 4.527 2.057 4.819 4.502.36 3.022-1.88 5.612-4.892 5.795H0z"/></g><defs><clipPath id="clip0_909_1960"><path fill="#fff" d="M0 0h23.954v24H0z"/></clipPath></defs></svg>