<svg width="77" height="15" viewBox="0 0 77 15" fill="none" xmlns="http://www.w3.org/2000/svg">
<path d="M7.5 0L9.1458 5.07295L14.1574 5.18237L10.163 8.42705L11.6145 13.5676L7.5 10.5L3.3855 13.5676L4.83704 8.42705L0.842604 5.18237L5.8542 5.07295L7.5 0Z" fill="#FFB050"/>
<path d="M23 0.5L24.7634 5.23475L30.1329 5.33688L25.8532 8.36525L27.4084 13.1631L23 10.3L18.5916 13.1631L20.1468 8.36525L15.8671 5.33688L21.2366 5.23475L23 0.5Z" fill="#FFB050"/>
<path d="M38.5 0.5L40.2634 5.23475L45.6329 5.33688L41.3532 8.36525L42.9084 13.1631L38.5 10.3L34.0916 13.1631L35.6468 8.36525L31.3671 5.33688L36.7366 5.23475L38.5 0.5Z" fill="#FFB050"/>
<path d="M54 0.5L55.7634 5.23475L61.1329 5.33688L56.8532 8.36525L58.4084 13.1631L54 10.3L49.5916 13.1631L51.1468 8.36525L46.8671 5.33688L52.2366 5.23475L54 0.5Z" fill="#FFB050"/>
<path d="M69.5 0.5L71.2634 5.23475L76.6329 5.33688L72.3532 8.36525L73.9084 13.1631L69.5 10.3L65.0916 13.1631L66.6468 8.36525L62.3671 5.33688L67.7366 5.23475L69.5 0.5Z" fill="#FFB050"/>
</svg>
