<svg width="20" height="20" viewBox="0 0 20 20" fill="none" xmlns="http://www.w3.org/2000/svg">
<path d="M10 10.8337V1.66699L16.6667 5.00033L10 8.33366" stroke="#D7F906" stroke-width="2" stroke-linecap="round" stroke-linejoin="round"/>
<path d="M17.1339 8.51868C17.5774 9.88547 17.6189 11.3509 17.2534 12.7406C16.888 14.1302 16.1311 15.3857 15.0727 16.3576C14.0143 17.3295 12.699 17.9768 11.2833 18.2227C9.86753 18.4686 8.41097 18.3026 7.08687 17.7444C5.76276 17.1863 4.62686 16.2596 3.81431 15.0744C3.00175 13.8893 2.54674 12.4957 2.50341 11.0595C2.46008 9.62319 2.83026 8.2047 3.5699 6.97276C4.30955 5.74082 5.38752 4.74728 6.67557 4.11035" stroke="#D7F906" stroke-width="2" stroke-linecap="round" stroke-linejoin="round"/>
<path d="M6.66833 8.33105C6.25075 8.88691 5.97889 9.53841 5.87753 10.2262C5.77617 10.914 5.84852 11.6162 6.088 12.2689C6.32747 12.9216 6.72646 13.504 7.2486 13.963C7.77075 14.4221 8.39945 14.7431 9.07744 14.897C9.75542 15.0509 10.4611 15.0327 11.1303 14.844C11.7994 14.6554 12.4107 14.3023 12.9085 13.817C13.4063 13.3316 13.7747 12.7294 13.9802 12.0652C14.1857 11.4011 14.2217 10.696 14.085 10.0144" stroke="#D7F906" stroke-width="2" stroke-linecap="round" stroke-linejoin="round"/>
</svg>
