<svg width="112" height="16" viewBox="0 0 112 16" fill="none" xmlns="http://www.w3.org/2000/svg">
<path d="M8.20899 12.4897H4.1045V6.05562H0V1.95113H8.1905V12.4897H8.20899ZM16.418 12.4897H11.7403L16.1407 1.95113H20.8183L16.418 12.4897ZM11.7218 1.95113C13.0161 1.95113 14.0699 3.00499 14.0699 4.2992C14.0699 5.59341 13.0161 6.64726 11.7218 6.64726C10.4276 6.64726 9.37378 5.59341 9.37378 4.2992C9.39227 3.00499 10.4276 1.95113 11.7218 1.95113Z" fill="#F3F3F3"/>
<path d="M28.6694 12.257H30.8326V3.77072H33.6614V1.71848H25.8591V3.77072H28.6694V12.257ZM33.6614 12.257H35.6951V8.70721C35.6951 7.46847 36.3237 6.72892 37.3036 6.72892C37.6364 6.72892 37.9138 6.78438 38.2281 6.89532V4.82458C38.0062 4.76912 37.7659 4.73214 37.544 4.73214C36.712 4.73214 35.954 5.2868 35.6951 6.00786V4.82458H33.6614V12.257ZM42.1292 12.4234C43.1461 12.4234 43.9226 11.9058 44.2739 11.4251V12.257H46.3077V4.84307H44.2739V5.67506C43.9411 5.19435 43.1646 4.67667 42.1292 4.67667C40.1509 4.67667 38.6348 6.45159 38.6348 8.5593C38.6348 10.6485 40.1509 12.4234 42.1292 12.4234ZM42.5544 10.5746C41.4266 10.5746 40.6871 9.72409 40.6871 8.5593C40.6871 7.39451 41.4266 6.54403 42.5544 6.54403C43.6823 6.54403 44.4218 7.39451 44.4218 8.5593C44.4218 9.72409 43.6823 10.5746 42.5544 10.5746ZM51.1332 12.4234C52.1501 12.4234 52.9266 11.9058 53.2779 11.4251V12.257H55.3117V1.12684H53.2779V5.67506C52.9451 5.19435 52.1686 4.67667 51.1332 4.67667C49.1549 4.67667 47.6388 6.45159 47.6388 8.5593C47.6573 10.6485 49.1549 12.4234 51.1332 12.4234ZM51.5769 10.5746C50.4491 10.5746 49.7096 9.72409 49.7096 8.5593C49.7096 7.39451 50.4491 6.54403 51.5769 6.54403C52.7047 6.54403 53.4443 7.39451 53.4443 8.5593C53.4443 9.72409 52.7047 10.5746 51.5769 10.5746ZM58.1404 3.71526C58.8615 3.71526 59.4531 3.14211 59.4531 2.42105C59.4531 1.69999 58.8615 1.12684 58.1404 1.12684C57.4379 1.12684 56.8462 1.69999 56.8462 2.42105C56.8647 3.12362 57.4379 3.69677 58.1404 3.71526ZM57.142 12.257H59.1758V4.91703H57.142V12.257ZM60.9692 12.257H63.003V8.63326C63.003 7.20962 63.7055 6.52554 64.6485 6.52554C65.4989 6.52554 65.9612 7.17265 65.9612 8.245V12.257H67.9949V7.9122C67.9949 5.98937 66.9226 4.67667 65.1292 4.67667C64.1678 4.67667 63.4097 5.08342 63.003 5.69355V4.84307H60.9692V12.257ZM73.1718 10.2788C72.1549 10.2788 71.2859 9.50223 71.2859 8.37441C71.2859 7.22811 72.1364 6.47008 73.1718 6.47008C74.1886 6.47008 75.0576 7.22811 75.0576 8.37441C75.0576 9.52072 74.2071 10.2788 73.1718 10.2788ZM72.9314 15.4741C75.2055 15.4741 76.925 14.3093 76.925 11.6469V4.80609H74.8912V5.63809C74.4845 5.06494 73.6894 4.6397 72.7465 4.6397C70.8052 4.6397 69.2521 6.30368 69.2521 8.3929C69.2521 10.4636 70.8052 12.1276 72.7465 12.1276C73.6894 12.1276 74.5029 11.7024 74.8912 11.1477V11.6469C74.8912 12.8302 74.0962 13.6807 72.8944 13.6807C72.0624 13.6807 71.2304 13.4033 70.5833 12.7562L69.474 14.2723C70.3245 15.1043 71.6372 15.4741 72.9314 15.4741ZM81.2328 12.257H83.1557L87.519 1.71848H85.1524L82.2127 9.04001L79.2361 1.71848H76.9065L81.2328 12.257ZM89.3679 3.62281C90.0889 3.62281 90.6621 3.04966 90.6806 2.3286C90.6806 1.60754 90.0889 1.03439 89.3679 1.03439C88.6653 1.03439 88.0737 1.60754 88.0737 2.3286C88.0737 3.04966 88.6838 3.62281 89.3679 3.62281ZM88.3695 12.257H90.4032V4.82458H88.3695V12.257ZM95.654 12.4234C97.2071 12.4234 98.3904 11.7763 99.0929 10.7595L97.5769 9.63165C97.2441 10.1493 96.597 10.5746 95.654 10.5746C94.6741 10.5746 93.8052 10.0199 93.6757 9.02152H99.2224C99.2593 8.70721 99.2593 8.50384 99.2593 8.31895C99.2593 5.89693 97.5584 4.67667 95.5986 4.67667C93.343 4.67667 91.6975 6.35914 91.6975 8.54081C91.7344 10.8889 93.4539 12.4234 95.654 12.4234ZM93.7682 7.65336C93.9716 6.74741 94.8036 6.35915 95.5616 6.35915C96.3196 6.35915 97.0592 6.7659 97.2441 7.65336H93.7682ZM106.895 12.257H108.91L111.351 4.82458H109.169L107.783 9.57618L106.267 4.82458H104.714L103.216 9.57618L101.811 4.82458H99.6476L102.107 12.257H104.122L105.509 8.04162L106.895 12.257Z" fill="#F3F3F3"/>
</svg>
