<svg xmlns="http://www.w3.org/2000/svg" width="151" height="40" fill="none" viewBox="0 0 151 40"><g fill="#B3B3B3" clip-path="url(#clip0_521_6061)"><path d="m9.095 17.606 5.854-5.826 5.857 5.83 3.406-3.39L14.95 5l-9.26 9.216zM6.69 20l-3.406-3.39L-.123 20l3.407 3.39zM9.095 22.394l5.854 5.825 5.857-5.828 3.408 3.388-.002.002L14.95 35l-9.26-9.216-.005-.005zM26.615 23.391l3.407-3.39-3.407-3.39-3.406 3.39z"/><path d="M18.404 19.999h.002l-3.457-3.44-2.554 2.542-.294.292-.605.602-.005.005.005.005 3.453 3.437 3.457-3.44.001-.002zM35.332 12.27h7.408q2.758 0 4.171 1.408 1.094 1.092 1.094 2.705v.045q0 .683-.17 1.205a3.7 3.7 0 0 1-.454.943q-.283.42-.658.738a4.4 4.4 0 0 1-.805.546q1.386.523 2.182 1.42.796.9.796 2.489v.045q0 1.092-.422 1.91t-1.208 1.363-1.893.818q-1.106.273-2.45.273H35.33zm6.667 6.431q1.165 0 1.85-.398t.685-1.284v-.045q0-.795-.594-1.216t-1.712-.42h-3.471V18.7zm.936 6.41q1.165 0 1.827-.421.663-.42.663-1.307v-.046q0-.795-.617-1.261-.616-.465-1.987-.466h-4.064v3.5zM53.308 12.27h3.517v15.908h-3.517zM62.15 12.27h3.243l7.49 9.795V12.27h3.471v15.908h-2.991l-7.741-10.113v10.113H62.15zM87.001 12.156h3.242l6.851 16.023h-3.676l-1.462-3.568h-6.76l-1.46 3.568H80.15zm3.7 9.363-2.125-5.158-2.123 5.158zM100.891 12.27h3.242l7.49 9.795V12.27h3.471v15.908h-2.991l-7.741-10.113v10.113h-3.471zM127.75 28.45q-1.76 0-3.265-.636a8 8 0 0 1-2.604-1.739 7.9 7.9 0 0 1-1.712-2.602 8.35 8.35 0 0 1-.617-3.205v-.045a8.26 8.26 0 0 1 2.329-5.806 7.9 7.9 0 0 1 2.626-1.773q1.53-.648 3.38-.648 1.119 0 2.043.182a8.6 8.6 0 0 1 1.679.5q.754.318 1.393.772.64.456 1.187 1l-2.237 2.569q-.937-.84-1.907-1.318-.971-.478-2.181-.478-1.005 0-1.861.387a4.4 4.4 0 0 0-1.473 1.068q-.616.68-.959 1.58a5.4 5.4 0 0 0-.342 1.92v.045q0 1.023.342 1.931.343.91.948 1.591.605.683 1.461 1.08a4.4 4.4 0 0 0 1.884.398q1.37 0 2.317-.5t1.885-1.364l2.238 2.25q-.618.66-1.279 1.182a7.6 7.6 0 0 1-1.451.898q-.787.376-1.723.568-.937.193-2.101.193M138.442 12.27h12.035v3.113h-8.563v3.227h7.535v3.114h-7.535v3.34h8.677v3.114h-12.149z"/></g><defs><clipPath id="clip0_521_6061"><path fill="#fff" d="M0 0h150.469v40H0z"/></clipPath></defs></svg>