<svg xmlns="http://www.w3.org/2000/svg" width="174" height="40" fill="none" viewBox="0 0 174 40"><g fill="#B3B3B3" clip-path="url(#clip0_521_6075)"><path d="M153.774 27.168c.931.986 6.046 5.712 14.073.227 5.805-4.52 5.66-14.322 5.103-17.281-.195.43-6.937 15.196-19.176 17.054m19.175-17.057c-.071-.03-7.54-1.048-14.923 3.708-4.584 2.952-5.19 7.274-4.981 10.154 10.733-1.201 19.66-13.523 19.904-13.862"/><path d="M172.949 10.111c-.071-.03-7.54-1.048-14.923 3.708-4.584 2.952-5.19 7.274-4.981 10.154 10.733-1.201 19.66-13.523 19.904-13.862M11.973 26.591h-8.36v-4.453h8.36c2.09 0 3.157 1 3.157 2.295 0 1.25-1.045 2.158-3.157 2.158m-.273-6.838H3.612v-3.749H11.7c2.204 0 3.067.773 3.067 1.84 0 .977-1 1.909-3.067 1.909m2.136 1.136c3.52-.114 4.793-1.863 4.793-3.771 0-2.09-1.658-3.817-5.702-3.817H0v15.948h13.313c3.317 0 5.793-1.386 5.793-4.362 0-2.113-1.386-3.907-5.27-3.998m9.537-7.588v15.948h3.612V13.301zm18.26 3.021h7.952v-3.021H30.07v3.021h7.951V29.25h3.613zm11.037-3.021v15.948h3.612v-6.225h8.474v-2.612h-8.474V16.05H70.05V13.3zm20.306 0v15.948h3.612V13.301zm12.081 3.885L97.03 29.249h4.089V13.301h-3.567v11.495L86.057 13.301h-4.59v15.948h3.59zM106 13.3v15.948h17.675v-2.68h-14.063v-4.385h8.429v-2.477h-8.429V16.05h14.063V13.3zm41.865 0h-4.77l-6.089 5.611-6.043-5.611h-4.839l8.497 7.86-8.815 8.088h4.771l6.384-5.884 6.361 5.884h4.862l-8.838-8.11z"/></g><defs><clipPath id="clip0_521_6075"><path fill="#fff" d="M0 0h173.204v40H0z"/></clipPath></defs></svg>