<svg xmlns="http://www.w3.org/2000/svg" width="122" height="40" fill="none" viewBox="0 0 122 40"><g clip-path="url(#clip0_521_6099)"><path fill="#B3B3B3" d="M15.478 20.962H8.012l-7.638-7.59A1.267 1.267 0 0 1 .37 11.58l9.795-9.846h7.691l-2.325 2.26-8.537 8.484 8.429 8.484m-3.013-8.464h7.466l7.638 7.589c.497.494.5 1.297.005 1.793l-9.795 9.844h-7.69l2.324-2.26 8.538-8.483-8.43-8.484m58.76 5.882v-4.192h-3.592V8.272h-4.944v5.915H59.62v4.192h3.069v6.864c0 3.816.751 6.62 5.437 6.533l2.94-.058v-3.93h-1.459c-2.082 0-1.966-1.215-1.966-3.47l-.008-5.939zm49.826 0v-4.192h-3.593V8.272h-4.944v5.915h-3.069v4.192h3.069v6.864c0 3.816.751 6.62 5.437 6.533l2.941-.058v-3.93h-1.46c-2.082 0-1.966-1.215-1.966-3.47l-.008-5.939h3.593m-35.719-2.204a6.2 6.2 0 0 0-2.057-1.634c-.929-.45-2.016-.677-3.23-.677-1.488 0-2.822.367-3.962 1.09-1.14.721-2.043 1.741-2.685 3.03-.64 1.285-.965 2.794-.965 4.487 0 1.692.342 3.113 1.016 4.407.676 1.298 1.612 2.333 2.784 3.076 1.173.744 2.512 1.122 3.978 1.122 1.108 0 2.119-.24 3.005-.713a5.4 5.4 0 0 0 1.752-1.475v1.909c0 1.183-.31 2.09-.922 2.696-.614.605-1.547.91-2.774.91-1.057 0-1.888-.239-2.47-.712-.476-.387-.892-.896-.989-1.972h-4.799c.045 1.506.487 2.52 1.111 3.41.7.996 1.686 1.775 2.93 2.313 1.233.531 2.663.801 4.25.801 2.666 0 4.787-.67 6.305-1.989 1.528-1.327 2.302-3.185 2.302-5.522V14.186h-4.58zm-.876 8.625c-.316.651-.761 1.162-1.326 1.516-.564.353-1.245.533-2.024.533-1.127 0-2.003-.383-2.68-1.173-.674-.785-1.015-1.863-1.015-3.206s.341-2.42 1.016-3.207c.667-.78 1.57-1.173 2.679-1.173 1.11 0 2.09.4 2.78 1.19.695.798 1.048 1.882 1.048 3.221 0 .868-.16 1.64-.478 2.298M58.073 8.272h-5.185v4.226h5.185zm49.059 8.551a8 8 0 0 0-2.935-2.186c-1.158-.512-2.461-.773-3.871-.773-1.727 0-3.286.392-4.633 1.165a8.44 8.44 0 0 0-3.186 3.205c-.765 1.35-1.152 2.916-1.152 4.654 0 1.739.376 3.409 1.117 4.78a7.9 7.9 0 0 0 3.173 3.208c1.36.75 2.958 1.131 4.748 1.131 2.198 0 4.064-.552 5.547-1.643 1.428-1.05 2.41-2.53 2.945-4.383h-5.011c-.263.63-.635 1.167-1.167 1.546-.628.446-1.44.672-2.413.672-.844 0-1.568-.205-2.15-.61-.585-.404-1.032-1.002-1.325-1.778a6.8 6.8 0 0 1-.375-1.582h12.529l.025-.156c.223-1.413.167-2.753-.17-3.981a8.56 8.56 0 0 0-1.696-3.27m-10.609 4.16a7 7 0 0 1 .312-1.066c.305-.786.746-1.392 1.311-1.796.563-.404 1.263-.608 2.082-.608 1.026 0 1.869.332 2.504.987.601.623.943 1.474 1.016 2.484zm-38.552-6.796h-4.978v17.532h4.978zm-10.527 5.262c.91-.517 1.64-1.16 2.172-1.92a5 5 0 0 0 .912-2.933c0-2.024-.757-3.604-2.248-4.696-1.473-1.08-3.5-1.627-6.027-1.627h-9.137v23.446h9.502c2.66 0 4.791-.619 6.332-1.84 1.553-1.231 2.341-2.956 2.341-5.126 0-1.321-.37-2.458-1.1-3.379-.656-.822-1.578-1.47-2.746-1.925M38.06 12.5h3.795c1.19 0 2.09.23 2.673.684.577.448.857 1.037.857 1.8 0 .762-.28 1.38-.857 1.83-.584.454-1.483.685-2.673.685H38.06zm7.145 14.2c-.658.527-1.663.794-2.985.794h-4.16v-5.738h4.16c1.322 0 2.327.258 2.988.764.654.505.973 1.172.973 2.041 0 .914-.32 1.613-.976 2.14z"/></g><defs><clipPath id="clip0_521_6099"><path fill="#fff" d="M0 0h121.125v40H0z"/></clipPath></defs></svg>