<svg xmlns="http://www.w3.org/2000/svg" width="91" height="40" fill="none" viewBox="0 0 91 40"><g fill="#B3B3B3" clip-path="url(#clip0_521_6092)"><path d="M64.153 24.9V1.77h4.651V24.9zM9.967 32.228H0V9.098h9.568c4.651 0 7.356 2.532 7.356 6.499 0 2.565-1.741 4.226-2.944 4.777 1.435.652 3.276 2.113 3.276 5.196 0 4.32-3.043 6.658-7.29 6.658m-.771-19.103H4.645v5.33h4.551c1.973 0 3.076-1.07 3.076-2.665 0-1.588-1.103-2.665-3.076-2.665m.299 9.389h-4.85v5.688h4.85c2.106 0 3.11-1.296 3.11-2.858 0-1.561-1.004-2.824-3.11-2.824zM31.442 22.74v9.488h-4.618V22.74L19.668 9.099h5.05l4.445 9.322 4.385-9.322h5.05zM51.78 32.228h-9.966V9.098h9.568c4.651 0 7.355 2.532 7.355 6.499 0 2.565-1.74 4.226-2.943 4.777 1.435.652 3.276 2.113 3.276 5.196 0 4.32-3.043 6.658-7.29 6.658m-.77-19.103h-4.551v5.33h4.551c1.973 0 3.076-1.07 3.076-2.665 0-1.588-1.103-2.665-3.076-2.665m.299 9.389h-4.85v5.688h4.85c2.106 0 3.11-1.296 3.11-2.858 0-1.561-1.004-2.824-3.11-2.824zM83.787 13.125v19.103h-4.645V13.125h-6.225V9.1h17.096v4.026z"/></g><defs><clipPath id="clip0_521_6092"><path fill="#fff" d="M0 0h90.013v40H0z"/></clipPath></defs></svg>