<svg xmlns="http://www.w3.org/2000/svg" width="146" height="40" fill="none" viewBox="0 0 146 40"><g clip-path="url(#clip0_521_6080)"><path fill="#B3B3B3" d="M29.376 14.259c-5.288 0-9.42 4.014-9.42 9.387s4.028 9.353 9.42 9.353c5.391 0 9.489-4.049 9.489-9.388 0-5.304-4.028-9.352-9.49-9.352m.035 14.867c-3.01 0-5.217-2.338-5.217-5.479 0-3.176 2.17-5.513 5.182-5.513 3.046 0 5.251 2.373 5.251 5.513s-2.205 5.48-5.216 5.48M40.02 18.343h2.627V32.65h4.201V14.608H40.02zm-30.636-.21c2.207 0 3.957 1.36 4.622 3.384h4.447c-.806-4.326-4.377-7.258-9.033-7.258C4.13 14.259 0 18.273 0 23.647 0 29.022 4.027 33 9.419 33c4.551 0 8.193-2.932 8.999-7.294h-4.413c-.63 2.024-2.381 3.42-4.587 3.42-3.047 0-5.182-2.338-5.182-5.479.001-3.176 2.102-5.514 5.147-5.514m110.466 3.769-3.081-.453c-1.47-.209-2.521-.698-2.521-1.85 0-1.256 1.366-1.884 3.221-1.884 2.031 0 3.327.872 3.607 2.303h4.062c-.456-3.63-3.257-5.758-7.563-5.758-4.447 0-7.388 2.269-7.388 5.48 0 3.07 1.926 4.85 5.812 5.408l3.081.453c1.506.209 2.346.803 2.346 1.92 0 1.43-1.47 2.024-3.501 2.024-2.486 0-3.887-1.012-4.097-2.547h-4.131c.386 3.525 3.151 6.002 8.193 6.002 4.587 0 7.632-2.094 7.632-5.69 0-3.21-2.205-4.885-5.672-5.408M44.747 7.174c-1.54 0-2.697 1.117-2.697 2.652s1.155 2.652 2.697 2.652c1.54 0 2.696-1.117 2.696-2.652s-1.156-2.652-2.696-2.652m61.658 13.612c0-3.909-2.381-6.526-7.423-6.526-4.762 0-7.422 2.409-7.948 6.108H95.2c.21-1.43 1.33-2.617 3.711-2.617 2.136 0 3.187.942 3.187 2.094 0 1.5-1.927 1.884-4.307 2.128-3.221.349-7.213 1.465-7.213 5.654 0 3.246 2.417 5.339 6.268 5.339 3.011 0 4.902-1.257 5.848-3.247.14 1.78 1.47 2.932 3.326 2.932h2.451v-3.734h-2.066v-8.132zm-4.132 4.537c0 2.408-2.101 4.188-4.657 4.188-1.576 0-2.907-.663-2.907-2.059 0-1.78 2.137-2.268 4.097-2.477 1.891-.174 2.941-.593 3.467-1.397zM79.97 14.259c-2.346 0-4.307.977-5.708 2.617V7h-4.201v25.651h4.131v-2.373C75.592 31.988 77.59 33 79.97 33c5.042 0 8.859-3.978 8.859-9.353 0-5.374-3.887-9.388-8.86-9.388m-.63 14.867c-3.011 0-5.218-2.338-5.218-5.479s2.241-5.513 5.252-5.513c3.047 0 5.182 2.338 5.182 5.513 0 3.14-2.205 5.48-5.216 5.48M60.012 14.26c-2.731 0-4.517 1.116-5.568 2.687v-2.339h-4.167V32.65h4.202v-9.806c0-2.758 1.75-4.712 4.341-4.712 2.416 0 3.921 1.71 3.921 4.189v10.33h4.202V22.008c.001-4.539-2.344-7.75-6.931-7.75m85.537 8.795c0-5.165-3.781-8.794-8.858-8.794-5.392 0-9.349 4.048-9.349 9.387 0 5.62 4.237 9.353 9.419 9.353 4.377 0 7.808-2.583 8.683-6.247h-4.378c-.63 1.606-2.17 2.513-4.237 2.513-2.696 0-4.727-1.675-5.181-4.607h13.9v-1.605zm-13.656-1.396c.666-2.514 2.557-3.734 4.728-3.734 2.38 0 4.201 1.36 4.621 3.733z"/></g><defs><clipPath id="clip0_521_6080"><path fill="#fff" d="M0 0h145.549v40H0z"/></clipPath></defs></svg>