<svg xmlns="http://www.w3.org/2000/svg" width="157" height="40" fill="none" viewBox="0 0 157 40"><g fill="#B3B3B3" clip-path="url(#clip0_521_6149)"><path d="M18.125 29.14h-1.849l-2.213-2.03v-1.042l2.291-2.188v-3.463l2.995-1.954 3.411 2.579zm-7.656-5.468.338-3.255-1.12-2.917h6.615l-1.094 2.917.313 3.255h-5.052m1.51 3.437-2.213 2.058H7.89l-4.662-8.125 3.438-2.552 3.02 1.927v3.463l2.292 2.188zM7.865 11.484h10.234l1.224 5.209H6.667zM12.995 5 0 12.5v15L12.995 35l12.995-7.5v-15zM40.573 26.953c-3.438 0-5.964-2.683-5.964-5.99s2.552-6.068 5.99-6.068c2.188 0 3.542.808 4.61 1.98l-1.641 1.77c-.808-.859-1.667-1.432-2.995-1.432-1.927 0-3.333 1.667-3.333 3.698 0 2.083 1.432 3.75 3.463 3.75 1.25 0 2.162-.599 2.995-1.432l1.588 1.588c-1.145 1.224-2.474 2.136-4.713 2.136M50.313 26.954h-2.657V14.922h2.657v2.813c.729-1.719 2.057-2.917 4.088-2.813v2.813h-.156c-2.318 0-3.932 1.51-3.932 4.583zM68.281 14.87l-5.859 15.313H59.74l1.276-3.23L55.99 14.87h2.838l3.412 8.932 3.281-8.932zM76.094 17.188c-1.797 0-3.36 1.458-3.36 3.724s1.59 3.724 3.36 3.724c1.823 0 3.307-1.433 3.307-3.724s-1.51-3.724-3.307-3.724m.599 9.74c-1.901 0-3.1-.964-3.906-2.032v5.287H70.13V14.87h2.657v2.162c.859-1.198 2.057-2.162 3.906-2.162 2.734 0 5.39 2.162 5.39 6.016s-2.63 6.041-5.39 6.041M87.89 17.396v5.677c0 1.015.521 1.432 1.433 1.432h1.041v2.37h-1.823c-1.927 0-3.307-.86-3.307-3.385v-6.094h-1.458V15.13h1.458v-3.177h2.657v3.177h2.473v2.266zM98.724 17.187c-2.136 0-3.49 1.667-3.49 3.698 0 2.057 1.459 3.75 3.516 3.75 2.135 0 3.489-1.667 3.489-3.698.053-2.057-1.432-3.75-3.515-3.75m0 9.766c-3.516 0-6.12-2.683-6.12-5.99 0-3.333 2.63-6.068 6.172-6.068s6.146 2.683 6.146 6.016c0 3.281-2.604 6.042-6.198 6.042M130.26 17.187c-2.135 0-3.489 1.667-3.489 3.698 0 2.057 1.458 3.75 3.515 3.75 2.136 0 3.49-1.667 3.49-3.698.026-2.057-1.432-3.75-3.516-3.75m0 9.766c-3.515 0-6.119-2.683-6.119-5.99 0-3.333 2.63-6.068 6.171-6.068s6.146 2.683 6.146 6.016c0 3.281-2.63 6.042-6.198 6.042M152.188 14.87c2.526 0 4.062 1.589 4.062 4.427v7.63h-2.656v-6.822c0-1.85-.859-2.813-2.344-2.813-1.432 0-2.474 1.016-2.474 2.865v6.796h-2.656v-6.848c0-1.797-.885-2.813-2.344-2.813s-2.474 1.094-2.474 2.89v6.771h-2.656V14.896h2.656v1.98c.755-1.016 1.745-1.98 3.516-1.98 1.667 0 2.812.807 3.437 2.031.964-1.25 2.188-2.057 3.933-2.057M109.792 24.505v1.354l-.078.13-1.172.651h-.156l-1.146-.65-.078-.131v-1.354l.078-.13 1.146-.651h.156l1.172.65zM117.839 26.927c-3.438-.078-5.912-2.812-5.86-6.12.052-3.307 2.657-6.015 6.12-5.937 2.188.052 3.542.885 4.583 2.083l-1.666 1.745c-.781-.86-1.641-1.484-2.969-1.51-1.927-.026-3.359 1.588-3.385 3.645-.052 2.084 1.354 3.776 3.385 3.802 1.25.026 2.188-.546 3.021-1.38l1.562 1.615c-1.172 1.224-2.526 2.11-4.791 2.057"/></g><defs><clipPath id="clip0_521_6149"><path fill="#fff" d="M0 0h156.25v40H0z"/></clipPath></defs></svg>