<svg xmlns="http://www.w3.org/2000/svg" width="98" height="40" fill="none" viewBox="0 0 98 40"><g fill="#B3B3B3" fill-rule="evenodd" clip-path="url(#clip0_521_6124)" clip-rule="evenodd"><path d="M9.396 12.319c.247-.222.38-.389.182-.389-.417 0-2.94.373-3.46-1.533s2.261-7.653 2.366-7.9c.101-.237-.107-.537-.412-.537-.3 0-.52.325-.552.365-2.838 3.56-6.8 8.005-7.311 9.92-1.292 4.852 3.701 6.818 6.853 7.177a.072.072 0 0 0 .084-.072v-1.722c0-2.325.87-4.066 2.25-5.31M88.27 12.319c-.246-.222-.38-.389-.18-.389.416 0 2.939.373 3.459-1.533s-2.261-7.653-2.366-7.9c-.1-.237.107-.537.413-.537.3 0 .52.325.551.365 2.839 3.56 6.801 8.005 7.311 9.92 1.292 4.852-3.701 6.818-6.853 7.177a.072.072 0 0 1-.083-.072v-1.722c0-2.325-.87-4.066-2.251-5.31M84.954 24.702c0 1.881-2.516 2.956-4.153 2.956-1.752 0-4.23-1.075-4.23-2.956v-6.63c0-1.88 2.478-2.763 4.23-2.763 1.637 0 4.153.883 4.153 2.763zm-4.153-13.5c-3.884.038-8.417 2.302-8.417 6.87v6.948c0 4.645 4.533 6.833 8.417 6.871 3.807-.038 8.34-2.226 8.34-6.871v-6.948c0-4.568-4.533-6.832-8.34-6.87M55.69 24.702c0 1.881-2.517 2.956-4.153 2.956-1.751 0-4.229-1.075-4.229-2.956v-6.63c0-1.88 2.478-2.763 4.229-2.763 1.636 0 4.153.883 4.153 2.763zm-4.153-13.5c-3.883.038-8.417 2.302-8.417 6.87v6.948c0 4.645 4.534 6.833 8.417 6.871 3.807-.038 8.341-2.226 8.341-6.871v-6.948c0-4.568-4.534-6.832-8.341-6.87M42.807 12.715c-3.1-.846-5.393-1.2-8.715-1.2-3.323-.001-5.621.353-8.716 1.197a.174.174 0 0 0-.107.276c1.059.882 1.504 2.062 1.71 3.393a26.5 26.5 0 0 1 5.019-.761v16.136c-.002.057.04.092.1.092h3.986q.103.009.101-.089V15.623c1.715.102 3.146.344 4.835.758.257-1.323.794-2.558 1.879-3.384.096-.12.013-.254-.093-.282M72.536 11.344c-.298-.042-1.178-.17-1.952-.14-3.815.147-8.129 2.416-8.129 6.869v13.725c-.001.058.04.093.101.093h3.985q.104.008.102-.09V18.073c0-1.467 1.793-2.375 3.29-2.681.434-1.464 1.289-2.52 2.597-3.58.229-.185.217-.437.005-.467M20.877 19.244a.176.176 0 0 1-.176.178h-7.639v-1.4c0-1.907 2.25-2.802 4.026-2.802 1.66 0 3.79.895 3.79 2.803zm-3.789-8.19c-3.939.039-8.273 2.336-8.273 6.969v7.046c0 4.711 4.334 6.93 8.273 6.97 2.822-.029 6.035-1.206 7.564-3.7.051-.083.006-.192-.072-.238-1.348-.78-2.13-1.211-3.467-1.97-.042-.023-.087-.023-.122.034-.73 1.226-2.593 1.903-3.903 1.903-1.776 0-4.026-1.09-4.026-2.999v-2.105h10.92a1.06 1.06 0 0 0 1.055-1.065v-3.876c0-4.633-4.087-6.93-7.949-6.97"/></g><defs><clipPath id="clip0_521_6124"><path fill="#fff" d="M0 0h97.667v40H0z"/></clipPath></defs></svg>