<svg xmlns="http://www.w3.org/2000/svg" width="131" height="40" fill="none" viewBox="0 0 131 40"><g fill="#B3B3B3" clip-path="url(#clip0_521_6144)"><path d="M79.526 10.173h-3.46v3.717h-2.068v3.266h2.069v8.534c0 .744.097 1.487.323 2.198.194.518.517 1.002.938 1.39.388.356.905.647 1.422.776a7.75 7.75 0 0 0 3.653 0c.485-.129.938-.29 1.358-.55v-2.618c-.647.259-1.326.42-2.037.42a1.93 1.93 0 0 1-1.584-.55c-.388-.387-.614-.872-.614-1.68v-7.92h4.267V13.89h-4.235v-3.718zm-10.862 4.881c-3.75-2.748-9.052-1.94-11.8 1.81s-1.94 9.052 1.81 11.8a8.44 8.44 0 0 0 9.958 0v1.164h3.459V13.891h-3.46v1.163zm-4.979 11.8a4.98 4.98 0 0 1-4.978-4.979 4.98 4.98 0 0 1 4.978-4.978 4.98 4.98 0 0 1 4.979 4.978 4.98 4.98 0 0 1-4.979 4.979m-18.944-8.082v3.847h5.205a6.14 6.14 0 0 1-6.11 4.72 6.636 6.636 0 0 1-6.627-6.627c0-3.653 2.974-6.627 6.66-6.627 1.907 0 3.717.84 4.978 2.262l2.974-2.424c-3.75-4.397-10.345-4.946-14.773-1.229-4.43 3.718-4.947 10.345-1.229 14.774a10.44 10.44 0 0 0 7.985 3.686 9.9 9.9 0 0 0 7.274-2.942 10.34 10.34 0 0 0 2.844-6.143c.097-1.099.097-2.198.033-3.297h-9.246zm77.748-5.334c-4.655 0-8.437 3.782-8.437 8.437 0 4.656 3.782 8.438 8.437 8.438s8.438-3.782 8.438-8.438a8.423 8.423 0 0 0-8.438-8.437m0 13.416a4.98 4.98 0 0 1-4.978-4.979 4.98 4.98 0 0 1 4.978-4.978 4.98 4.98 0 0 1 4.979 4.978 4.98 4.98 0 0 1-4.979 4.979m-14.095 3.006h3.718V15.54h-3.718zm-5.689 0h3.717v-3.717h-3.717zm-9.407-16.422c-4.656 0-8.438 3.782-8.438 8.437 0 4.656 3.782 8.438 8.438 8.438a8.43 8.43 0 0 0 7.435-4.429l-3.104-1.52c-1.39 2.36-4.46 3.169-6.82 1.779a5.1 5.1 0 0 1-2.296-3.007h13.19c.711-4.623-2.457-8.922-7.08-9.633a8 8 0 0 0-1.26-.097zM88.61 20.13c.97-2.586 3.847-3.88 6.433-2.91a4.97 4.97 0 0 1 2.91 2.91zm19.784-6.207h3.718v-3.718h-3.718zM15 28.244A8.237 8.237 0 0 1 6.756 20 8.237 8.237 0 0 1 15 11.757V5C6.724 5 0 11.724 0 20s6.724 15 15 15 15-6.724 15-15h-6.756A8.237 8.237 0 0 1 15 28.244"/><path d="M23.244 11.757H15V20h8.244z"/></g><defs><clipPath id="clip0_521_6144"><path fill="#fff" d="M0 0h130.927v40H0z"/></clipPath></defs></svg>