<svg xmlns="http://www.w3.org/2000/svg" width="145" height="40" fill="none" viewBox="0 0 145 40"><g fill="#B3B3B3" clip-path="url(#clip0_521_6115)"><path d="M31.54 8.985h3.493v9.22l9.316-9.22h4.659l-8.346 8.055 8.734 13.586h-4.659L37.945 19.66l-3.008 2.912v8.151h-3.494zM51.337 8.985h3.493v3.785c.292-.68.971-1.65 2.038-2.62 1.068-1.068 2.33-1.553 3.785-1.553h.388c.195 0 .486 0 .874.097v3.881c-.194 0-.388-.096-.582-.096h-.583c-1.844 0-3.202.582-4.173 1.746q-1.455 1.747-1.455 4.076v12.422h-3.688zM75.404 17.525c.873-.097 1.359-.485 1.65-1.067.194-.291.194-.777.194-1.359 0-1.261-.486-2.135-1.359-2.717q-1.31-.874-3.785-.874c-1.94 0-3.202.486-4.076 1.553-.485.582-.776 1.456-.873 2.523h-3.397q.147-4.075 2.62-5.531C68.127 8.985 69.97 8.5 72.202 8.5c2.524 0 4.562.485 6.211 1.456 1.553.97 2.33 2.523 2.33 4.56V26.94c0 .388.096.679.194.873.194.194.485.388.97.388h.582c.194 0 .388-.097.68-.097v2.717c-.583.194-.97.291-1.262.291-.291 0-.68.098-1.165.098-1.261 0-2.135-.486-2.717-1.36q-.436-.727-.582-2.037c-.776.97-1.844 1.844-3.203 2.523a10.2 10.2 0 0 1-4.56 1.068c-2.039 0-3.688-.583-4.95-1.844s-1.94-2.718-1.94-4.561c0-2.038.581-3.591 1.843-4.658q1.892-1.602 4.95-2.038zm-7.667 9.802c.777.582 1.65.873 2.718.873a8.24 8.24 0 0 0 3.687-.873c2.038-.97 3.009-2.62 3.009-4.853v-2.91c-.486.29-.97.484-1.747.678-.776.194-1.359.292-2.038.389l-2.135.485c-1.359.194-2.33.485-3.008.873-1.165.68-1.65 1.65-1.65 3.009q0 1.455 1.164 2.329M85.594 8.985h3.493v9.22l9.316-9.22h4.659l-8.346 8.055 8.734 13.586h-4.658L91.999 19.66l-3.009 2.912v8.151h-3.493zM118.297 9.664c1.456.68 2.524 1.65 3.3 2.815q1.019 1.6 1.456 3.785c.194.97.291 2.62.291 4.755h-15.721c.097 2.232.582 3.979 1.552 5.337.971 1.359 2.426 2.038 4.464 2.038 1.844 0 3.397-.582 4.464-1.844.583-.776 1.068-1.553 1.359-2.523h3.591c-.097.776-.389 1.65-.971 2.62-.485.97-1.164 1.747-1.747 2.426a7.54 7.54 0 0 1-4.075 2.135q-1.31.292-2.912.292c-2.717 0-4.949-.97-6.793-2.912-1.844-1.94-2.814-4.658-2.814-8.152s.97-6.307 2.814-8.442 4.367-3.3 7.375-3.3c1.456-.194 2.912.194 4.367.97m1.359 8.443c-.194-1.552-.485-2.814-1.067-3.784q-1.457-2.62-4.95-2.62c-1.649 0-3.008.582-4.173 1.843-1.164 1.165-1.746 2.718-1.746 4.561zM126.546 8.985h3.494v3.106c1.068-1.262 2.135-2.135 3.3-2.718q1.746-.873 3.784-.873c3.106 0 5.144 1.067 6.211 3.203.582 1.164.874 2.814.874 5.046v13.877h-3.688V17.04q0-2.038-.582-3.202-1.02-2.039-3.494-2.038c-.873 0-1.553.097-2.135.29q-1.456.438-2.62 1.748a5.5 5.5 0 0 0-1.165 2.232c-.194.776-.291 1.843-.291 3.299v11.354h-3.591zM13.78 8.985C6.21 8.985 0 15.1 0 22.765v5.92c0 1.068.873 1.941 1.94 1.941 1.068 0 1.942-.873 1.942-1.94v-5.92c0-1.068.873-1.941 1.94-1.941 1.068 0 1.942.873 1.942 1.94v5.92c0 1.068.873 1.941 1.94 1.941 1.068 0 1.941-.873 1.941-1.94v-5.92c0-1.068.874-1.941 1.941-1.941s1.941.873 1.941 1.94v5.92c0 1.068.874 1.941 1.941 1.941s1.941-.873 1.941-1.94v-5.92c0-1.068.873-1.941 1.94-1.941 1.068 0 1.942.873 1.942 1.94v5.92c0 1.068.873 1.941 1.94 1.941 1.068 0 1.942-.873 1.942-1.94v-5.92c.485-7.667-5.726-13.78-13.393-13.78"/></g><defs><clipPath id="clip0_521_6115"><path fill="#fff" d="M0 0h144.209v40H0z"/></clipPath></defs></svg>