<svg xmlns="http://www.w3.org/2000/svg" width="131" height="40" fill="none" viewBox="0 0 131 40"><g clip-path="url(#clip0_521_6102)"><g fill="#B3B3B3" clip-path="url(#clip1_521_6102)"><path d="M102.144 19.987c0-.765 0-1.485-.024-2.15a13 13 0 0 0-.186-1.87 6.3 6.3 0 0 0-.524-1.63 5.3 5.3 0 0 0-1.035-1.433 6.6 6.6 0 0 0-2.103-1.45 6.9 6.9 0 0 0-2.686-.503 7 7 0 0 0-2.698.504 6.6 6.6 0 0 0-2.115 1.442c-.422.416-.77.9-1.03 1.434a6.2 6.2 0 0 0-.516 1.63 13 13 0 0 0-.18 1.87 71 71 0 0 0-.02 2.149c.004.765 0 1.48.02 2.148q.023.942.18 1.87c.096.564.27 1.113.516 1.63.26.532.609 1.017 1.03 1.433a6.5 6.5 0 0 0 2.115 1.44 6.9 6.9 0 0 0 2.698.506 6.8 6.8 0 0 0 2.686-.506 6.6 6.6 0 0 0 2.103-1.44 5.4 5.4 0 0 0 1.035-1.433 6.3 6.3 0 0 0 .524-1.63 13 13 0 0 0 .183-1.864q.031-1.004.025-2.149zm-3.468 0q.001 1.271-.04 2.115-.025.692-.138 1.376a3.4 3.4 0 0 1-.276.877 2.5 2.5 0 0 1-.412.615c-.259.295-.58.53-.939.688a3.2 3.2 0 0 1-1.281.258 3.3 3.3 0 0 1-1.288-.258 2.7 2.7 0 0 1-.964-.688 2.4 2.4 0 0 1-.412-.615 3.3 3.3 0 0 1-.262-.877q-.11-.684-.138-1.376a50 50 0 0 1-.037-2.115q0-1.273.037-2.117.029-.691.138-1.376.07-.457.262-.877a2.4 2.4 0 0 1 .412-.615c.266-.298.596-.533.964-.688a3.2 3.2 0 0 1 1.288-.258c.44-.005.877.083 1.281.258.36.158.68.393.939.688.166.184.306.391.412.615.131.279.224.574.276.877q.112.683.137 1.376.043.842.041 2.117M129.778 11.41a.31.31 0 0 0-.305-.304h-2.861a.306.306 0 0 0-.304.305v10.568l-6.977-10.787c-.047-.073-.088-.086-.191-.086h-2.653a.31.31 0 0 0-.304.305v17.15a.307.307 0 0 0 .304.302h2.859a.304.304 0 0 0 .303-.303V17.964l6.979 10.812c.048.073.086.085.191.085h2.652a.306.306 0 0 0 .304-.302zM110.599 11.41a.305.305 0 0 0-.304-.304h-2.858a.305.305 0 0 0-.304.305v17.148a.305.305 0 0 0 .304.304h2.858a.305.305 0 0 0 .304-.304zM76.383 19.986q-.001-1.28.035-2.129.024-.692.137-1.376c.264-1.528 1.434-2.429 2.927-2.429.975.008 1.858.369 2.422 1.189.256.383.442.808.55 1.255.01.047.052.08.1.076h3.364c.049 0 .066-.033.058-.08-.367-2.082-1.478-3.952-3.44-4.879a7.1 7.1 0 0 0-3.08-.653q-2.841 0-4.788 1.946a5.14 5.14 0 0 0-1.45 2.664q-.297 1.497-.3 4.415t.3 4.413a5.15 5.15 0 0 0 1.446 2.67q1.946 1.944 4.788 1.944a7.1 7.1 0 0 0 3.08-.652c1.962-.926 3.073-2.796 3.44-4.879.008-.048-.01-.08-.058-.08h-3.366a.09.09 0 0 0-.099.076 4 4 0 0 1-.55 1.254c-.564.826-1.448 1.182-2.422 1.189-1.493 0-2.663-.9-2.927-2.428q-.112-.683-.138-1.376-.03-.854-.029-2.13M40.845 11.41a.306.306 0 0 0-.304-.304h-2.858a.306.306 0 0 0-.304.305v17.15a.306.306 0 0 0 .304.302h2.858a.306.306 0 0 0 .304-.303v-5.034l2.294-2.742 4.712 7.988a.19.19 0 0 0 .171.091h3.473c.16 0 .189-.1.11-.235l-6.17-10.46 5.66-6.79c.114-.137.066-.267-.113-.267h-3.797a.14.14 0 0 0-.118.055l-6.222 7.461zM61.67 25.92c-1.61 0-3.068-1.488-3.068-3.266V11.41a.306.306 0 0 0-.304-.305h-2.859a.305.305 0 0 0-.304.305V22.61c0 3.915 2.929 6.403 6.534 6.403s6.534-2.488 6.534-6.403v-11.2a.307.307 0 0 0-.304-.304h-2.86a.306.306 0 0 0-.302.305v11.243c0 1.776-1.46 3.267-3.068 3.267"/><path fill-rule="evenodd" d="m8.648 19.986 8.873 8.875 5.601-5.601a2.534 2.534 0 0 1 3.578 3.578l-7.391 7.392a2.55 2.55 0 0 1-3.578 0L5.067 23.564v6.34a2.534 2.534 0 0 1-5.067 0V10.06a2.533 2.533 0 0 1 5.067 0v6.34L15.729 5.736a2.55 2.55 0 0 1 3.578 0l7.397 7.391a2.533 2.533 0 0 1-3.578 3.578l-5.6-5.6zm8.877-2.536a2.536 2.536 0 1 0-.002 5.075 2.536 2.536 0 0 0 .002-5.077z" clip-rule="evenodd"/></g></g><defs><clipPath id="clip0_521_6102"><path fill="#fff" d="M0 0h130.714v40H0z"/></clipPath><clipPath id="clip1_521_6102"><path fill="#fff" d="M0 5h130.714v30H0z"/></clipPath></defs></svg>