<svg xmlns="http://www.w3.org/2000/svg" width="146" height="40" fill="none" viewBox="0 0 146 40"><g fill="#B3B3B3" clip-path="url(#clip0_521_6083)"><path fill-rule="evenodd" d="M4.038 30.5h19.157c1.14 0 2.005-1.353 1.35-2.335l-9.566-16.643A4.09 4.09 0 0 0 11.437 9.5a4.1 4.1 0 0 0-3.662 2.264L.499 24.384c-1.485 2.641.536 6.116 3.54 6.116M19.12 15.64c-1.134-1.951-.46-4.457 1.494-5.588 1.95-1.133 4.457-.458 5.59 1.492l7.398 12.814c1.134 1.95.46 4.457-1.495 5.587-1.95 1.133-4.456.458-5.59-1.492z" clip-rule="evenodd"/><path d="M132.709 14.832c1.117-1.043 3.077-1.538 5.932-1.538h6.675V9.5h-7.892c-1.886 0-3.475.197-4.715.594a8.36 8.36 0 0 0-3.2 1.886c-.969.943-1.738 2.109-2.283 3.497-.546 1.415-.821 2.952-.821 4.563 0 1.538.275 3.026.821 4.392.545 1.363 1.314 2.555 2.283 3.498.894.868 1.96 1.488 3.151 1.885 1.215.398 2.829.595 4.764.595h7.892v-3.746h-6.675c-1.515 0-2.558-.049-3.152-.175-.62-.123-1.191-.323-1.663-.62-.943-.594-1.663-1.363-2.134-2.331-.449-.943-.672-2.135-.672-3.523.003-2.38.575-4.144 1.689-5.183M74.618 30.458h18.61v-3.671h-14.07v-5.235h12.284V18.08H79.158v-4.863h14.07V9.52h-18.61zM97.872 9.522l8.709 10.47-8.71 10.47h5.632l6.876-8.287v-4.34l-6.876-8.31h-5.631zM119.014 9.523l-6.872 8.309v4.34l6.872 8.286h5.631l-8.735-10.47 8.735-10.468h-5.631zM56.379 19.84 48.015 9.523h-4.318v20.935h4.54V16.492l7.247 8.68h1.763l7.247-8.758v14.04h4.54V9.52h-4.269z"/></g><defs><clipPath id="clip0_521_6083"><path fill="#fff" d="M0 0h145.316v40H0z"/></clipPath></defs></svg>