<svg xmlns="http://www.w3.org/2000/svg" width="90" height="40" fill="none" viewBox="0 0 90 40"><g fill="#B3B3B3" clip-path="url(#clip0_521_6133)"><path d="M26.4 6.5H.6a.6.6 0 0 0-.6.6v25.8a.6.6 0 0 0 .6.6h25.8a.6.6 0 0 0 .6-.6V7.1a.6.6 0 0 0-.6-.6M18 23.9a.6.6 0 0 1-.6.6H9.6a.6.6 0 0 1-.6-.6v-7.8a.6.6 0 0 1 .6-.6h7.8a.6.6 0 0 1 .6.6zM80.413 15.501h-7.8a.6.6 0 0 0-.6.6v7.8a.6.6 0 0 0 .6.6h7.8a.6.6 0 0 0 .6-.6v-7.8a.6.6 0 0 0-.6-.6M71.41 6.501h-7.8a.6.6 0 0 0-.6.6v7.8a.6.6 0 0 0 .6.6h7.8a.6.6 0 0 0 .6-.6V7.1a.6.6 0 0 0-.6-.6M89.41 6.501h-7.8a.6.6 0 0 0-.6.6v7.8a.6.6 0 0 0 .6.6h7.8a.6.6 0 0 0 .6-.6V7.1a.6.6 0 0 0-.6-.6M71.41 24.5h-7.8a.6.6 0 0 0-.6.6v7.8a.6.6 0 0 0 .6.6h7.8a.6.6 0 0 0 .6-.6v-7.8a.6.6 0 0 0-.6-.6M89.41 24.5h-7.8a.6.6 0 0 0-.6.6v7.8a.6.6 0 0 0 .6.6h7.8a.6.6 0 0 0 .6-.6v-7.8a.6.6 0 0 0-.6-.6M57.899 6.501h-7.8a.6.6 0 0 0-.6.6v7.8a.6.6 0 0 0 .6.6h7.8a.6.6 0 0 0 .6-.6V7.1a.6.6 0 0 0-.6-.6M57.899 24.5h-7.8a.6.6 0 0 0-.6.6v7.8a.6.6 0 0 0 .6.6h7.8a.6.6 0 0 0 .6-.6v-7.8a.6.6 0 0 0-.6-.6M49.499 16.093a.6.6 0 0 0-.6-.6h-8.4V7.1a.6.6 0 0 0-.6-.6h-7.8a.6.6 0 0 0-.6.6v25.786a.6.6 0 0 0 .6.6h7.8a.6.6 0 0 0 .6-.6v-8.393h8.4a.6.6 0 0 0 .6-.6z"/></g><defs><clipPath id="clip0_521_6133"><path fill="#fff" d="M0 0h90.009v40H0z"/></clipPath></defs></svg>