<svg xmlns="http://www.w3.org/2000/svg" width="154" height="40" fill="none" viewBox="0 0 154 40"><g fill="#B3B3B3" clip-path="url(#clip0_521_6111)"><path d="M149.159 5.002c-1.233-.027-2.699.24-4.36.787a1.66 1.66 0 0 0-.624.4 80 80 0 0 0-4.886 5.005l-.119.132a.12.12 0 0 0-.012.136.11.11 0 0 0 .123.056l.174-.037a75 75 0 0 1 7.51-1.217.584.584 0 0 1 .643.588c-.041 2.46.047 4.933.266 7.35l.015.157a.11.11 0 0 0 .087.1q.012.004.028.005a.11.11 0 0 0 .095-.05l.092-.13a69 69 0 0 1 4.516-5.762c.179-.204.226-.332.259-.517.503-3.22-.273-5.603-.968-6.205-.603-.523-1.479-.769-2.839-.798m-3.835 6.524-.153.021c-2.391.33-4.813.786-7.197 1.356a.95.95 0 0 0-.421.255 81 81 0 0 0-5.024 6.69c-.078.117-.085.396-.085.396s.389 3.003.957 5.214c-1.409 4.053-2.666 9.393-2.666 9.393a.12.12 0 0 0 .017.1c.021.03.055.048.091.049h.803a.12.12 0 0 0 .113-.077l.055-.15a75 75 0 0 1 2.783-6.587c.24-.5.747-1.51.747-1.51.083-.165.472-.91.56-1.077l.015-.03a74 74 0 0 1 9.408-13.736l.1-.115a.12.12 0 0 0 .015-.132.12.12 0 0 0-.118-.06m1.103.924a.11.11 0 0 0-.128.032l-.1.117a72.8 72.8 0 0 0-10.614 16.21l-.066.137a.115.115 0 0 0 .149.157l.14-.06a69 69 0 0 1 7.246-2.544.55.55 0 0 0 .334-.277c1.062-2.069 3.526-6.073 3.526-6.073.063-.09.049-.226.049-.226s-.433-4.79-.46-7.214l-.002-.153a.12.12 0 0 0-.074-.106m-6.301 16.085-.198.068c-1.283.427-3.181 1.082-4.884 1.864-.091.043-.151.162-.151.162l-.115.266-.006.013c-.191.434-.456 1.087-.569 1.353l-.087.211a.09.09 0 0 0 .021.096.08.08 0 0 0 .096.014l.207-.097c.465-.222 1.056-.558 1.674-.852l.022-.01c1.175-.558 2.503-1.188 3.302-1.569 0 0 .129-.07.194-.198l.598-1.2a.09.09 0 0 0-.011-.096.09.09 0 0 0-.093-.025M30.373 7.926v19.92H32.8v-1.392h.055c.928 1.064 2.62 1.803 4.094 1.803 3.821 0 6.276-3.003 6.276-7.642 0-4.503-2.566-7.642-6.222-7.642-1.447 0-2.973.711-3.929 1.803h-.055v-6.85zm14.928 0v2.81h2.864v-2.81zm20.303 0v19.92h2.647v-9.087c0-1.965 1.42-3.33 3.439-3.33 1.992 0 3.139 1.31 3.139 3.575v8.842h2.647V18.35c0-3.302-1.993-5.378-5.159-5.378-1.61 0-3.247.764-4.01 1.856h-.056V7.926zm53.625 0v6.85h-.055c-.955-1.12-2.457-1.803-3.903-1.803-3.657 0-6.25 3.194-6.25 7.642 0 4.64 2.457 7.642 6.278 7.642 1.473 0 3.164-.739 4.092-1.803h.055v1.392h2.428V7.926zM0 8.746v19.1h2.728v-7.559h3.903c3.002 0 4.094 1.201 4.094 4.53v3.029h2.647v-3.028c0-3.05-.93-4.86-2.951-5.605 2.071-.726 3.496-2.434 3.496-4.929 0-3.384-2.512-5.539-6.441-5.539zm2.728 2.482h4.503c2.592 0 3.93 1.118 3.93 3.329 0 2.128-1.364 3.302-3.902 3.302h-4.53zm19.048 1.745c-3.93 0-6.631 3.14-6.631 7.642 0 4.612 2.62 7.642 6.63 7.642 3.958 0 6.55-3.03 6.55-7.642 0-4.503-2.674-7.642-6.55-7.642m35.886 0c-1.528 0-3.164.738-3.956 1.803h-.055v-1.392h-2.592v14.462h2.647v-9.087c0-2.046 1.338-3.33 3.439-3.33 2.074 0 3.056 1.203 3.056 3.713v8.704h2.675v-9.47c0-3.329-2.021-5.403-5.214-5.403m28.353 0c-3.93 0-6.63 3.14-6.63 7.642 0 4.612 2.619 7.642 6.63 7.642 3.957 0 6.55-3.03 6.55-7.642 0-4.503-2.674-7.642-6.55-7.642m14.82 0c-3.93 0-6.631 3.14-6.631 7.642 0 4.612 2.62 7.642 6.631 7.642 3.957 0 6.55-3.03 6.55-7.642 0-4.503-2.675-7.642-6.55-7.642m-55.426.411v14.462h2.647V13.384zm-23.633 2.02c2.401 0 3.93 2.045 3.93 5.211 0 3.193-1.529 5.24-3.93 5.24-2.484 0-4.012-2.02-4.012-5.24s1.528-5.211 4.012-5.211m14.764 0c2.592 0 4.039 1.882 4.039 5.211 0 3.357-1.447 5.24-4.04 5.24-1.992 0-3.519-1.364-3.519-3.165v-3.875c0-1.938 1.527-3.412 3.52-3.412m49.475 0c2.402 0 3.93 2.045 3.93 5.211 0 3.193-1.528 5.24-3.93 5.24-2.483 0-4.01-2.02-4.01-5.24s1.527-5.211 4.01-5.211m14.82 0c2.401 0 3.93 2.045 3.93 5.211 0 3.193-1.529 5.24-3.93 5.24-2.484 0-4.012-2.02-4.012-5.24s1.528-5.211 4.012-5.211m14.872 0c1.992 0 3.522 1.473 3.522 3.41v3.876c0 1.8-1.53 3.164-3.522 3.164-2.592 0-4.039-1.882-4.039-5.239 0-3.33 1.447-5.211 4.039-5.211"/></g><defs><clipPath id="clip0_521_6111"><path fill="#fff" d="M0 0h153.127v40H0z"/></clipPath></defs></svg>