<svg xmlns="http://www.w3.org/2000/svg" width="65" height="67" fill="none" viewBox="0 0 65 67"><path fill="#000" fill-rule="evenodd" d="M30.852 10.375a5.92 5.92 0 0 1 5.338 3.375L44.01 30.2s0 .008-.008.008c0 0 0-.008.008-.008 1.833-2.247 3.164-4.891 3.732-7.73.64-3.205 3.756-5.274 6.96-4.64a5.914 5.914 0 0 1 4.64 6.96c-1.314 6.562-4.98 12.427-9.946 16.735l2.84 5.97c1.573 3.31-.073 7.358-3.562 8.397l-.105.032a5.9 5.9 0 0 1-1.574.219 5.92 5.92 0 0 1-5.346-3.375l-2.523-5.305-5.135-10.806-2.523-5.305a.674.674 0 0 0-1.216 0l-2.58 5.42c-3.934-.837-7.893-3.27-10.132-6.231l7.974-16.776a5.89 5.89 0 0 1 5.338-3.391M8.502 24.961a5.91 5.91 0 0 1 7.7 3.269c.316.787.77 1.558 1.33 2.296l.008.008.268.34c.024.033.048.057.073.09l.072.089c.041.04.073.09.114.13q.014.012.016.024l-.016-.024c.154.186.325.365.495.543.008.008.008.017.016.017.56.584 1.185 1.135 1.858 1.646.316.244.64.47.973.698.033.016.057.04.09.057 1.874 1.233 4.023 2.158 6.165 2.612.908.195 1.817.3 2.701.308h.114a15 15 0 0 0 3.504-.422l5.135 10.806c-2.774.933-5.686 1.444-8.64 1.444-2.66 0-5.353-.463-7.965-1.298l-2.458 5.167a5.91 5.91 0 0 1-8.12 2.677c-2.824-1.5-3.854-5.037-2.483-7.925l2.693-5.663c-3.042-2.571-5.467-5.694-6.87-9.085l-.041-.106a5.923 5.923 0 0 1 3.269-7.698" clip-rule="evenodd"/><path fill="#fff" fill-rule="evenodd" d="M30.852 10.375a5.92 5.92 0 0 1 5.338 3.375L44.01 30.2s0 .008-.008.008c0 0 0-.008.008-.008 1.833-2.247 3.164-4.891 3.732-7.73.64-3.205 3.756-5.274 6.96-4.64a5.914 5.914 0 0 1 4.64 6.96c-1.314 6.562-4.98 12.427-9.946 16.735l2.84 5.97c1.573 3.31-.073 7.358-3.562 8.397l-.105.032a5.9 5.9 0 0 1-1.574.219 5.92 5.92 0 0 1-5.346-3.375l-2.523-5.305-5.135-10.806-2.523-5.305a.674.674 0 0 0-1.216 0l-2.58 5.42c-3.934-.837-7.893-3.27-10.132-6.231l7.974-16.776a5.89 5.89 0 0 1 5.338-3.391M8.502 24.961a5.91 5.91 0 0 1 7.7 3.269c.316.787.77 1.558 1.33 2.296l.008.008.268.34c.024.033.048.057.073.09l.072.089c.041.04.073.09.114.13q.014.012.016.024l-.016-.024c.154.186.325.365.495.543.008.008.008.017.016.017.56.584 1.185 1.135 1.858 1.646.316.244.64.47.973.698.033.016.057.04.09.057 1.874 1.233 4.023 2.158 6.165 2.612.908.195 1.817.3 2.701.308h.114a15 15 0 0 0 3.504-.422l5.135 10.806c-2.774.933-5.686 1.444-8.64 1.444-2.66 0-5.353-.463-7.965-1.298l-2.458 5.167a5.91 5.91 0 0 1-8.12 2.677c-2.824-1.5-3.854-5.037-2.483-7.925l2.693-5.663c-3.042-2.571-5.467-5.694-6.87-9.085l-.041-.106a5.923 5.923 0 0 1 3.269-7.698" clip-rule="evenodd"/><path stroke="#fff" stroke-linejoin="round" stroke-width="5.716" d="M44.01 30.201 36.19 13.75a5.92 5.92 0 0 0-5.338-3.375 5.88 5.88 0 0 0-5.338 3.39L17.54 30.543c2.239 2.96 6.198 5.395 10.132 6.23l2.58-5.419a.674.674 0 0 1 1.216 0l2.523 5.305m10.019-6.457s0 .008-.008.008c0 0 0-.008.008-.008Zm0 0c1.833-2.247 3.164-4.891 3.732-7.73.64-3.205 3.756-5.274 6.96-4.64a5.914 5.914 0 0 1 4.64 6.96c-1.314 6.562-4.98 12.427-9.946 16.735l2.84 5.97c1.573 3.31-.073 7.358-3.562 8.397l-.105.032a5.9 5.9 0 0 1-1.574.219 5.92 5.92 0 0 1-5.346-3.375l-2.523-5.305-5.135-10.806m0 0h.017m-15.94-5.475c-.042-.04-.074-.09-.115-.13l-.072-.09c-.025-.032-.05-.056-.073-.088l-.268-.341-.008-.008a10 10 0 0 1-1.33-2.296 5.91 5.91 0 0 0-7.7-3.27 5.923 5.923 0 0 0-3.268 7.7l.04.105c1.404 3.39 3.83 6.514 6.871 9.085l-2.693 5.663c-1.371 2.888-.34 6.425 2.482 7.925a5.91 5.91 0 0 0 8.12-2.677l2.459-5.167c2.612.835 5.305 1.298 7.966 1.298 2.953 0 5.865-.511 8.64-1.444l-5.136-10.806a15 15 0 0 1-3.504.422h-.114a13.5 13.5 0 0 1-2.701-.308c-2.142-.454-4.292-1.38-6.166-2.612-.032-.017-.056-.04-.089-.057a21 21 0 0 1-.973-.698 16 16 0 0 1-1.858-1.647c-.008 0-.008-.008-.016-.016-.17-.178-.34-.357-.495-.543Zm0 0c.007.008.015.016.015.024z"/><path fill="#1A007F" fill-rule="evenodd" d="m22.512 47.594 5.151-10.838c-3.934-.836-7.893-3.27-10.132-6.23L12.145 41.85a30.6 30.6 0 0 0 10.367 5.743" clip-rule="evenodd"/><path fill="#4E000A" fill-rule="evenodd" d="M44.01 30.201c-2.588 3.172-6.181 5.525-10.027 6.441l5.135 10.806c3.748-1.266 7.253-3.31 10.279-5.93z" clip-rule="evenodd"/><path fill="#1A007F" fill-rule="evenodd" d="m12.145 41.85-2.693 5.662c-1.371 2.88-.341 6.425 2.482 7.926a5.92 5.92 0 0 0 8.12-2.678l2.458-5.167a30.7 30.7 0 0 1-10.367-5.743" clip-rule="evenodd"/><path fill="#FF9396" fill-rule="evenodd" d="M54.702 17.839a5.915 5.915 0 0 0-6.96 4.64c-.569 2.84-1.899 5.484-3.732 7.73l5.378 11.326c4.965-4.308 8.632-10.173 9.946-16.736.64-3.212-1.436-6.328-4.632-6.96" clip-rule="evenodd"/><path fill="#002DC8" fill-rule="evenodd" d="M33.983 36.643a15 15 0 0 1-3.504.422 13.5 13.5 0 0 1-2.815-.309c-3.935-.835-7.893-3.269-10.132-6.23a10 10 0 0 1-1.33-2.296 5.923 5.923 0 0 0-7.7-3.269 5.923 5.923 0 0 0-3.268 7.699c1.387 3.44 3.837 6.595 6.911 9.19a30.7 30.7 0 0 0 10.36 5.744c2.604.836 5.305 1.298 7.966 1.298 2.952 0 5.865-.511 8.64-1.444z" clip-rule="evenodd"/><path fill="#FF536A" fill-rule="evenodd" d="m52.228 47.488-2.84-5.97L44.01 30.2l-.008.008s0-.008.008-.008L36.19 13.75a5.92 5.92 0 0 0-5.338-3.375 5.92 5.92 0 0 0-5.338 3.375L17.54 30.526c2.239 2.96 6.198 5.394 10.132 6.23l2.58-5.42a.675.675 0 0 1 1.217 0l2.523 5.306 5.135 10.806 2.523 5.305a5.905 5.905 0 0 0 6.92 3.156c3.56-.982 5.248-5.078 3.658-8.42" clip-rule="evenodd"/><path fill="#1A007F" fill-rule="evenodd" d="m22.512 47.594 5.151-10.838c-3.934-.836-7.893-3.27-10.132-6.23L12.145 41.85a30.6 30.6 0 0 0 10.367 5.743" clip-rule="evenodd"/><path fill="#4E000A" fill-rule="evenodd" d="M44.01 30.201c-2.588 3.172-6.181 5.525-10.027 6.441l5.135 10.806c3.748-1.266 7.253-3.31 10.279-5.93z" clip-rule="evenodd"/><path fill="#1A007F" fill-rule="evenodd" d="m12.145 41.85-2.693 5.662c-1.371 2.88-.341 6.425 2.482 7.926a5.92 5.92 0 0 0 8.12-2.678l2.458-5.167a30.7 30.7 0 0 1-10.367-5.743" clip-rule="evenodd"/><path fill="#FF9396" fill-rule="evenodd" d="M54.702 17.839a5.915 5.915 0 0 0-6.96 4.64c-.569 2.84-1.899 5.484-3.732 7.73l5.378 11.326c4.965-4.308 8.632-10.173 9.946-16.736.64-3.212-1.436-6.328-4.632-6.96" clip-rule="evenodd"/><path fill="#002DC8" fill-rule="evenodd" d="M33.983 36.643a15 15 0 0 1-3.504.422 13.5 13.5 0 0 1-2.815-.309c-3.935-.835-7.893-3.269-10.132-6.23a10 10 0 0 1-1.33-2.296 5.923 5.923 0 0 0-7.7-3.269 5.923 5.923 0 0 0-3.268 7.699c1.387 3.44 3.837 6.595 6.911 9.19a30.7 30.7 0 0 0 10.36 5.744c2.604.836 5.305 1.298 7.966 1.298 2.952 0 5.865-.511 8.64-1.444z" clip-rule="evenodd"/><path fill="#FF536A" fill-rule="evenodd" d="m52.228 47.488-2.84-5.97L44.01 30.2l-.008.008s0-.008.008-.008L36.19 13.75a5.92 5.92 0 0 0-5.338-3.375 5.92 5.92 0 0 0-5.338 3.375L17.54 30.526c2.239 2.96 6.198 5.394 10.132 6.23l2.58-5.42a.675.675 0 0 1 1.217 0l2.523 5.306 5.135 10.806 2.523 5.305a5.905 5.905 0 0 0 6.92 3.156c3.56-.982 5.248-5.078 3.658-8.42" clip-rule="evenodd"/></svg>