<svg xmlns="http://www.w3.org/2000/svg" width="57" height="67" fill="none" viewBox="0 0 57 67"><g clip-path="url(#clip0_871_2827)"><path fill="url(#paint0_linear_871_2827)" d="M56.713 21.52 54.66 15.95l1.43-3.196a1.1 1.1 0 0 0-.221-1.218l-3.884-3.921a6.26 6.26 0 0 0-6.526-1.515l-1.064.375L38.47.056 28.357 0 18.242.08l-5.918 6.47-1.054-.373a6.28 6.28 0 0 0-6.568 1.528L.73 11.7a.87.87 0 0 0-.176.97l1.49 3.322L0 21.558l7.337 27.898a11.65 11.65 0 0 0 4.509 6.527l14.51 9.834a3.214 3.214 0 0 0 4.014 0l14.503-9.849a11.55 11.55 0 0 0 4.5-6.526l5.986-22.886z"/><path fill="#fff" d="M30.014 41.23a8.5 8.5 0 0 0-1.184-.428h-.713q-.608.171-1.184.428l-1.794.746-2.027.933-3.3 1.72a.628.628 0 0 0-.08 1.17l2.866 2.012q.91.651 1.76 1.398l.807.696 1.69 1.477.764.675a1.32 1.32 0 0 0 1.683 0l3.299-2.881 1.767-1.4 2.866-2.051a.624.624 0 0 0-.088-1.16L33.85 42.9l-2.039-.934zm20.32-18.466.105-.3a8 8 0 0 0-.074-1.192 9.6 9.6 0 0 0-1.064-2.006l-1.865-2.736-1.328-1.804-2.498-3.118a9 9 0 0 0-.74-.867h-.053l-1.11.206-5.492 1.057a4.4 4.4 0 0 1-1.635-.239l-3.016-.974-2.158-.597a9 9 0 0 0-1.906 0l-2.163.603-3.016.98a4.4 4.4 0 0 1-1.636.239l-5.486-1.04-1.11-.205h-.051a9 9 0 0 0-.74.867l-2.495 3.118a30 30 0 0 0-1.318 1.803l-1.87 2.737-.88 1.47a6.6 6.6 0 0 0-.253 1.734l.104.299q.068.287.17.564l1.473 1.689 6.526 6.937a1.86 1.86 0 0 1 .331 1.863l-1.095 2.528a3.28 3.28 0 0 0-.05 2.08l.212.586c.351.954.952 1.796 1.74 2.438l1.025.835a1.95 1.95 0 0 0 1.865.224l3.646-1.745a9.2 9.2 0 0 0 1.868-1.232l2.918-2.634a1.17 1.17 0 0 0 .065-1.678l-6.595-4.437a1.276 1.276 0 0 1-.401-1.618l2.554-4.8a2.5 2.5 0 0 0 .13-1.907 2.9 2.9 0 0 0-1.454-1.314l-8.009-3.014c-.577-.208-.546-.468.066-.504l4.704-.466a7.3 7.3 0 0 1 2.196.194l4.092 1.144a1.25 1.25 0 0 1 .876 1.398l-1.607 8.784a4.5 4.5 0 0 0-.08 1.483c.066.21.615.468 1.217.614l2.493.52a6 6 0 0 0 2.19 0l2.243-.52c.603-.13 1.146-.42 1.215-.63a4.5 4.5 0 0 0-.082-1.48l-1.617-8.783a1.255 1.255 0 0 1 .875-1.398l4.093-1.147a7.3 7.3 0 0 1 2.196-.195l4.703.438c.616.057.65.286.07.504l-8.007 3.031a2.87 2.87 0 0 0-1.45 1.315 2.5 2.5 0 0 0 .13 1.906l2.558 4.801a1.28 1.28 0 0 1-.4 1.62l-6.582 4.448a1.17 1.17 0 0 0 .041 1.66l.02.018 2.922 2.634c.57.484 1.196.897 1.865 1.23l3.645 1.735a1.93 1.93 0 0 0 1.864-.229l1.026-.838a5.66 5.66 0 0 0 1.739-2.442l.214-.588c.209-.68.19-1.41-.05-2.078l-1.074-2.533a1.87 1.87 0 0 1 .331-1.864L48.667 25l1.468-1.69q.117-.267.2-.55z"/></g><defs><linearGradient id="paint0_linear_871_2827" x1="-.004" x2="56.759" y1="33.174" y2="33.174" gradientUnits="userSpaceOnUse"><stop stop-color="#F1562B"/><stop offset=".3" stop-color="#F1542B"/><stop offset=".41" stop-color="#F04D2A"/><stop offset=".49" stop-color="#EF4229"/><stop offset=".5" stop-color="#EF4029"/><stop offset=".56" stop-color="#E83E28"/><stop offset=".67" stop-color="#E13C26"/><stop offset="1" stop-color="#DF3C26"/></linearGradient><clipPath id="clip0_871_2827"><path fill="#fff" d="M0 0h56.713v66.52H0z"/></clipPath></defs></svg>