<svg xmlns="http://www.w3.org/2000/svg" width="67" height="67" fill="none" viewBox="0 0 67 67"><g clip-path="url(#clip0_871_2680)"><mask id="mask0_871_2680" width="67" height="67" x="0" y="0" maskUnits="userSpaceOnUse" style="mask-type:luminance"><path fill="#fff" d="M33.26 66.516c18.369 0 33.26-14.89 33.26-33.258S51.629 0 33.26 0 0 14.89 0 33.258s14.891 33.258 33.26 33.258"/></mask><g mask="url(#mask0_871_2680)"><path fill="#DB4437" d="M5.28 0v40.817h14.888L33.26 18.14h33.26V0z"/><path fill="url(#paint0_linear_871_2680)" d="M5.28 0v40.817h14.888L33.26 18.14h33.26V0z"/></g><mask id="mask1_871_2680" width="67" height="67" x="0" y="0" maskUnits="userSpaceOnUse" style="mask-type:luminance"><path fill="#fff" d="M33.26 66.516c18.369 0 33.26-14.89 33.26-33.258S51.629 0 33.26 0 0 14.89 0 33.258s14.891 33.258 33.26 33.258"/></mask><g mask="url(#mask1_871_2680)"><path fill="#3E2723" fill-opacity=".15" d="M20.527 40.683 5.473 14.866l-.22.378 14.945 25.624z"/></g><mask id="mask2_871_2680" width="67" height="67" x="0" y="0" maskUnits="userSpaceOnUse" style="mask-type:luminance"><path fill="#fff" d="M33.26 66.516c18.369 0 33.26-14.89 33.26-33.258S51.629 0 33.26 0 0 14.89 0 33.258s14.891 33.258 33.26 33.258"/></mask><g mask="url(#mask2_871_2680)"><path fill="#0F9D58" d="M0 66.516h31.661L46.356 51.82V40.816H20.168L0 6.228z"/><path fill="url(#paint1_linear_871_2680)" d="M0 66.516h31.661L46.356 51.82V40.816H20.168L0 6.228z"/></g><mask id="mask3_871_2680" width="67" height="67" x="0" y="0" maskUnits="userSpaceOnUse" style="mask-type:luminance"><path fill="#fff" d="M33.26 66.516c18.369 0 33.26-14.89 33.26-33.258S51.629 0 33.26 0 0 14.89 0 33.258s14.891 33.258 33.26 33.258"/></mask><g mask="url(#mask3_871_2680)"><path fill="#263238" fill-opacity=".15" d="m46.05 41.32-.313-.182-14.51 25.378h.435l14.4-25.186z"/></g><mask id="mask4_871_2680" width="67" height="67" x="0" y="0" maskUnits="userSpaceOnUse" style="mask-type:luminance"><path fill="#fff" d="M33.26 66.516c18.369 0 33.26-14.89 33.26-33.258S51.629 0 33.26 0 0 14.89 0 33.258s14.891 33.258 33.26 33.258"/></mask><g mask="url(#mask4_871_2680)"><mask id="mask5_871_2680" width="47" height="61" x="0" y="6" maskUnits="userSpaceOnUse" style="mask-type:luminance"><path fill="#fff" d="M0 66.516h31.661L46.356 51.82V40.816H20.168L0 6.228z"/></mask><g mask="url(#mask5_871_2680)"><path fill="#FFCD40" d="m33.26 18.139 13.096 22.676-14.695 25.7H66.52V18.138z"/><path fill="url(#paint2_linear_871_2680)" d="m33.26 18.139 13.096 22.676-14.695 25.7H66.52V18.138z"/></g></g><mask id="mask6_871_2680" width="67" height="67" x="0" y="0" maskUnits="userSpaceOnUse" style="mask-type:luminance"><path fill="#fff" d="M33.26 66.516c18.369 0 33.26-14.89 33.26-33.258S51.629 0 33.26 0 0 14.89 0 33.258s14.891 33.258 33.26 33.258"/></mask><g mask="url(#mask6_871_2680)"><path fill="#FFCD40" d="m33.26 18.14 13.096 22.676-14.695 25.7H66.52V18.14z"/><path fill="url(#paint3_linear_871_2680)" d="m33.26 18.14 13.096 22.676-14.695 25.7H66.52V18.14z"/></g><mask id="mask7_871_2680" width="67" height="67" x="0" y="0" maskUnits="userSpaceOnUse" style="mask-type:luminance"><path fill="#fff" d="M33.26 66.516c18.369 0 33.26-14.89 33.26-33.258S51.629 0 33.26 0 0 14.89 0 33.258s14.891 33.258 33.26 33.258"/></mask><g mask="url(#mask7_871_2680)"><mask id="mask8_871_2680" width="36" height="49" x="31" y="18" maskUnits="userSpaceOnUse" style="mask-type:luminance"><path fill="#fff" d="m33.26 18.14 13.096 22.676-14.695 25.7H66.52V18.14z"/></mask><g mask="url(#mask8_871_2680)"><path fill="#DB4437" d="M5.28 0v40.817h14.888L33.26 18.14h33.26V0z"/><path fill="url(#paint4_linear_871_2680)" d="M5.28 0v40.817h14.888L33.26 18.14h33.26V0z"/></g></g><mask id="mask9_871_2680" width="67" height="67" x="0" y="0" maskUnits="userSpaceOnUse" style="mask-type:luminance"><path fill="#fff" d="M33.26 66.516c18.369 0 33.26-14.89 33.26-33.258S51.629 0 33.26 0 0 14.89 0 33.258s14.891 33.258 33.26 33.258"/></mask><g mask="url(#mask9_871_2680)"><path fill="url(#paint5_radial_871_2680)" d="M33.26 18.14v7.917l29.632-7.917z"/></g><mask id="mask10_871_2680" width="67" height="67" x="0" y="0" maskUnits="userSpaceOnUse" style="mask-type:luminance"><path fill="#fff" d="M33.26 66.516c18.369 0 33.26-14.89 33.26-33.258S51.629 0 33.26 0 0 14.89 0 33.258s14.891 33.258 33.26 33.258"/></mask><g mask="url(#mask10_871_2680)"><mask id="mask11_871_2680" width="62" height="41" x="5" y="0" maskUnits="userSpaceOnUse" style="mask-type:luminance"><path fill="#fff" d="M5.28 0v15.246l14.888 25.57L33.26 18.142h33.26V0z"/></mask><g mask="url(#mask11_871_2680)"><path fill="#0F9D58" d="M0 66.516h31.661L46.356 51.82V40.816H20.168L0 6.228z"/><path fill="url(#paint6_linear_871_2680)" d="M0 66.516h31.661L46.356 51.82V40.816H20.168L0 6.228z"/></g></g><mask id="mask12_871_2680" width="67" height="67" x="0" y="0" maskUnits="userSpaceOnUse" style="mask-type:luminance"><path fill="#fff" d="M33.26 66.516c18.369 0 33.26-14.89 33.26-33.258S51.629 0 33.26 0 0 14.89 0 33.258s14.891 33.258 33.26 33.258"/></mask><g mask="url(#mask12_871_2680)"><path fill="url(#paint7_radial_871_2680)" d="M5.28 15.287 26.918 36.92l-6.75 3.896z"/></g><mask id="mask13_871_2680" width="67" height="67" x="0" y="0" maskUnits="userSpaceOnUse" style="mask-type:luminance"><path fill="#fff" d="M33.26 66.516c18.369 0 33.26-14.89 33.26-33.258S51.629 0 33.26 0 0 14.89 0 33.258s14.891 33.258 33.26 33.258"/></mask><g mask="url(#mask13_871_2680)"><path fill="url(#paint8_radial_871_2680)" d="m31.685 66.474 7.921-29.554 6.75 3.896z"/></g><mask id="mask14_871_2680" width="67" height="67" x="0" y="0" maskUnits="userSpaceOnUse" style="mask-type:luminance"><path fill="#fff" d="M33.26 66.516c18.369 0 33.26-14.89 33.26-33.258S51.629 0 33.26 0 0 14.89 0 33.258s14.891 33.258 33.26 33.258"/></mask><g mask="url(#mask14_871_2680)"><path fill="#F1F1F1" d="M33.26 48.374c8.35 0 15.118-6.768 15.118-15.117S41.609 18.14 33.26 18.14s-15.118 6.768-15.118 15.117S24.91 48.374 33.26 48.374"/><path fill="#4285F4" d="M33.26 45.352c6.68 0 12.094-5.415 12.094-12.094 0-6.68-5.415-12.094-12.094-12.094-6.68 0-12.095 5.415-12.095 12.094 0 6.68 5.415 12.094 12.095 12.094"/></g><mask id="mask15_871_2680" width="67" height="67" x="0" y="0" maskUnits="userSpaceOnUse" style="mask-type:luminance"><path fill="#fff" d="M33.26 66.516c18.369 0 33.26-14.89 33.26-33.258S51.629 0 33.26 0 0 14.89 0 33.258s14.891 33.258 33.26 33.258"/></mask><g mask="url(#mask15_871_2680)"><path fill="#3E2723" fill-opacity=".2" d="M33.26 17.762c-8.35 0-15.118 6.768-15.118 15.117v.378c0-8.349 6.769-15.117 15.118-15.117h33.26v-.378z"/><path fill="#fff" fill-opacity=".1" d="M46.337 40.816c-2.615 4.512-7.487 7.559-13.077 7.559-5.594 0-10.466-3.047-13.081-7.559h-.015L0 6.228v.377l20.168 34.589h.015c2.615 4.512 7.487 7.559 13.08 7.559 5.59 0 10.463-3.043 13.078-7.56h.019v-.377z"/><path fill="#3E2723" d="M33.638 18.139c-.064 0-.124.007-.189.011 8.262.102 14.93 6.822 14.93 15.106S41.71 48.26 33.448 48.362c.065 0 .125.011.19.011 8.348 0 15.117-6.768 15.117-15.117s-6.769-15.117-15.118-15.117" opacity=".1"/><path fill="#fff" fill-opacity=".2" d="M46.488 41.318a15.065 15.065 0 0 0 1.323-12.113c.36 1.293.567 2.65.567 4.055 0 2.752-.745 5.322-2.03 7.544l.008.015-14.695 25.7h.439l14.396-25.186z"/></g><mask id="mask16_871_2680" width="67" height="67" x="0" y="0" maskUnits="userSpaceOnUse" style="mask-type:luminance"><path fill="#fff" d="M33.26 66.516c18.369 0 33.26-14.89 33.26-33.258S51.629 0 33.26 0 0 14.89 0 33.258s14.891 33.258 33.26 33.258"/></mask><g mask="url(#mask16_871_2680)"><path fill="#fff" fill-opacity=".2" d="M33.26.378c18.304 0 33.154 14.789 33.256 33.07 0-.065.004-.126.004-.19C66.52 14.891 51.629 0 33.26 0S0 14.89 0 33.258c0 .064.004.125.004.19C.106 15.166 14.956.377 33.26.377"/><path fill="#3E2723" fill-opacity=".15" d="M33.26 66.139c18.304 0 33.154-14.789 33.256-33.07 0 .065.004.125.004.19 0 18.367-14.891 33.257-33.26 33.257S0 51.626 0 33.258c0-.064.004-.124.004-.189C.106 51.35 14.956 66.14 33.26 66.14"/></g><path fill="url(#paint9_radial_871_2680)" d="M33.26 66.516c18.369 0 33.26-14.89 33.26-33.258S51.629 0 33.26 0 0 14.89 0 33.258s14.891 33.258 33.26 33.258"/></g><defs><linearGradient id="paint0_linear_871_2680" x1="8.065" x2="27.907" y1="25.329" y2="13.738" gradientUnits="userSpaceOnUse"><stop stop-color="#A52714" stop-opacity=".6"/><stop offset=".66" stop-color="#A52714" stop-opacity="0"/></linearGradient><linearGradient id="paint1_linear_871_2680" x1="38.881" x2="16.834" y1="59.144" y2="46.23" gradientUnits="userSpaceOnUse"><stop stop-color="#055524" stop-opacity=".4"/><stop offset=".33" stop-color="#055524" stop-opacity="0"/></linearGradient><linearGradient id="paint2_linear_871_2680" x1="43.033" x2="48.584" y1="15.797" y2="40.108" gradientUnits="userSpaceOnUse"><stop stop-color="#EA6100" stop-opacity=".3"/><stop offset=".66" stop-color="#EA6100" stop-opacity="0"/></linearGradient><linearGradient id="paint3_linear_871_2680" x1="43.033" x2="48.584" y1="15.798" y2="40.109" gradientUnits="userSpaceOnUse"><stop stop-color="#EA6100" stop-opacity=".3"/><stop offset=".66" stop-color="#EA6100" stop-opacity="0"/></linearGradient><linearGradient id="paint4_linear_871_2680" x1="8.065" x2="27.907" y1="25.329" y2="13.738" gradientUnits="userSpaceOnUse"><stop stop-color="#A52714" stop-opacity=".6"/><stop offset=".66" stop-color="#A52714" stop-opacity="0"/></linearGradient><linearGradient id="paint6_linear_871_2680" x1="38.881" x2="16.834" y1="59.144" y2="46.23" gradientUnits="userSpaceOnUse"><stop stop-color="#055524" stop-opacity=".4"/><stop offset=".33" stop-color="#055524" stop-opacity="0"/></linearGradient><radialGradient id="paint5_radial_871_2680" cx="0" cy="0" r="1" gradientTransform="matrix(31.7777 0 0 31.7759 31.815 18.12)" gradientUnits="userSpaceOnUse"><stop stop-color="#3E2723" stop-opacity=".2"/><stop offset="1" stop-color="#3E2723" stop-opacity="0"/></radialGradient><radialGradient id="paint7_radial_871_2680" cx="0" cy="0" r="1" gradientTransform="matrix(29.4971 0 0 29.4954 5.244 15.314)" gradientUnits="userSpaceOnUse"><stop stop-color="#3E2723" stop-opacity=".2"/><stop offset="1" stop-color="#3E2723" stop-opacity="0"/></radialGradient><radialGradient id="paint8_radial_871_2680" cx="0" cy="0" r="1" gradientTransform="matrix(33.2109 0 0 33.209 33.202 33.31)" gradientUnits="userSpaceOnUse"><stop stop-color="#263238" stop-opacity=".2"/><stop offset="1" stop-color="#263238" stop-opacity="0"/></radialGradient><radialGradient id="paint9_radial_871_2680" cx="0" cy="0" r="1" gradientTransform="matrix(66.802 0 0 66.7982 9.935 9.076)" gradientUnits="userSpaceOnUse"><stop stop-color="#fff" stop-opacity=".1"/><stop offset="1" stop-color="#fff" stop-opacity="0"/></radialGradient><clipPath id="clip0_871_2680"><path fill="#fff" d="M0 0h66.52v66.52H0z"/></clipPath></defs></svg>