<svg xmlns="http://www.w3.org/2000/svg" width="67" height="67" fill="none" viewBox="0 0 67 67"><g clip-path="url(#clip0_871_2786)"><path fill="url(#paint0_linear_871_2786)" d="M60.05 49.5q-1.34.697-2.754 1.221a26.5 26.5 0 0 1-9.329 1.664c-12.29 0-22.996-8.445-22.996-19.307a8.19 8.19 0 0 1 4.262-7.094c-11.122.468-13.98 12.057-13.98 18.84 0 19.228 17.695 21.15 21.515 21.15 2.053 0 5.145-.597 7.016-1.195l.338-.104a33.34 33.34 0 0 0 17.305-13.72A1.04 1.04 0 0 0 60.05 49.5"/><path fill="url(#paint1_radial_871_2786)" d="M60.05 49.5q-1.34.697-2.754 1.221a26.5 26.5 0 0 1-9.329 1.664c-12.29 0-22.996-8.445-22.996-19.307a8.19 8.19 0 0 1 4.262-7.094c-11.122.468-13.98 12.057-13.98 18.84 0 19.228 17.695 21.15 21.515 21.15 2.053 0 5.145-.597 7.016-1.195l.338-.104a33.34 33.34 0 0 0 17.305-13.72A1.04 1.04 0 0 0 60.05 49.5" opacity=".35"/><path fill="url(#paint2_linear_871_2786)" d="M27.464 62.7a20.6 20.6 0 0 1-5.898-5.535 20.97 20.97 0 0 1 7.665-31.181c.832-.39 2.209-1.065 4.054-1.04a8.42 8.42 0 0 1 6.678 3.379 8.3 8.3 0 0 1 1.637 4.859c0-.052 6.366-20.684-20.788-20.684-11.407 0-20.787 10.81-20.787 20.32a33.8 33.8 0 0 0 3.144 14.551 33.26 33.26 0 0 0 40.64 17.41 19.62 19.62 0 0 1-16.319-2.08z"/><path fill="url(#paint3_radial_871_2786)" d="M27.464 62.7a20.6 20.6 0 0 1-5.898-5.535 20.97 20.97 0 0 1 7.665-31.181c.832-.39 2.209-1.065 4.054-1.04a8.42 8.42 0 0 1 6.678 3.379 8.3 8.3 0 0 1 1.637 4.859c0-.052 6.366-20.684-20.788-20.684-11.407 0-20.787 10.81-20.787 20.32a33.8 33.8 0 0 0 3.144 14.551 33.26 33.26 0 0 0 40.64 17.41 19.62 19.62 0 0 1-16.319-2.08z" opacity=".41"/><path fill="url(#paint4_radial_871_2786)" d="M39.6 38.665c-.234.26-.883.65-.883 1.455 0 .675.441 1.351 1.247 1.897 3.716 2.598 10.758 2.234 10.784 2.234a15.5 15.5 0 0 0 7.873-2.156 15.95 15.95 0 0 0 7.899-13.746c.078-5.82-2.079-9.692-2.936-11.407C58.049 6.184 46.174 0 33.26 0A33.26 33.26 0 0 0 0 32.792c.13-9.484 9.562-17.15 20.788-17.15.909 0 6.106.079 10.913 2.599a18.86 18.86 0 0 1 8.03 7.614c1.584 2.754 1.87 6.262 1.87 7.665s-.702 3.456-2.027 5.17z"/><path fill="url(#paint5_radial_871_2786)" d="M39.6 38.665c-.234.26-.883.65-.883 1.455 0 .675.441 1.351 1.247 1.897 3.716 2.598 10.758 2.234 10.784 2.234a15.5 15.5 0 0 0 7.873-2.156 15.95 15.95 0 0 0 7.899-13.746c.078-5.82-2.079-9.692-2.936-11.407C58.049 6.184 46.174 0 33.26 0A33.26 33.26 0 0 0 0 32.792c.13-9.484 9.562-17.15 20.788-17.15.909 0 6.106.079 10.913 2.599a18.86 18.86 0 0 1 8.03 7.614c1.584 2.754 1.87 6.262 1.87 7.665s-.702 3.456-2.027 5.17z"/></g><defs><radialGradient id="paint1_radial_871_2786" cx="0" cy="0" r="1" gradientTransform="matrix(24.7891 0 0 23.5496 40.848 46.342)" gradientUnits="userSpaceOnUse"><stop offset=".7" stop-opacity="0"/><stop offset=".9" stop-opacity=".5"/><stop offset="1"/></radialGradient><radialGradient id="paint3_radial_871_2786" cx="0" cy="0" r="1" gradientTransform="matrix(5.58145 -36.8375 -29.7677 -4.46516 18.332 51.692)" gradientUnits="userSpaceOnUse"><stop offset=".8" stop-opacity="0"/><stop offset=".9" stop-opacity=".5"/><stop offset="1"/></radialGradient><radialGradient id="paint4_radial_871_2786" cx="0" cy="0" r="1" gradientTransform="matrix(-2.1037 52.5924 112.022 4.20739 6.727 12.295)" gradientUnits="userSpaceOnUse"><stop stop-color="#35C1F1"/><stop offset=".1" stop-color="#34C1ED"/><stop offset=".2" stop-color="#2FC2DF"/><stop offset=".3" stop-color="#2BC3D2"/><stop offset=".7" stop-color="#36C752"/></radialGradient><radialGradient id="paint5_radial_871_2786" cx="0" cy="0" r="1" gradientTransform="matrix(7.07919 24.2715 19.7206 -5.81504 62.378 20.086)" gradientUnits="userSpaceOnUse"><stop stop-color="#66EB6E"/><stop offset="1" stop-color="#66EB6E" stop-opacity="0"/></radialGradient><linearGradient id="paint0_linear_871_2786" x1="15.253" x2="61.609" y1="45.992" y2="45.992" gradientUnits="userSpaceOnUse"><stop stop-color="#0C59A4"/><stop offset="1" stop-color="#114A8B"/></linearGradient><linearGradient id="paint2_linear_871_2786" x1="39.677" x2="10.756" y1="25.88" y2="57.399" gradientUnits="userSpaceOnUse"><stop stop-color="#1B9DE2"/><stop offset=".2" stop-color="#1595DF"/><stop offset=".7" stop-color="#0680D7"/><stop offset="1" stop-color="#0078D4"/></linearGradient><clipPath id="clip0_871_2786"><path fill="#fff" d="M0 0h66.52v66.52H0z"/></clipPath></defs></svg>