<svg xmlns="http://www.w3.org/2000/svg" width="65" height="67" fill="none" viewBox="0 0 65 67"><g clip-path="url(#clip0_871_2772)"><path fill="url(#paint0_linear_871_2772)" d="M62.26 22.269c-1.397-3.364-4.232-6.995-6.453-8.143a33.4 33.4 0 0 1 3.258 9.764l.006.054c-3.637-9.068-9.805-12.724-14.843-20.686q-.39-.61-.758-1.232a10 10 0 0 1-.354-.664 5.9 5.9 0 0 1-.48-1.274.083.083 0 0 0-.073-.083.1.1 0 0 0-.06 0c-.005 0-.011.007-.016.01-.006 0-.016.008-.023.012l.012-.022c-8.08 4.731-10.822 13.49-11.075 17.871a16.1 16.1 0 0 0-8.853 3.412 10 10 0 0 0-.83-.629 14.9 14.9 0 0 1-.09-7.863 23.8 23.8 0 0 0-7.744 5.985h-.015c-1.275-1.616-1.185-6.945-1.112-8.059a5.8 5.8 0 0 0-1.074.57 23.5 23.5 0 0 0-3.144 2.694 28 28 0 0 0-3.008 3.609v.004-.005a27.2 27.2 0 0 0-4.316 9.747l-.043.212a51 51 0 0 0-.316 2.01q-.002.034-.008.07a31 31 0 0 0-.522 4.434v.167c.022 24.765 26.845 40.22 48.282 27.819a32.17 32.17 0 0 0 15.593-22.38c.054-.414.098-.825.147-1.244a33.1 33.1 0 0 0-2.087-16.16M25.184 47.45c.15.073.291.15.445.22l.023.014a17 17 0 0 1-.468-.234m33.89-23.498v-.031l.006.034z"/><path fill="url(#paint1_radial_871_2772)" d="M62.26 22.269c-1.397-3.364-4.232-6.995-6.453-8.143a33.4 33.4 0 0 1 3.258 9.765v.03l.006.034a29.14 29.14 0 0 1-1.001 21.713c-3.687 7.91-12.612 16.02-26.582 15.625C16.394 60.866 3.101 49.665.616 34.995c-.452-2.313 0-3.486.227-5.366a24 24 0 0 0-.517 4.439v.166C.348 59 27.171 74.454 48.608 62.053a32.17 32.17 0 0 0 15.593-22.38c.054-.414.098-.825.147-1.244a33.1 33.1 0 0 0-2.087-16.16"/><path fill="url(#paint2_radial_871_2772)" d="M62.26 22.269c-1.397-3.364-4.232-6.995-6.453-8.143a33.4 33.4 0 0 1 3.258 9.765v.03l.006.034a29.14 29.14 0 0 1-1.001 21.713c-3.687 7.91-12.612 16.02-26.582 15.625C16.394 60.866 3.101 49.665.616 34.995c-.452-2.313 0-3.486.227-5.366a24 24 0 0 0-.517 4.439v.166C.348 59 27.171 74.454 48.608 62.053a32.17 32.17 0 0 0 15.593-22.38c.054-.414.098-.825.147-1.244a33.1 33.1 0 0 0-2.087-16.16"/><path fill="url(#paint3_radial_871_2772)" d="M46.628 26.05q.103.074.2.147A17.5 17.5 0 0 0 43.84 22.3C33.84 12.3 41.22.617 42.464.023l.012-.018c-8.08 4.731-10.822 13.49-11.075 17.87.376-.025.747-.057 1.131-.057a16.24 16.24 0 0 1 14.096 8.232"/><path fill="url(#paint4_radial_871_2772)" d="M32.553 28.047c-.054.8-2.88 3.56-3.87 3.56-9.147 0-10.632 5.534-10.632 5.534.405 4.66 3.652 8.498 7.577 10.528q.27.138.543.26.466.206.945.386c1.347.477 2.758.75 4.186.808 16.034.752 19.14-19.174 7.569-24.956 2.73-.356 5.494.316 7.756 1.883a16.24 16.24 0 0 0-14.095-8.232c-.382 0-.755.032-1.13.058a16.1 16.1 0 0 0-8.854 3.412c.49.415 1.044.97 2.21 2.119 2.183 2.15 7.782 4.379 7.795 4.64"/><path fill="url(#paint5_radial_871_2772)" d="M32.553 28.047c-.054.8-2.88 3.56-3.87 3.56-9.147 0-10.632 5.534-10.632 5.534.405 4.66 3.652 8.498 7.577 10.528q.27.138.543.26.466.206.945.386c1.347.477 2.758.75 4.186.808 16.034.752 19.14-19.174 7.569-24.956 2.73-.356 5.494.316 7.756 1.883a16.24 16.24 0 0 0-14.095-8.232c-.382 0-.755.032-1.13.058a16.1 16.1 0 0 0-8.854 3.412c.49.415 1.044.97 2.21 2.119 2.183 2.15 7.782 4.379 7.795 4.64"/><path fill="url(#paint6_radial_871_2772)" d="M21.049 20.218q.336.215.664.44a14.9 14.9 0 0 1-.09-7.862 23.8 23.8 0 0 0-7.744 5.984c.157-.004 4.824-.088 7.17 1.438"/><path fill="url(#paint7_radial_871_2772)" d="M.62 34.995c2.483 14.67 15.778 25.871 30.873 26.298 13.97.395 22.894-7.714 26.581-15.625a29.14 29.14 0 0 0 1.001-21.712v-.031c0-.024-.005-.038 0-.03l.006.053c1.141 7.451-2.649 14.67-8.574 19.552l-.018.041c-11.544 9.402-22.592 5.673-24.828 4.15a16 16 0 0 1-.469-.233c-6.73-3.217-9.51-9.35-8.915-14.608a8.26 8.26 0 0 1-7.62-4.794 12.13 12.13 0 0 1 11.827-.475 16.02 16.02 0 0 0 12.078.475c-.012-.262-5.61-2.49-7.794-4.64-1.166-1.15-1.72-1.703-2.21-2.119a10 10 0 0 0-.83-.63c-.191-.13-.406-.27-.664-.44-2.346-1.526-7.013-1.442-7.168-1.438h-.014c-1.275-1.616-1.186-6.945-1.113-8.058a5.8 5.8 0 0 0-1.074.57 23.4 23.4 0 0 0-3.144 2.694 28 28 0 0 0-3.02 3.6v.005-.006a27.2 27.2 0 0 0-4.316 9.747c-.016.066-1.159 5.063-.595 7.654"/><path fill="url(#paint8_radial_871_2772)" d="M43.841 22.3A17.5 17.5 0 0 1 46.83 26.2q.25.186.483.395c7.293 6.724 3.472 16.228 3.187 16.904 5.925-4.881 9.711-12.1 8.573-19.552-3.639-9.072-9.807-12.728-14.844-20.69q-.39-.61-.758-1.232a10 10 0 0 1-.354-.664 6 6 0 0 1-.48-1.274.083.083 0 0 0-.073-.083.1.1 0 0 0-.06 0c-.005 0-.012.007-.017.01-.005 0-.015.008-.023.012C41.22.617 33.841 12.3 43.841 22.3"/><path fill="url(#paint9_radial_871_2772)" d="M47.308 26.592a7 7 0 0 0-.483-.395q-.096-.074-.2-.146a11.1 11.1 0 0 0-7.757-1.884c11.571 5.786 8.467 25.708-7.569 24.956a14.3 14.3 0 0 1-4.186-.807q-.477-.18-.944-.387c-.182-.083-.364-.166-.543-.26l.022.015c2.236 1.527 13.281 5.256 24.829-4.15l.018-.042c.288-.672 4.11-10.178-3.187-16.9"/><path fill="url(#paint10_radial_871_2772)" d="M18.05 37.14s1.486-5.533 10.634-5.533c.988 0 3.818-2.76 3.869-3.56a16.02 16.02 0 0 1-12.079-.475 12.13 12.13 0 0 0-11.828.475 8.26 8.26 0 0 0 7.621 4.793c-.596 5.26 2.185 11.393 8.916 14.61.15.072.291.15.445.218-3.928-2.03-7.172-5.867-7.577-10.527"/><path fill="url(#paint11_linear_871_2772)" d="M62.26 22.269c-1.397-3.364-4.232-6.995-6.453-8.143a33.4 33.4 0 0 1 3.258 9.764l.006.054c-3.637-9.068-9.805-12.724-14.843-20.686q-.39-.61-.758-1.232a10 10 0 0 1-.354-.664 5.9 5.9 0 0 1-.48-1.274.083.083 0 0 0-.073-.083.1.1 0 0 0-.06 0c-.005 0-.011.007-.016.01-.006 0-.016.008-.023.012l.012-.022c-8.08 4.731-10.822 13.49-11.075 17.871.376-.026.747-.058 1.13-.058a16.24 16.24 0 0 1 14.097 8.232 11.1 11.1 0 0 0-7.757-1.883c11.57 5.785 8.466 25.708-7.57 24.956a14.3 14.3 0 0 1-4.185-.808q-.478-.18-.945-.386c-.181-.084-.363-.166-.543-.26l.023.015a17 17 0 0 1-.468-.234c.15.073.291.15.445.22-3.928-2.03-7.172-5.869-7.577-10.529 0 0 1.485-5.534 10.633-5.534.988 0 3.818-2.76 3.869-3.56-.013-.261-5.611-2.49-7.794-4.64-1.167-1.15-1.72-1.703-2.21-2.119a10 10 0 0 0-.831-.629 14.9 14.9 0 0 1-.09-7.863 23.8 23.8 0 0 0-7.744 5.985h-.015c-1.275-1.616-1.185-6.945-1.112-8.059a5.8 5.8 0 0 0-1.074.57 23.5 23.5 0 0 0-3.144 2.694 28 28 0 0 0-3.008 3.609v.004-.005a27.2 27.2 0 0 0-4.316 9.747l-.043.212c-.06.283-.332 1.721-.371 2.03 0 .023 0-.024 0 0a37 37 0 0 0-.475 4.484v.167c.022 24.765 26.845 40.22 48.282 27.819a32.17 32.17 0 0 0 15.593-22.38c.054-.414.098-.825.147-1.244a33.1 33.1 0 0 0-2.087-16.16"/></g><defs><radialGradient id="paint1_radial_871_2772" cx="0" cy="0" r="1" gradientTransform="translate(55.536 7.369)scale(67.0651)" gradientUnits="userSpaceOnUse"><stop offset=".129" stop-color="#FFBD4F"/><stop offset=".186" stop-color="#FFAC31"/><stop offset=".247" stop-color="#FF9D17"/><stop offset=".283" stop-color="#FF980E"/><stop offset=".403" stop-color="#FF563B"/><stop offset=".467" stop-color="#FF3750"/><stop offset=".71" stop-color="#F5156C"/><stop offset=".782" stop-color="#EB0878"/><stop offset=".86" stop-color="#E50080"/></radialGradient><radialGradient id="paint2_radial_871_2772" cx="0" cy="0" r="1" gradientTransform="translate(31.03 34.787)scale(67.0651)" gradientUnits="userSpaceOnUse"><stop offset=".3" stop-color="#960E18"/><stop offset=".351" stop-color="#B11927" stop-opacity=".74"/><stop offset=".435" stop-color="#DB293D" stop-opacity=".343"/><stop offset=".497" stop-color="#F5334B" stop-opacity=".094"/><stop offset=".53" stop-color="#FF3750" stop-opacity="0"/></radialGradient><radialGradient id="paint3_radial_871_2772" cx="0" cy="0" r="1" gradientTransform="translate(39.115 -7.851)scale(48.5858)" gradientUnits="userSpaceOnUse"><stop offset=".132" stop-color="#FFF44F"/><stop offset=".252" stop-color="#FFDC3E"/><stop offset=".506" stop-color="#FF9D12"/><stop offset=".526" stop-color="#FF980E"/></radialGradient><radialGradient id="paint4_radial_871_2772" cx="0" cy="0" r="1" gradientTransform="translate(23.611 52.304)scale(31.9326)" gradientUnits="userSpaceOnUse"><stop offset=".353" stop-color="#3A8EE6"/><stop offset=".472" stop-color="#5C79F0"/><stop offset=".669" stop-color="#9059FF"/><stop offset="1" stop-color="#C139E6"/></radialGradient><radialGradient id="paint5_radial_871_2772" cx="0" cy="0" r="1" gradientTransform="matrix(16.4564 -3.97862 4.65585 19.2668 34.705 29.29)" gradientUnits="userSpaceOnUse"><stop offset=".206" stop-color="#9059FF" stop-opacity="0"/><stop offset=".278" stop-color="#8C4FF3" stop-opacity=".064"/><stop offset=".747" stop-color="#7716A8" stop-opacity=".45"/><stop offset=".975" stop-color="#6E008B" stop-opacity=".6"/></radialGradient><radialGradient id="paint6_radial_871_2772" cx="0" cy="0" r="1" gradientTransform="translate(30.184 4.624)scale(22.9723)" gradientUnits="userSpaceOnUse"><stop stop-color="#FFE226"/><stop offset=".121" stop-color="#FFDB27"/><stop offset=".295" stop-color="#FFC82A"/><stop offset=".502" stop-color="#FFA930"/><stop offset=".732" stop-color="#FF7E37"/><stop offset=".792" stop-color="#FF7139"/></radialGradient><radialGradient id="paint7_radial_871_2772" cx="0" cy="0" r="1" gradientTransform="translate(48.24 -9.946)scale(98.0125)" gradientUnits="userSpaceOnUse"><stop offset=".113" stop-color="#FFF44F"/><stop offset=".456" stop-color="#FF980E"/><stop offset=".622" stop-color="#FF5634"/><stop offset=".716" stop-color="#FF3647"/><stop offset=".904" stop-color="#E31587"/></radialGradient><radialGradient id="paint8_radial_871_2772" cx="0" cy="0" r="1" gradientTransform="matrix(7.53872 71.4391 -46.8842 4.95401 39.995 -4.498)" gradientUnits="userSpaceOnUse"><stop stop-color="#FFF44F"/><stop offset=".06" stop-color="#FFE847"/><stop offset=".168" stop-color="#FFC830"/><stop offset=".304" stop-color="#FF980E"/><stop offset=".356" stop-color="#FF8B16"/><stop offset=".455" stop-color="#FF672A"/><stop offset=".57" stop-color="#FF3647"/><stop offset=".737" stop-color="#E31587"/></radialGradient><radialGradient id="paint9_radial_871_2772" cx="0" cy="0" r="1" gradientTransform="translate(29.643 13.133)scale(61.1909)" gradientUnits="userSpaceOnUse"><stop offset=".137" stop-color="#FFF44F"/><stop offset=".48" stop-color="#FF980E"/><stop offset=".592" stop-color="#FF5634"/><stop offset=".655" stop-color="#FF3647"/><stop offset=".904" stop-color="#E31587"/></radialGradient><radialGradient id="paint10_radial_871_2772" cx="0" cy="0" r="1" gradientTransform="translate(45.795 16.715)scale(66.973)" gradientUnits="userSpaceOnUse"><stop offset=".094" stop-color="#FFF44F"/><stop offset=".231" stop-color="#FFE141"/><stop offset=".509" stop-color="#FFAF1E"/><stop offset=".626" stop-color="#FF980E"/></radialGradient><linearGradient id="paint0_linear_871_2772" x1="58.003" x2="4.598" y1="10.284" y2="61.809" gradientUnits="userSpaceOnUse"><stop offset=".048" stop-color="#FFF44F"/><stop offset=".111" stop-color="#FFE847"/><stop offset=".225" stop-color="#FFC830"/><stop offset=".368" stop-color="#FF980E"/><stop offset=".401" stop-color="#FF8B16"/><stop offset=".462" stop-color="#FF672A"/><stop offset=".534" stop-color="#FF3647"/><stop offset=".705" stop-color="#E31587"/></linearGradient><linearGradient id="paint11_linear_871_2772" x1="57.361" x2="11.919" y1="10.009" y2="55.449" gradientUnits="userSpaceOnUse"><stop offset=".167" stop-color="#FFF44F" stop-opacity=".8"/><stop offset=".266" stop-color="#FFF44F" stop-opacity=".634"/><stop offset=".489" stop-color="#FFF44F" stop-opacity=".217"/><stop offset=".6" stop-color="#FFF44F" stop-opacity="0"/></linearGradient><clipPath id="clip0_871_2772"><path fill="#fff" d="M0 0h64.261v66.52H0z"/></clipPath></defs></svg>