<svg xmlns="http://www.w3.org/2000/svg" width="67" height="67" fill="none" viewBox="0 0 67 67"><g clip-path="url(#clip0_871_2794)"><path fill="url(#paint0_linear_871_2794)" d="M22.31 52.005c-3.678-4.343-6.06-10.756-6.219-17.96v-1.57c.16-7.204 2.541-13.617 6.22-17.96C27.087 8.322 34.178 4.39 42.094 4.39c4.87 0 9.432 1.49 13.33 4.078A33.1 33.1 0 0 0 33.387 0h-.126C14.894 0 0 14.894 0 33.26 0 51.1 14.042 65.655 31.677 66.48a33.131 33.131 0 0 0 23.748-8.421c-3.899 2.58-8.455 4.07-13.331 4.07-7.916 0-15.007-3.93-19.783-10.124"/><path fill="url(#paint1_linear_871_2794)" d="M22.31 14.514c3.054-3.605 6.992-5.774 11.302-5.774 9.686 0 17.528 10.976 17.528 24.52s-7.849 24.519-17.528 24.519c-4.304 0-8.248-2.176-11.301-5.774 4.776 6.193 11.867 10.124 19.783 10.124 4.869 0 9.432-1.49 13.33-4.071 6.812-6.093 11.096-14.947 11.096-24.799S62.236 14.554 55.424 8.467C51.526 5.88 46.97 4.39 42.094 4.39c-7.916 0-15.007 3.931-19.783 10.124"/></g><defs><linearGradient id="paint0_linear_871_2794" x1="27.714" x2="27.714" y1="1.085" y2="65.552" gradientUnits="userSpaceOnUse"><stop offset=".3" stop-color="#FF1B2D"/><stop offset=".438" stop-color="#FA1A2C"/><stop offset=".594" stop-color="#ED1528"/><stop offset=".758" stop-color="#D60E21"/><stop offset=".927" stop-color="#B70519"/><stop offset="1" stop-color="#A70014"/></linearGradient><linearGradient id="paint1_linear_871_2794" x1="44.416" x2="44.416" y1="4.884" y2="61.902" gradientUnits="userSpaceOnUse"><stop stop-color="#9C0000"/><stop offset=".7" stop-color="#FF4B4B"/></linearGradient><clipPath id="clip0_871_2794"><path fill="#fff" d="M0 0h66.52v66.52H0z"/></clipPath></defs></svg>