<svg xmlns="http://www.w3.org/2000/svg" width="67" height="67" fill="none" viewBox="0 0 67 67"><g clip-path="url(#clip0_871_2670)"><g filter="url(#filter0_f_871_2670)" opacity=".53"><path fill="#000" d="M63.6 35.703c0 3.858-.785 7.678-2.31 11.241a29.3 29.3 0 0 1-6.576 9.53 30.4 30.4 0 0 1-9.843 6.368 31.2 31.2 0 0 1-11.61 2.236c-3.983 0-7.928-.76-11.61-2.236a30.4 30.4 0 0 1-9.841-6.368 29.3 29.3 0 0 1-6.577-9.53 28.6 28.6 0 0 1-2.31-11.24c0-7.791 3.197-15.263 8.887-20.771 5.689-5.51 13.406-8.604 21.452-8.604 3.984 0 7.929.76 11.61 2.236a30.4 30.4 0 0 1 9.842 6.368 29.3 29.3 0 0 1 6.576 9.53 28.6 28.6 0 0 1 2.31 11.24"/></g><path fill="url(#paint0_linear_871_2670)" stroke="#CDCDCD" stroke-linecap="round" stroke-linejoin="round" stroke-width=".293" d="M64.752 33.109c0 4.158-.814 8.276-2.397 12.118A31.7 31.7 0 0 1 55.528 55.5a31.5 31.5 0 0 1-10.217 6.864 31.3 31.3 0 0 1-12.051 2.41A31.4 31.4 0 0 1 10.99 55.5a31.76 31.76 0 0 1-9.223-22.391 31.76 31.76 0 0 1 9.224-22.392A31.4 31.4 0 0 1 33.26 1.442c4.135 0 8.23.82 12.051 2.41a31.5 31.5 0 0 1 10.217 6.865 31.7 31.7 0 0 1 6.827 10.273 31.8 31.8 0 0 1 2.397 12.119"/><path fill="url(#paint1_radial_871_2670)" d="M62.285 33.11c0 7.74-3.058 15.163-8.502 20.636a28.95 28.95 0 0 1-20.523 8.548 28.95 28.95 0 0 1-20.524-8.548A29.27 29.27 0 0 1 4.234 33.11c0-7.74 3.058-15.164 8.502-20.637A28.95 28.95 0 0 1 33.26 3.925c7.697 0 15.08 3.075 20.523 8.548a29.27 29.27 0 0 1 8.502 20.637"/><path fill="#F4F2F3" d="M33.26 5.445a.423.423 0 0 0-.423.426v4.908a.423.423 0 1 0 .846 0V5.87a.423.423 0 0 0-.423-.426m-2.768.176a.424.424 0 0 0-.463.468l.213 2.053a.423.423 0 1 0 .842-.088L30.87 6a.42.42 0 0 0-.38-.38m5.556.002a.42.42 0 0 0-.38.38l-.214 2.053a.424.424 0 1 0 .842.089l.215-2.054a.424.424 0 0 0-.463-.468m-8.4.413a.425.425 0 0 0-.412.514l1.011 4.801a.422.422 0 1 0 .828-.176l-1.01-4.802a.42.42 0 0 0-.417-.337m11.244.004a.42.42 0 0 0-.417.337l-1.014 4.801a.425.425 0 0 0 .326.505.42.42 0 0 0 .502-.328l1.014-4.801a.425.425 0 0 0-.411-.514m-13.958.765a.425.425 0 0 0-.439.556l.635 1.964c.072.224.31.346.533.273a.425.425 0 0 0 .271-.536L25.3 7.098a.42.42 0 0 0-.366-.293m16.656.001a.42.42 0 0 0-.366.293l-.634 1.963a.425.425 0 0 0 .271.537.42.42 0 0 0 .533-.273l.635-1.964a.425.425 0 0 0-.439-.556m-19.34.987a.426.426 0 0 0-.379.599l1.983 4.485a.42.42 0 0 0 .558.215.425.425 0 0 0 .215-.561l-1.982-4.485a.42.42 0 0 0-.395-.253m22.054.015a.42.42 0 0 0-.394.252l-1.989 4.483a.426.426 0 0 0 .214.562c.215.096.464 0 .56-.216l1.988-4.482a.426.426 0 0 0-.379-.599M19.76 9.118a.426.426 0 0 0-.396.638l1.027 1.788a.42.42 0 0 0 .578.156.426.426 0 0 0 .155-.582L20.096 9.33a.42.42 0 0 0-.337-.212m27.002 0a.42.42 0 0 0-.336.212l-1.027 1.788a.426.426 0 0 0 .155.582c.203.117.46.048.578-.156l1.027-1.788a.426.426 0 0 0-.397-.638M17.34 10.635a.426.426 0 0 0-.328.675l2.866 3.973c.138.191.401.234.591.095a.426.426 0 0 0 .094-.594l-2.866-3.973a.42.42 0 0 0-.357-.176m31.87.022a.42.42 0 0 0-.356.175l-2.872 3.969a.426.426 0 0 0 .093.595c.19.138.454.096.592-.094l2.871-3.969a.426.426 0 0 0-.327-.676m-34.032 1.802a.426.426 0 0 0-.337.71l1.374 1.534a.42.42 0 0 0 .597.032.426.426 0 0 0 .032-.601l-1.374-1.535a.42.42 0 0 0-.292-.14m36.168.003a.42.42 0 0 0-.292.14l-1.374 1.534a.426.426 0 0 0 .031.602.42.42 0 0 0 .598-.032l1.374-1.534a.426.426 0 0 0-.337-.71m-38.24 1.998a.426.426 0 0 0-.26.742l3.626 3.283a.42.42 0 0 0 .598-.031.426.426 0 0 0-.032-.6l-3.627-3.285a.42.42 0 0 0-.306-.109m40.322.015a.42.42 0 0 0-.305.109l-3.63 3.28a.426.426 0 0 0-.032.601.42.42 0 0 0 .598.032l3.63-3.28a.426.426 0 0 0-.26-.742m-42.046 2.213a.426.426 0 0 0-.263.77l1.66 1.214a.42.42 0 0 0 .592-.094.426.426 0 0 0-.094-.595l-1.66-1.213a.42.42 0 0 0-.235-.082m43.768.016a.42.42 0 0 0-.234.081l-1.662 1.212a.426.426 0 0 0-.094.595.42.42 0 0 0 .591.094l1.662-1.212a.426.426 0 0 0-.263-.77M9.771 19.065a.426.426 0 0 0-.182.793l4.228 2.454c.203.118.46.049.578-.155a.426.426 0 0 0-.155-.581l-4.227-2.454a.42.42 0 0 0-.242-.057m46.978 0a.4.4 0 0 0-.241.057l-4.227 2.454a.426.426 0 0 0 .423.736l4.227-2.454a.426.426 0 0 0-.182-.793M8.554 21.6a.426.426 0 0 0-.18.814l1.874.84a.426.426 0 0 0 .345-.777l-1.875-.84a.4.4 0 0 0-.164-.037m49.42.017a.4.4 0 0 0-.163.037l-1.876.84a.426.426 0 0 0 .344.777l1.876-.84a.425.425 0 0 0-.18-.814M7.47 24.246a.425.425 0 0 0-.095.829l4.64 1.52a.425.425 0 0 0 .262-.81l-4.64-1.52a.4.4 0 0 0-.167-.019m51.59.019a.4.4 0 0 0-.168.02L54.249 25.8a.425.425 0 0 0 .262.81l4.642-1.518a.425.425 0 0 0-.095-.828m-52.266 2.76a.42.42 0 0 0-.417.338.425.425 0 0 0 .326.505l2.008.429a.42.42 0 0 0 .502-.328.425.425 0 0 0-.326-.505l-2.008-.429a.4.4 0 0 0-.085-.01m52.936.005a1 1 0 0 0-.085.009l-2.009.429a.424.424 0 0 0-.326.504c.049.23.273.377.502.328l2.008-.429a.425.425 0 0 0-.09-.841M6.281 29.82a.42.42 0 0 0-.38.38.424.424 0 0 0 .377.467l4.854.516a.423.423 0 0 0 .465-.378.424.424 0 0 0-.376-.468l-4.854-.516a.4.4 0 0 0-.086 0m53.963.037a.4.4 0 0 0-.086 0l-4.854.51a.424.424 0 0 0-.377.467.423.423 0 0 0 .465.38l4.854-.51a.424.424 0 0 0 .377-.467.42.42 0 0 0-.379-.38M6.2 32.683a.423.423 0 0 0-.424.426c0 .236.19.425.424.425h2.053c.234 0 .423-.19.423-.425a.424.424 0 0 0-.423-.426zm52.07 0a.423.423 0 0 0-.423.426c0 .236.188.425.423.425h2.053c.234 0 .423-.19.423-.425a.423.423 0 0 0-.423-.426zm-47.054 2.32a.4.4 0 0 0-.086 0l-4.855.51a.424.424 0 0 0-.377.467.423.423 0 0 0 .465.38l4.855-.51a.424.424 0 0 0 .377-.468.42.42 0 0 0-.379-.38m44.088.03a.42.42 0 0 0-.38.379.424.424 0 0 0 .377.468l4.854.516a.423.423 0 0 0 .465-.379.424.424 0 0 0-.376-.468l-4.854-.516a.4.4 0 0 0-.086 0M8.795 37.908a.4.4 0 0 0-.085.009l-2.009.429a.425.425 0 0 0-.326.504c.049.23.273.377.502.328l2.009-.429a.425.425 0 0 0 .326-.504.42.42 0 0 0-.417-.337m48.93.004a.42.42 0 0 0-.416.337.424.424 0 0 0 .325.505l2.009.429c.23.049.453-.097.502-.328a.425.425 0 0 0-.326-.505l-2.009-.429a.4.4 0 0 0-.085-.01m-45.548 1.676a.4.4 0 0 0-.167.02l-4.642 1.516a.425.425 0 0 0 .262.81l4.642-1.517a.425.425 0 0 0-.095-.83m42.162.015a.425.425 0 0 0-.095.829l4.64 1.52a.425.425 0 0 0 .262-.81l-4.64-1.52a.4.4 0 0 0-.167-.02M10.406 42.91a.4.4 0 0 0-.164.037l-1.876.84a.425.425 0 0 0 .344.777l1.876-.84a.426.426 0 0 0-.18-.814m45.702.016a.425.425 0 0 0-.18.814l1.874.841a.425.425 0 0 0 .345-.777l-1.875-.841a.4.4 0 0 0-.164-.037m-42.05.922a.4.4 0 0 0-.241.056L9.59 46.36a.426.426 0 0 0 .423.737l4.227-2.453a.426.426 0 0 0-.182-.794m38.405 0a.426.426 0 0 0-.182.794l4.227 2.453a.426.426 0 0 0 .423-.737l-4.227-2.454a.4.4 0 0 0-.241-.056m-39.46 3.601a.42.42 0 0 0-.233.082l-1.662 1.212a.426.426 0 0 0-.094.594.42.42 0 0 0 .59.095l1.663-1.213a.426.426 0 0 0-.263-.77m40.504.015a.426.426 0 0 0-.263.77l1.66 1.213a.42.42 0 0 0 .592-.094.426.426 0 0 0-.094-.594l-1.66-1.214a.42.42 0 0 0-.235-.081m-36.74.146a.42.42 0 0 0-.305.11L12.832 51a.426.426 0 0 0-.032.601.42.42 0 0 0 .598.032l3.63-3.28a.426.426 0 0 0-.26-.742m32.976.012a.426.426 0 0 0-.261.742l3.628 3.284a.42.42 0 0 0 .598-.032.426.426 0 0 0-.032-.601l-3.628-3.284a.42.42 0 0 0-.305-.109M20.211 50.74a.42.42 0 0 0-.357.175l-2.871 3.97a.426.426 0 0 0 .093.594.42.42 0 0 0 .59-.094l2.872-3.969a.426.426 0 0 0-.327-.676m26.075.018a.426.426 0 0 0-.328.675l2.866 3.973a.42.42 0 0 0 .59.095.426.426 0 0 0 .095-.594l-2.866-3.973a.42.42 0 0 0-.357-.176m-29.782.613a.42.42 0 0 0-.292.14l-1.374 1.535a.426.426 0 0 0 .032.601.42.42 0 0 0 .597-.032l1.374-1.534a.426.426 0 0 0-.337-.71m33.51.002a.426.426 0 0 0-.337.71l1.374 1.535a.42.42 0 0 0 .597.031.426.426 0 0 0 .031-.6l-1.373-1.535a.42.42 0 0 0-.292-.14M24.22 53.075a.42.42 0 0 0-.395.252l-1.988 4.483a.426.426 0 0 0 .214.562c.214.096.463 0 .559-.216l1.988-4.482a.425.425 0 0 0-.378-.599m18.052.012a.426.426 0 0 0-.38.599l1.983 4.485a.42.42 0 0 0 .559.216.425.425 0 0 0 .215-.562l-1.983-4.485a.42.42 0 0 0-.394-.253m-21.547 1.374a.42.42 0 0 0-.336.212l-1.027 1.788a.426.426 0 0 0 .155.581c.203.118.46.049.578-.156l1.027-1.788a.426.426 0 0 0-.397-.637m25.068 0a.426.426 0 0 0-.396.638l1.027 1.787a.42.42 0 0 0 .578.156.426.426 0 0 0 .155-.581l-1.027-1.788a.42.42 0 0 0-.337-.212m-17.146.064a.42.42 0 0 0-.416.337l-1.014 4.801a.425.425 0 0 0 .326.505.42.42 0 0 0 .501-.328l1.015-4.801a.425.425 0 0 0-.412-.514m9.21.003a.423.423 0 0 0-.412.513l1.01 4.802a.422.422 0 1 0 .829-.176l-1.011-4.802a.42.42 0 0 0-.417-.337m-4.598.484a.423.423 0 0 0-.423.426v4.908a.423.423 0 1 0 .846 0v-4.908a.423.423 0 0 0-.423-.426m-7.768 1.586a.42.42 0 0 0-.366.293l-.635 1.964a.425.425 0 0 0 .272.536c.223.073.46-.05.533-.273l.635-1.964a.425.425 0 0 0-.439-.556m15.533.001a.425.425 0 0 0-.439.556l.635 1.963c.072.225.31.346.533.274a.425.425 0 0 0 .272-.537l-.635-1.963a.42.42 0 0 0-.366-.293m-10.421 1.094a.42.42 0 0 0-.38.379l-.214 2.053a.424.424 0 1 0 .842.09l.214-2.054a.424.424 0 0 0-.462-.468m5.296.002a.424.424 0 0 0-.463.468l.213 2.053a.423.423 0 1 0 .842-.088l-.213-2.054a.42.42 0 0 0-.38-.38"/><g filter="url(#filter1_f_871_2670)" opacity=".409"><path fill="#000" d="M53.093 16.089 29.94 29.615 15.302 52.787l21.415-15.95z"/></g><path fill="#FF5150" d="m36.578 36.603-6.637-6.988L53.483 13.69z"/><path fill="#F1F1F1" d="m36.578 36.603-6.637-6.988-16.905 22.912z"/><path fill="#000" d="m13.036 52.526 23.542-15.923L53.483 13.69z" opacity=".243"/></g><defs><filter id="filter0_f_871_2670" width="75.575" height="73.649" x="-4.526" y="-1.121" color-interpolation-filters="sRGB" filterUnits="userSpaceOnUse"><feFlood flood-opacity="0" result="BackgroundImageFix"/><feBlend in="SourceGraphic" in2="BackgroundImageFix" result="shape"/><feGaussianBlur result="effect1_foregroundBlur_871_2670" stdDeviation="3.725"/></filter><filter id="filter1_f_871_2670" width="42.026" height="40.933" x="13.184" y="13.971" color-interpolation-filters="sRGB" filterUnits="userSpaceOnUse"><feFlood flood-opacity="0" result="BackgroundImageFix"/><feBlend in="SourceGraphic" in2="BackgroundImageFix" result="shape"/><feGaussianBlur result="effect1_foregroundBlur_871_2670" stdDeviation="1.059"/></filter><radialGradient id="paint1_radial_871_2670" cx="0" cy="0" r="1" gradientTransform="matrix(31.4928 0 0 31.666 33.39 28.854)" gradientUnits="userSpaceOnUse"><stop stop-color="#06C2E7"/><stop offset=".25" stop-color="#0DB8EC"/><stop offset=".5" stop-color="#12AEF1"/><stop offset=".75" stop-color="#1F86F9"/><stop offset="1" stop-color="#107DDD"/></radialGradient><linearGradient id="paint0_linear_871_2670" x1="33.258" x2="33.258" y1="64.774" y2="1.442" gradientUnits="userSpaceOnUse"><stop stop-color="#BDBDBD"/><stop offset="1" stop-color="#fff"/></linearGradient><clipPath id="clip0_871_2670"><path fill="#fff" d="M0 0h66.52v66.52H0z"/></clipPath></defs></svg>