<svg xmlns="http://www.w3.org/2000/svg" width="67" height="67" fill="none" viewBox="0 0 67 67"><g clip-path="url(#clip0_871_2822)"><path fill="#F2E4FF" d="M33.26 65.22c17.651 0 31.96-14.309 31.96-31.96S50.911 1.299 33.26 1.299 1.299 15.609 1.299 33.259c0 17.652 14.31 31.961 31.96 31.961"/><path fill="url(#paint0_linear_871_2822)" d="M33.328 60.47V56.44c12.772-.037 23.113-10.4 23.113-23.18S46.1 10.117 33.328 10.08V6.048c14.999.038 27.144 12.205 27.144 27.211 0 15.008-12.145 27.175-27.144 27.212m0-14.111c7.204-.038 13.034-5.886 13.034-13.1s-5.83-13.06-13.034-13.099v-4.03c9.431.036 17.066 7.69 17.066 17.129s-7.635 17.094-17.066 17.13zm0-20.151a7.053 7.053 0 0 1 0 14.103zM0 33.258C0 51.629 14.89 66.52 33.26 66.52s33.26-14.891 33.26-33.261C66.52 14.89 51.629 0 33.26 0 14.89 0 0 14.89 0 33.259"/><path fill="url(#paint1_linear_871_2822)" d="M33.26 3.767C16.687 3.767 3.25 17.145 3.25 33.649c0 16.503 13.437 29.882 30.012 29.882z"/></g><defs><linearGradient id="paint0_linear_871_2822" x1="3326" x2="3326" y1="6652" y2="0" gradientUnits="userSpaceOnUse"><stop stop-color="#420C5D"/><stop offset="1" stop-color="#951AD1"/></linearGradient><linearGradient id="paint1_linear_871_2822" x1="-1467.34" x2="-1467.34" y1="5980.18" y2="3.767" gradientUnits="userSpaceOnUse"><stop stop-color="#420C5D"/><stop offset="1" stop-color="#951AD1"/></linearGradient><clipPath id="clip0_871_2822"><path fill="#fff" d="M0 0h66.52v66.52H0z"/></clipPath></defs></svg>