<svg xmlns="http://www.w3.org/2000/svg" width="54" height="54" fill="none" viewBox="0 0 54 54"><g clip-path="url(#clip0_871_2655)"><circle cx="26.815" cy="26.817" r="17.143" fill="#fff"/><path fill="#3D3D3D" d="M26.816 0C12.004 0 0 12.004 0 26.816S12.004 53.63 26.816 53.63 53.63 41.627 53.63 26.816 41.627 0 26.816 0m.953 14.885c.984-1.194 2.66-2.106 4.095-2.21.241 1.634-.429 3.226-1.309 4.357-.943 1.215-2.566 2.147-4.137 2.095-.273-1.56.46-3.163 1.35-4.242m8.83 20.719c-1.131 1.718-2.723 3.865-4.703 3.886-1.76.021-2.21-1.142-4.588-1.131s-2.88 1.152-4.64 1.131c-1.98-.02-3.489-1.959-4.62-3.677-3.163-4.818-3.498-10.464-1.54-13.47 1.383-2.137 3.572-3.384 5.636-3.384 2.095 0 3.404 1.153 5.143 1.153 1.676 0 2.702-1.153 5.122-1.153 1.833 0 3.771.995 5.154 2.724-4.525 2.482-3.792 8.945.785 10.674-.639 1.382-.942 2.01-1.749 3.247"/></g><defs><clipPath id="clip0_871_2655"><path fill="#fff" d="M0 0h53.631v53.631H0z"/></clipPath></defs></svg>