<svg xmlns="http://www.w3.org/2000/svg" width="54" height="54" fill="none" viewBox="0 0 54 54"><g clip-path="url(#clip0_871_2601)"><path fill="#F7931A" d="M52.825 33.301C49.243 47.666 34.693 56.41 20.327 52.827 5.965 49.245-2.777 34.695.807 20.33 4.385 5.963 18.935-2.78 33.297.801c14.366 3.582 23.108 18.134 19.527 32.5"/><path fill="#fff" d="M38.638 22.994c.534-3.568-2.183-5.486-5.897-6.766l1.205-4.833-2.942-.733-1.174 4.706c-.773-.193-1.567-.375-2.357-.555l1.182-4.737-2.94-.733-1.206 4.832c-.64-.146-1.27-.29-1.88-.442l.004-.015-4.057-1.013-.783 3.142s2.183.5 2.137.531c1.191.298 1.407 1.086 1.37 1.712l-1.372 5.506c.082.02.189.05.306.098l-.31-.077-1.925 7.713c-.146.362-.515.905-1.348.7.03.042-2.139-.535-2.139-.535l-1.46 3.368 3.828.955c.713.178 1.41.365 2.098.54l-1.218 4.89 2.94.733 1.205-4.837c.803.218 1.582.419 2.345.608l-1.202 4.815 2.942.733 1.218-4.88c5.017.95 8.789.567 10.377-3.97 1.28-3.654-.064-5.762-2.703-7.136 1.922-.443 3.37-1.708 3.756-4.32m-6.722 9.426c-.91 3.654-7.06 1.679-9.055 1.184l1.616-6.477c1.994.498 8.39 1.483 7.44 5.293m.91-9.479c-.83 3.324-5.95 1.635-7.61 1.221l1.464-5.874c1.661.414 7.01 1.187 6.146 4.653"/></g><defs><clipPath id="clip0_871_2601"><path fill="#fff" d="M0 0h53.63v53.63H0z"/></clipPath></defs></svg>