<svg xmlns="http://www.w3.org/2000/svg" width="54" height="54" fill="none" viewBox="0 0 54 54"><g clip-path="url(#clip0_871_2643)"><path fill="#F0B90B" fill-rule="evenodd" d="M26.816 0C41.626 0 53.63 12.005 53.63 26.816S41.626 53.63 26.816 53.63 0 41.626 0 26.816 12.005 0 26.816 0" clip-rule="evenodd"/><path fill="#fff" d="m14.736 26.816.02 7.09 6.025 3.546v4.151l-9.551-5.601v-11.26zm0-7.09v4.131l-3.509-2.075V17.65l3.51-2.076 3.525 2.076zm8.56-2.076 3.51-2.076 3.525 2.076-3.526 2.076z"/><path fill="#fff" d="M17.274 32.437v-4.151l3.51 2.075v4.132zM23.3 38.94l3.51 2.076 3.525-2.076v4.132l-3.526 2.076L23.3 43.07zm12.067-21.29 3.51-2.075L42.4 17.65v4.132l-3.526 2.075v-4.131zm3.51 16.258.019-7.09 3.508-2.076V36l-9.55 5.601V37.45z"/><path fill="#fff" d="m36.358 32.436-3.508 2.057V30.36l3.508-2.076z"/><path fill="#fff" d="m36.359 21.195.02 4.151-6.043 3.545V36l-3.508 2.057-3.51-2.057v-7.108l-6.041-3.545v-4.151l3.523-2.076 6.006 3.563 6.042-3.563 3.526 2.076zm-19.085-7.089 9.534-5.62 9.551 5.62-3.509 2.076-6.042-3.563-6.025 3.563z"/></g><defs><clipPath id="clip0_871_2643"><path fill="#fff" d="M0 0h53.631v53.631H0z"/></clipPath></defs></svg>