<svg xmlns="http://www.w3.org/2000/svg" width="54" height="54" fill="none" viewBox="0 0 54 54"><rect width="53.631" height="53.631" fill="#fff" rx="26.816"/><path fill="#1976D3" d="M45.167 27.25c0-1.357-.121-2.66-.347-3.911H26.815v7.403h10.289c-.452 2.381-1.808 4.397-3.841 5.753v4.814h6.204c3.615-3.337 5.7-8.238 5.7-14.06"/><path fill="#4CB050" d="M26.815 45.93c5.161 0 9.489-1.702 12.652-4.622l-6.204-4.814c-1.704 1.147-3.876 1.842-6.448 1.842-4.97 0-9.193-3.354-10.705-7.872H9.749v4.935c3.146 6.24 9.593 10.532 17.066 10.532"/><path fill="#FEC107" d="M16.11 30.447a11.5 11.5 0 0 1-.609-3.632c0-1.269.226-2.485.609-3.632v-4.936H9.749a18.9 18.9 0 0 0-2.05 8.568c0 3.093.747 5.995 2.05 8.567l4.953-3.858z"/><path fill="#FF3D00" d="M26.815 15.31c2.815 0 5.318.973 7.316 2.85l5.475-5.474c-3.32-3.093-7.63-4.988-12.791-4.988-7.473 0-13.92 4.293-17.066 10.55l6.36 4.935c1.513-4.519 5.736-7.873 10.706-7.873"/></svg>