<svg xmlns="http://www.w3.org/2000/svg" width="54" height="54" fill="none" viewBox="0 0 54 54"><rect width="53.631" height="53.631" fill="#0072ED" rx="26.816"/><path fill="#fff" d="M14.526 30.726c0-5.14 2.57-10.503 5.586-10.503 1.676 0 3.017 1.006 5.14 4.023-2.011 3.128-3.24 5.028-3.24 5.028-2.682 4.246-3.576 5.14-5.028 5.14-1.453.111-2.458-1.23-2.458-3.688m17.542-1.9-1.9-3.128c-.447-.782-1.005-1.564-1.452-2.234 1.676-2.57 3.016-3.91 4.692-3.91 3.352 0 6.034 5.027 6.034 11.284 0 2.346-.782 3.687-2.346 3.687s-2.123-1.005-5.028-5.698m-4.805-7.597c-2.458-3.24-4.58-4.47-7.039-4.47-5.14 0-9.05 6.816-9.05 13.967 0 4.47 2.123 7.263 5.698 7.263 2.57 0 4.358-1.23 7.71-7.04 0 0 1.34-2.457 2.346-4.133.335.558.67 1.117 1.005 1.787l1.565 2.682c3.016 5.14 4.692 6.815 7.71 6.815 3.463 0 5.362-2.904 5.362-7.486-.111-7.597-4.134-13.854-8.938-13.854-2.57 0-4.581 2.01-6.369 4.469"/></svg>