<svg xmlns="http://www.w3.org/2000/svg" width="54" height="54" fill="none" viewBox="0 0 54 54"><g clip-path="url(#clip0_871_2617)"><path fill="#76B900" d="M26.828 53.643c14.81 0 26.815-12.006 26.815-26.815S41.637.013 26.828.013.013 12.018.013 26.828s12.005 26.815 26.815 26.815"/><path fill="#fff" d="M22.55 22.881V21.12q.256-.019.52-.027c4.818-.151 7.982 4.142 7.982 4.142s-3.415 4.744-7.077 4.744a4.5 4.5 0 0 1-1.425-.228v-5.344c1.877.226 2.252 1.055 3.382 2.936l2.51-2.116s-1.834-2.403-4.92-2.403q-.486.003-.971.058m0-5.822v2.633q.26-.021.52-.031c6.703-.226 11.07 5.5 11.07 5.5s-5.017 6.096-10.243 6.096q-.68 0-1.348-.118v1.627q.559.072 1.122.072c4.863 0 8.38-2.484 11.784-5.423.564.452 2.875 1.552 3.352 2.034-3.238 2.71-10.784 4.895-15.062 4.895-.412 0-.809-.024-1.197-.062v2.287h18.484V17.06zm0 12.69v1.389c-4.499-.8-5.748-5.476-5.748-5.476s2.16-2.392 5.747-2.78v1.523h-.007c-1.882-.225-3.352 1.532-3.352 1.532s.825 2.961 3.36 3.813M14.56 25.46s2.666-3.934 7.99-4.34v-1.427c-5.895.471-11 5.466-11 5.466s2.891 8.36 11.001 9.125v-1.519c-5.95-.747-7.99-7.305-7.99-7.305"/></g><defs><clipPath id="clip0_871_2617"><path fill="#fff" d="M0 0h53.63v53.63H0z"/></clipPath></defs></svg>