<svg xmlns="http://www.w3.org/2000/svg" width="54" height="54" fill="none" viewBox="0 0 54 54"><rect width="53.631" height="53.631" fill="#000" rx="26.816"/><path fill="url(#paint0_linear_871_2666)" d="M36.268 20.073a.7.7 0 0 1-.272.218.7.7 0 0 1-.33.076H14.386c-.752 0-1.137-1.09-.61-1.744l3.495-4.306a.77.77 0 0 1 .61-.305h21.367c.76 0 1.137 1.1.601 1.755zm0 19.253a.8.8 0 0 1-.601.294H14.385c-.752 0-1.137-1.068-.61-1.7l3.495-4.209a.7.7 0 0 1 .281-.218.7.7 0 0 1 .33-.076h21.366c.76 0 1.137 1.08.601 1.711zm0-15.317a.8.8 0 0 0-.601-.295H14.385c-.752 0-1.137 1.069-.61 1.701l3.495 4.208a.7.7 0 0 0 .281.218.7.7 0 0 0 .33.076h21.366c.76 0 1.137-1.079.601-1.711z"/><defs><linearGradient id="paint0_linear_871_2666" x1="15.156" x2="41.73" y1="39.94" y2="17.641" gradientUnits="userSpaceOnUse"><stop stop-color="#CF41E8"/><stop offset="1" stop-color="#10F2B0"/></linearGradient></defs></svg>