<svg xmlns="http://www.w3.org/2000/svg" width="54" height="54" fill="none" viewBox="0 0 54 54"><g clip-path="url(#clip0_871_2629)"><path fill="#C90000" d="M26.815 53.63c14.81 0 26.815-12.006 26.815-26.815S41.624 0 26.815 0 0 12.006 0 26.815 12.006 53.63 26.815 53.63"/><path fill="#fff" d="m26.816 40.904 3.765-21.19c3.593 0 4.724.393 4.887 2 0 0 2.409-.9 3.624-2.723-4.74-2.194-9.506-2.294-9.506-2.294l-2.78 3.383h.005l-2.782-3.383s-4.765.1-9.505 2.294c1.215 1.823 3.624 2.723 3.624 2.723.162-1.607 1.294-2 4.86-2.005zm0-25.186c3.833-.032 8.217.591 12.71 2.55.603-1.079.755-1.555.755-1.555-4.907-1.943-9.506-2.608-13.465-2.624-3.96.016-8.558.68-13.465 2.624 0 0 .22.586.754 1.555 4.488-1.953 8.877-2.577 12.71-2.55"/></g><defs><clipPath id="clip0_871_2629"><path fill="#fff" d="M0 0h53.63v53.63H0z"/></clipPath></defs></svg>