<svg xmlns="http://www.w3.org/2000/svg" width="54" height="54" fill="none" viewBox="0 0 54 54"><g clip-path="url(#clip0_871_2638)"><path fill="#2775CA" d="M26.816 53.631A26.75 26.75 0 0 0 53.63 26.816 26.75 26.75 0 0 0 26.816 0 26.75 26.75 0 0 0 0 26.816 26.75 26.75 0 0 0 26.816 53.63"/><path fill="#fff" d="M34.189 31.062c0-3.91-2.347-5.251-7.04-5.81-3.351-.447-4.022-1.34-4.022-2.905s1.118-2.57 3.352-2.57c2.011 0 3.129.67 3.687 2.346a.84.84 0 0 0 .783.56h1.787a.764.764 0 0 0 .782-.783v-.112a5.58 5.58 0 0 0-5.028-4.58v-2.682c0-.447-.335-.782-.893-.894H25.92c-.447 0-.782.335-.894.894v2.57c-3.352.447-5.475 2.681-5.475 5.474 0 3.688 2.235 5.14 6.927 5.699 3.129.558 4.134 1.229 4.134 3.017s-1.564 3.016-3.687 3.016c-2.905 0-3.91-1.229-4.246-2.905-.111-.447-.447-.67-.782-.67h-1.9a.764.764 0 0 0-.781.782v.112c.447 2.793 2.234 4.804 5.922 5.363v2.682c0 .446.335.781.893.893h1.676c.447 0 .782-.335.894-.893v-2.682c3.352-.559 5.587-2.905 5.587-5.922"/><path fill="#fff" d="M21.116 42.794c-8.715-3.128-13.184-12.849-9.944-21.452 1.676-4.693 5.363-8.268 9.944-9.944.447-.224.67-.559.67-1.118V8.716c0-.447-.223-.782-.67-.894-.111 0-.335 0-.447.112C10.055 11.286 4.245 22.57 7.597 33.185c2.01 6.257 6.815 11.062 13.072 13.073.447.223.894 0 1.006-.447.112-.112.112-.224.112-.447V43.8c0-.336-.335-.782-.67-1.006M32.96 7.934c-.447-.224-.894 0-1.006.447-.111.112-.111.223-.111.447v1.564c0 .447.335.894.67 1.117 8.715 3.129 13.184 12.85 9.944 21.453-1.676 4.693-5.363 8.268-9.944 9.944-.447.223-.67.558-.67 1.117v1.564c0 .447.223.783.67.894.112 0 .335 0 .447-.111 10.614-3.352 16.425-14.637 13.073-25.252C44.02 14.75 39.105 9.945 32.96 7.934"/></g><defs><clipPath id="clip0_871_2638"><path fill="#fff" d="M0 0h53.631v53.631H0z"/></clipPath></defs></svg>