<svg xmlns="http://www.w3.org/2000/svg" width="54" height="54" fill="none" viewBox="0 0 54 54"><g clip-path="url(#clip0_871_2633)"><path fill="#26A17B" d="M26.816 53.631c14.81 0 26.815-12.006 26.815-26.815S41.625 0 26.816 0 0 12.006 0 26.816 12.006 53.63 26.816 53.63"/><path fill="#fff" fill-rule="evenodd" d="M30.037 29.135v-.004c-.185.014-1.135.07-3.255.07-1.693 0-2.884-.05-3.303-.07v.005c-6.517-.286-11.38-1.421-11.38-2.779 0-1.355 4.863-2.49 11.38-2.782v4.432c.425.03 1.646.102 3.332.102 2.022 0 3.036-.084 3.226-.1v-4.43c6.502.29 11.355 1.424 11.355 2.778 0 1.358-4.853 2.49-11.355 2.778m0-6.017v-3.966h9.074v-6.047H14.405v6.047h9.074v3.964c-7.375.339-12.92 1.8-12.92 3.55s5.545 3.21 12.92 3.55v12.707h6.558v-12.71c7.362-.34 12.895-1.8 12.895-3.547s-5.533-3.208-12.895-3.548" clip-rule="evenodd"/></g><defs><clipPath id="clip0_871_2633"><path fill="#fff" d="M0 0h53.631v53.631H0z"/></clipPath></defs></svg>